<ttFont>
    <TTGlyph name="A" xMin="-137" yMin="-152" xMax="1837" yMax="1565">
      <contour>
        <pt x="1792" y="471" on="1"/>
        <pt x="1746" y="445" on="0"/>
        <pt x="1652" y="399" on="0"/>
        <pt x="1604" y="379" on="1"/>
        <pt x="1656" y="274" on="0"/>
        <pt x="1772" y="81" on="0"/>
        <pt x="1837" y="-12" on="1"/>
        <pt x="1670" y="-12" on="0"/>
        <pt x="1369" y="-79" on="0"/>
        <pt x="1223" y="-152" on="1"/>
        <pt x="1231" y="-126" on="0"/>
        <pt x="1237" y="-65" on="0"/>
        <pt x="1237" y="-31" on="1"/>
        <pt x="1237" y="29" on="0"/>
        <pt x="1214" y="173" on="0"/>
        <pt x="1192" y="254" on="1"/>
        <pt x="1139" y="246" on="0"/>
        <pt x="1034" y="238" on="0"/>
        <pt x="983" y="238" on="1"/>
        <pt x="895" y="238" on="0"/>
        <pt x="729" y="266" on="0"/>
        <pt x="651" y="295" on="1"/>
        <pt x="633" y="202" on="0"/>
        <pt x="601" y="12" on="0"/>
        <pt x="586" y="-88" on="1"/>
        <pt x="535" y="-60" on="0"/>
        <pt x="473" y="-38" on="1"/>
        <pt x="419" y="-19" on="0"/>
        <pt x="271" y="12" on="0"/>
        <pt x="180" y="12" on="1"/>
        <pt x="108" y="12" on="0"/>
        <pt x="-52" y="-15" on="0"/>
        <pt x="-137" y="-47" on="1"/>
        <pt x="-59" y="38" on="0"/>
        <pt x="76" y="211" on="0"/>
        <pt x="186" y="372" on="0"/>
        <pt x="272" y="512" on="0"/>
        <pt x="301" y="563" on="1"/>
        <pt x="272" y="603" on="0"/>
        <pt x="220" y="695" on="0"/>
        <pt x="199" y="748" on="1"/>
        <pt x="239" y="726" on="0"/>
        <pt x="320" y="689" on="0"/>
        <pt x="360" y="672" on="1"/>
        <pt x="360" y="674" on="1"/>
        <pt x="414" y="785" on="0"/>
        <pt x="532" y="997" on="0"/>
        <pt x="600" y="1096" on="1"/>
        <pt x="586" y="1130" on="0"/>
        <pt x="545" y="1216" on="0"/>
        <pt x="497" y="1310" on="0"/>
        <pt x="444" y="1404" on="0"/>
        <pt x="418" y="1446" on="1"/>
        <pt x="517" y="1418" on="0"/>
        <pt x="724" y="1383" on="0"/>
        <pt x="834" y="1378" on="1"/>
        <pt x="892" y="1434" on="0"/>
        <pt x="1016" y="1528" on="0"/>
        <pt x="1085" y="1565" on="1"/>
        <pt x="1061" y="1520" on="0"/>
        <pt x="1015" y="1428" on="0"/>
        <pt x="993" y="1380" on="1"/>
        <pt x="1052" y="1383" on="0"/>
        <pt x="1170" y="1399" on="0"/>
        <pt x="1229" y="1411" on="1"/>
        <pt x="1272" y="1240" on="0"/>
        <pt x="1374" y="912" on="0"/>
        <pt x="1436" y="754" on="1"/>
        <pt x="1487" y="783" on="0"/>
        <pt x="1583" y="850" on="0"/>
        <pt x="1632" y="887" on="1"/>
        <pt x="1663" y="768" on="0"/>
        <pt x="1741" y="562" on="0"/>
      </contour>
      <contour>
        <pt x="1069" y="606" on="1"/>
        <pt x="980" y="820" on="0"/>
        <pt x="856" y="1047" on="1"/>
        <pt x="818" y="938" on="0"/>
        <pt x="749" y="709" on="0"/>
        <pt x="717" y="584" on="1"/>
        <pt x="743" y="582" on="0"/>
        <pt x="795" y="580" on="0"/>
        <pt x="821" y="580" on="1"/>
        <pt x="884" y="580" on="0"/>
        <pt x="1007" y="592" on="0"/>
      </contour>
    </TTGlyph>
    <TTGlyph name="AE" xMin="-147" yMin="-106" xMax="2570" yMax="1565">
      <contour>
        <pt x="1769" y="4" on="1"/>
        <pt x="1687" y="3" on="0"/>
        <pt x="1526" y="4" on="0"/>
        <pt x="1367" y="-2" on="0"/>
        <pt x="1211" y="-22" on="0"/>
        <pt x="1135" y="-43" on="1"/>
        <pt x="1158" y="37" on="0"/>
        <pt x="1197" y="196" on="0"/>
        <pt x="1212" y="276" on="1"/>
        <pt x="1131" y="256" on="0"/>
        <pt x="969" y="238" on="0"/>
        <pt x="891" y="238" on="1"/>
        <pt x="840" y="238" on="0"/>
        <pt x="744" y="247" on="0"/>
        <pt x="696" y="256" on="1"/>
        <pt x="662" y="174" on="0"/>
        <pt x="601" y="3" on="0"/>
        <pt x="575" y="-88" on="1"/>
        <pt x="524" y="-60" on="0"/>
        <pt x="462" y="-38" on="1"/>
        <pt x="408" y="-19" on="0"/>
        <pt x="261" y="12" on="0"/>
        <pt x="170" y="12" on="1"/>
        <pt x="98" y="12" on="0"/>
        <pt x="-62" y="-15" on="0"/>
        <pt x="-147" y="-47" on="1"/>
        <pt x="-92" y="7" on="0"/>
        <pt x="15" y="130" on="0"/>
        <pt x="122" y="263" on="0"/>
        <pt x="228" y="403" on="0"/>
        <pt x="283" y="475" on="1"/>
        <pt x="177" y="584" on="0"/>
        <pt x="106" y="748" on="1"/>
        <pt x="182" y="707" on="0"/>
        <pt x="327" y="648" on="0"/>
        <pt x="399" y="627" on="1"/>
        <pt x="468" y="714" on="0"/>
        <pt x="613" y="889" on="0"/>
        <pt x="771" y="1055" on="0"/>
        <pt x="944" y="1211" on="0"/>
        <pt x="1040" y="1280" on="1"/>
        <pt x="959" y="1291" on="0"/>
        <pt x="806" y="1307" on="0"/>
        <pt x="737" y="1315" on="1"/>
        <pt x="840" y="1355" on="0"/>
        <pt x="1085" y="1414" on="0"/>
        <pt x="1219" y="1436" on="1"/>
        <pt x="1212" y="1468" on="1"/>
        <pt x="1231" y="1462" on="0"/>
        <pt x="1268" y="1451" on="0"/>
        <pt x="1286" y="1446" on="1"/>
        <pt x="1331" y="1452" on="1"/>
        <pt x="1467" y="1518" on="0"/>
        <pt x="1626" y="1565" on="1"/>
        <pt x="1608" y="1546" on="0"/>
        <pt x="1563" y="1500" on="0"/>
        <pt x="1538" y="1477" on="1"/>
        <pt x="1691" y="1491" on="0"/>
        <pt x="1976" y="1503" on="0"/>
        <pt x="2097" y="1503" on="1"/>
        <pt x="2139" y="1503" on="0"/>
        <pt x="2266" y="1496" on="0"/>
        <pt x="2401" y="1487" on="0"/>
        <pt x="2527" y="1477" on="0"/>
        <pt x="2570" y="1473" on="1"/>
        <pt x="2521" y="1290" on="0"/>
        <pt x="2521" y="1094" on="1"/>
        <pt x="2521" y="1022" on="0"/>
        <pt x="2527" y="952" on="1"/>
        <pt x="2372" y="1017" on="0"/>
        <pt x="1967" y="1124" on="0"/>
        <pt x="1743" y="1167" on="1"/>
        <pt x="1735" y="1089" on="0"/>
        <pt x="1726" y="928" on="0"/>
        <pt x="1724" y="850" on="1"/>
        <pt x="1926" y="896" on="0"/>
        <pt x="2130" y="899" on="1"/>
        <pt x="2119" y="853" on="0"/>
        <pt x="2107" y="761" on="0"/>
        <pt x="2107" y="713" on="1"/>
        <pt x="2107" y="676" on="0"/>
        <pt x="2114" y="602" on="0"/>
        <pt x="2122" y="565" on="1"/>
        <pt x="2025" y="612" on="0"/>
        <pt x="1826" y="686" on="0"/>
        <pt x="1722" y="715" on="1"/>
        <pt x="1722" y="609" on="0"/>
        <pt x="1732" y="383" on="0"/>
        <pt x="1741" y="268" on="1"/>
        <pt x="2126" y="320" on="0"/>
        <pt x="2527" y="459" on="1"/>
        <pt x="2515" y="384" on="0"/>
        <pt x="2501" y="238" on="0"/>
        <pt x="2501" y="164" on="1"/>
        <pt x="2501" y="96" on="0"/>
        <pt x="2513" y="-38" on="0"/>
        <pt x="2527" y="-106" on="1"/>
        <pt x="2338" y="-58" on="0"/>
        <pt x="1960" y="11" on="0"/>
        <pt x="1765" y="31" on="1"/>
        <pt x="1765" y="25" on="0"/>
        <pt x="1767" y="10" on="0"/>
      </contour>
      <contour>
        <pt x="856" y="586" on="1"/>
        <pt x="1069" y="610" on="0"/>
        <pt x="1270" y="713" on="1"/>
        <pt x="1272" y="755" on="0"/>
        <pt x="1274" y="835" on="0"/>
        <pt x="1274" y="877" on="1"/>
        <pt x="1274" y="949" on="0"/>
        <pt x="1265" y="1095" on="0"/>
        <pt x="1257" y="1169" on="1"/>
        <pt x="1158" y="1052" on="0"/>
        <pt x="953" y="762" on="0"/>
      </contour>
    </TTGlyph>
    <TTGlyph name="AEacute" xMin="-147" yMin="-106" xMax="2570" yMax="1989">
      <component glyphName="AE" x="0" y="0" flags="0x204"/>
      <component glyphName="acute" x="1346" y="535" flags="0x4"/>
    </TTGlyph>
    <TTGlyph name="Aacute" xMin="-137" yMin="-152" xMax="1837" yMax="1950">
      <component glyphName="A" x="0" y="0" flags="0x204"/>
      <component glyphName="acute" x="1004" y="496" flags="0x4"/>
    </TTGlyph>
    <TTGlyph name="Abreve" xMin="-137" yMin="-152" xMax="1837" yMax="1938">
      <component glyphName="A" x="0" y="0" flags="0x204"/>
      <component glyphName="breve" x="645" y="502" flags="0x4"/>
    </TTGlyph>
    <TTGlyph name="Acircumflex" xMin="-137" yMin="-152" xMax="1837" yMax="1911">
      <component glyphName="A" x="0" y="0" flags="0x204"/>
      <component glyphName="circumflex" x="674" y="477" flags="0x4"/>
    </TTGlyph>
    <TTGlyph name="Adieresis" xMin="-137" yMin="-152" xMax="1837" yMax="1759">
      <component glyphName="A" x="0" y="0" flags="0x204"/>
      <component glyphName="dieresis" x="713" y="387" flags="0x4"/>
    </TTGlyph>
    <TTGlyph name="Agrave" xMin="-137" yMin="-152" xMax="1837" yMax="1911">
      <component glyphName="A" x="0" y="0" flags="0x204"/>
      <component glyphName="grave" x="510" y="457" flags="0x4"/>
    </TTGlyph>
    <TTGlyph name="Amacron" xMin="-137" yMin="-152" xMax="1837" yMax="1831">
      <component glyphName="A" x="0" y="0" flags="0x204"/>
      <component glyphName="macron" x="623" y="401" flags="0x4"/>
    </TTGlyph>
    <TTGlyph name="Aogonek" xMin="-137" yMin="-473" xMax="1837" yMax="1565">
      <contour>
        <pt x="1837" y="-332" on="1"/>
        <pt x="1802" y="-380" on="0"/>
        <pt x="1725" y="-436" on="0"/>
        <pt x="1654" y="-465" on="0"/>
        <pt x="1593" y="-473" on="0"/>
        <pt x="1573" y="-473" on="1"/>
        <pt x="1515" y="-473" on="0"/>
        <pt x="1428" y="-434" on="0"/>
        <pt x="1369" y="-373" on="0"/>
        <pt x="1339" y="-298" on="0"/>
        <pt x="1339" y="-262" on="1"/>
        <pt x="1339" y="-216" on="0"/>
        <pt x="1391" y="-114" on="0"/>
        <pt x="1444" y="-66" on="1"/>
        <pt x="1331" y="-96" on="0"/>
        <pt x="1223" y="-152" on="1"/>
        <pt x="1231" y="-126" on="0"/>
        <pt x="1237" y="-65" on="0"/>
        <pt x="1237" y="-31" on="1"/>
        <pt x="1237" y="29" on="0"/>
        <pt x="1214" y="173" on="0"/>
        <pt x="1192" y="254" on="1"/>
        <pt x="1139" y="246" on="0"/>
        <pt x="1034" y="238" on="0"/>
        <pt x="983" y="238" on="1"/>
        <pt x="895" y="238" on="0"/>
        <pt x="729" y="266" on="0"/>
        <pt x="651" y="295" on="1"/>
        <pt x="633" y="202" on="0"/>
        <pt x="601" y="12" on="0"/>
        <pt x="586" y="-88" on="1"/>
        <pt x="535" y="-60" on="0"/>
        <pt x="473" y="-38" on="1"/>
        <pt x="419" y="-19" on="0"/>
        <pt x="271" y="12" on="0"/>
        <pt x="180" y="12" on="1"/>
        <pt x="108" y="12" on="0"/>
        <pt x="-52" y="-15" on="0"/>
        <pt x="-137" y="-47" on="1"/>
        <pt x="-59" y="38" on="0"/>
        <pt x="76" y="211" on="0"/>
        <pt x="186" y="372" on="0"/>
        <pt x="272" y="512" on="0"/>
        <pt x="301" y="563" on="1"/>
        <pt x="272" y="603" on="0"/>
        <pt x="220" y="695" on="0"/>
        <pt x="199" y="748" on="1"/>
        <pt x="239" y="726" on="0"/>
        <pt x="320" y="689" on="0"/>
        <pt x="360" y="672" on="1"/>
        <pt x="360" y="674" on="1"/>
        <pt x="414" y="785" on="0"/>
        <pt x="532" y="997" on="0"/>
        <pt x="600" y="1096" on="1"/>
        <pt x="586" y="1130" on="0"/>
        <pt x="545" y="1216" on="0"/>
        <pt x="497" y="1310" on="0"/>
        <pt x="444" y="1404" on="0"/>
        <pt x="418" y="1446" on="1"/>
        <pt x="517" y="1418" on="0"/>
        <pt x="724" y="1383" on="0"/>
        <pt x="834" y="1378" on="1"/>
        <pt x="892" y="1434" on="0"/>
        <pt x="1016" y="1528" on="0"/>
        <pt x="1085" y="1565" on="1"/>
        <pt x="1061" y="1520" on="0"/>
        <pt x="1015" y="1428" on="0"/>
        <pt x="993" y="1380" on="1"/>
        <pt x="1052" y="1383" on="0"/>
        <pt x="1170" y="1399" on="0"/>
        <pt x="1229" y="1411" on="1"/>
        <pt x="1272" y="1240" on="0"/>
        <pt x="1374" y="912" on="0"/>
        <pt x="1436" y="754" on="1"/>
        <pt x="1487" y="783" on="0"/>
        <pt x="1583" y="850" on="0"/>
        <pt x="1632" y="887" on="1"/>
        <pt x="1663" y="768" on="0"/>
        <pt x="1741" y="562" on="0"/>
        <pt x="1792" y="471" on="1"/>
        <pt x="1746" y="445" on="0"/>
        <pt x="1652" y="399" on="0"/>
        <pt x="1604" y="379" on="1"/>
        <pt x="1656" y="274" on="0"/>
        <pt x="1772" y="81" on="0"/>
        <pt x="1837" y="-12" on="1"/>
        <pt x="1769" y="-12" on="0"/>
        <pt x="1640" y="-22" on="0"/>
        <pt x="1577" y="-33" on="1"/>
        <pt x="1549" y="-73" on="0"/>
        <pt x="1507" y="-164" on="0"/>
        <pt x="1507" y="-201" on="1"/>
        <pt x="1507" y="-232" on="0"/>
        <pt x="1541" y="-270" on="0"/>
        <pt x="1569" y="-270" on="1"/>
        <pt x="1600" y="-270" on="0"/>
        <pt x="1648" y="-229" on="0"/>
        <pt x="1653" y="-195" on="1"/>
        <pt x="1685" y="-238" on="0"/>
        <pt x="1780" y="-309" on="0"/>
      </contour>
      <contour>
        <pt x="1069" y="606" on="1"/>
        <pt x="980" y="820" on="0"/>
        <pt x="856" y="1047" on="1"/>
        <pt x="818" y="938" on="0"/>
        <pt x="749" y="709" on="0"/>
        <pt x="717" y="584" on="1"/>
        <pt x="743" y="582" on="0"/>
        <pt x="795" y="580" on="0"/>
        <pt x="821" y="580" on="1"/>
        <pt x="884" y="580" on="0"/>
        <pt x="1007" y="592" on="0"/>
      </contour>
    </TTGlyph>
    <TTGlyph name="Aring" xMin="-137" yMin="-152" xMax="1837" yMax="1991">
      <component glyphName="A" x="0" y="0" flags="0x204"/>
      <component glyphName="ring" x="733" y="498" flags="0x4"/>
    </TTGlyph>
    <TTGlyph name="Atilde" xMin="-137" yMin="-152" xMax="1837" yMax="1860">
      <component glyphName="A" x="0" y="0" flags="0x204"/>
      <component glyphName="tilde" x="563" y="410" flags="0x4"/>
    </TTGlyph>
    <TTGlyph name="B" xMin="27" yMin="-190" xMax="1661" yMax="1534">
      <contour>
        <pt x="1622" y="260" on="1"/>
        <pt x="1620" y="177" on="0"/>
        <pt x="1555" y="46" on="0"/>
        <pt x="1442" y="-54" on="0"/>
        <pt x="1289" y="-125" on="0"/>
        <pt x="1110" y="-169" on="0"/>
        <pt x="913" y="-190" on="0"/>
        <pt x="813" y="-190" on="1"/>
        <pt x="735" y="-190" on="0"/>
        <pt x="579" y="-178" on="0"/>
        <pt x="432" y="-157" on="0"/>
        <pt x="296" y="-126" on="0"/>
        <pt x="238" y="-106" on="1"/>
        <pt x="262" y="-61" on="1"/>
        <pt x="228" y="-71" on="0"/>
        <pt x="158" y="-94" on="0"/>
        <pt x="123" y="-106" on="1"/>
        <pt x="183" y="74" on="0"/>
        <pt x="270" y="435" on="0"/>
        <pt x="293" y="621" on="1"/>
        <pt x="221" y="667" on="0"/>
        <pt x="107" y="765" on="0"/>
        <pt x="70" y="813" on="1"/>
        <pt x="125" y="796" on="0"/>
        <pt x="244" y="767" on="0"/>
        <pt x="307" y="756" on="1"/>
        <pt x="312" y="818" on="0"/>
        <pt x="317" y="938" on="0"/>
        <pt x="317" y="999" on="1"/>
        <pt x="317" y="1032" on="1"/>
        <pt x="256" y="1012" on="0"/>
        <pt x="136" y="966" on="0"/>
        <pt x="80" y="938" on="1"/>
        <pt x="95" y="994" on="0"/>
        <pt x="111" y="1100" on="0"/>
        <pt x="111" y="1151" on="1"/>
        <pt x="111" y="1238" on="0"/>
        <pt x="67" y="1398" on="0"/>
        <pt x="27" y="1473" on="1"/>
        <pt x="143" y="1491" on="0"/>
        <pt x="333" y="1514" on="0"/>
        <pt x="496" y="1528" on="0"/>
        <pt x="643" y="1534" on="0"/>
        <pt x="715" y="1534" on="1"/>
        <pt x="776" y="1534" on="0"/>
        <pt x="932" y="1528" on="0"/>
        <pt x="1099" y="1508" on="0"/>
        <pt x="1266" y="1470" on="0"/>
        <pt x="1414" y="1404" on="0"/>
        <pt x="1532" y="1307" on="0"/>
        <pt x="1565" y="1239" on="1"/>
        <pt x="1586" y="1251" on="0"/>
        <pt x="1631" y="1283" on="0"/>
        <pt x="1653" y="1300" on="1"/>
        <pt x="1658" y="1273" on="0"/>
        <pt x="1661" y="1219" on="0"/>
        <pt x="1661" y="1194" on="1"/>
        <pt x="1661" y="1116" on="0"/>
        <pt x="1624" y="966" on="0"/>
        <pt x="1557" y="828" on="0"/>
        <pt x="1463" y="703" on="0"/>
        <pt x="1405" y="651" on="1"/>
        <pt x="1460" y="619" on="0"/>
        <pt x="1534" y="538" on="0"/>
        <pt x="1583" y="452" on="0"/>
        <pt x="1609" y="370" on="0"/>
        <pt x="1620" y="304" on="0"/>
        <pt x="1622" y="262" on="0"/>
      </contour>
      <contour>
        <pt x="879" y="436" on="1"/>
        <pt x="805" y="436" on="0"/>
        <pt x="737" y="449" on="1"/>
        <pt x="737" y="396" on="0"/>
        <pt x="739" y="294" on="0"/>
        <pt x="741" y="242" on="1"/>
        <pt x="792" y="226" on="0"/>
        <pt x="884" y="215" on="0"/>
        <pt x="926" y="215" on="1"/>
        <pt x="978" y="215" on="0"/>
        <pt x="1093" y="240" on="0"/>
        <pt x="1190" y="297" on="0"/>
        <pt x="1253" y="389" on="0"/>
        <pt x="1253" y="457" on="1"/>
        <pt x="1253" y="474" on="0"/>
        <pt x="1247" y="512" on="0"/>
        <pt x="1241" y="532" on="1"/>
        <pt x="1156" y="486" on="0"/>
        <pt x="973" y="436" on="0"/>
      </contour>
      <contour>
        <pt x="745" y="1130" on="1"/>
        <pt x="742" y="1031" on="0"/>
        <pt x="739" y="836" on="0"/>
        <pt x="737" y="737" on="1"/>
        <pt x="809" y="748" on="0"/>
        <pt x="924" y="797" on="0"/>
        <pt x="1010" y="881" on="0"/>
        <pt x="1063" y="1003" on="0"/>
        <pt x="1073" y="1087" on="1"/>
        <pt x="1163" y="1102" on="1"/>
        <pt x="1120" y="1127" on="0"/>
        <pt x="1014" y="1151" on="0"/>
        <pt x="952" y="1151" on="1"/>
        <pt x="926" y="1151" on="0"/>
        <pt x="887" y="1149" on="0"/>
        <pt x="844" y="1144" on="0"/>
        <pt x="789" y="1136" on="0"/>
        <pt x="748" y="1130" on="1"/>
      </contour>
    </TTGlyph>
    <TTGlyph name="C" xMin="10" yMin="-96" xMax="1632" yMax="1516">
      <contour>
        <pt x="1632" y="494" on="1"/>
        <pt x="1616" y="369" on="0"/>
        <pt x="1534" y="185" on="0"/>
        <pt x="1418" y="54" on="0"/>
        <pt x="1276" y="-30" on="0"/>
        <pt x="1124" y="-78" on="0"/>
        <pt x="971" y="-96" on="0"/>
        <pt x="901" y="-96" on="1"/>
        <pt x="722" y="-96" on="0"/>
        <pt x="424" y="6" on="0"/>
        <pt x="196" y="210" on="0"/>
        <pt x="43" y="517" on="0"/>
        <pt x="10" y="721" on="1"/>
        <pt x="33" y="713" on="0"/>
        <pt x="85" y="699" on="0"/>
        <pt x="111" y="694" on="1"/>
        <pt x="129" y="897" on="0"/>
        <pt x="305" y="1204" on="0"/>
        <pt x="586" y="1411" on="0"/>
        <pt x="955" y="1516" on="0"/>
        <pt x="1167" y="1516" on="1"/>
        <pt x="1264" y="1516" on="0"/>
        <pt x="1485" y="1496" on="0"/>
        <pt x="1612" y="1473" on="1"/>
        <pt x="1583" y="1382" on="0"/>
        <pt x="1554" y="1199" on="0"/>
        <pt x="1554" y="1108" on="1"/>
        <pt x="1554" y="1012" on="0"/>
        <pt x="1569" y="918" on="1"/>
        <pt x="1510" y="962" on="0"/>
        <pt x="1392" y="1021" on="0"/>
        <pt x="1279" y="1056" on="0"/>
        <pt x="1171" y="1071" on="0"/>
        <pt x="1122" y="1071" on="1"/>
        <pt x="1030" y="1071" on="0"/>
        <pt x="834" y="1020" on="0"/>
        <pt x="659" y="922" on="0"/>
        <pt x="521" y="781" on="0"/>
        <pt x="487" y="690" on="1"/>
        <pt x="528" y="696" on="0"/>
        <pt x="604" y="715" on="0"/>
        <pt x="641" y="727" on="1"/>
        <pt x="635" y="683" on="0"/>
        <pt x="635" y="645" on="1"/>
        <pt x="635" y="551" on="0"/>
        <pt x="701" y="404" on="0"/>
        <pt x="815" y="303" on="0"/>
        <pt x="971" y="250" on="0"/>
        <pt x="1061" y="250" on="1"/>
        <pt x="1112" y="250" on="0"/>
        <pt x="1243" y="269" on="0"/>
        <pt x="1391" y="322" on="0"/>
        <pt x="1551" y="417" on="0"/>
      </contour>
    </TTGlyph>
    <TTGlyph name="Cacute" xMin="10" yMin="-96" xMax="1632" yMax="1931">
      <component glyphName="C" x="0" y="0" flags="0x204"/>
      <component glyphName="acute" x="664" y="477" flags="0x4"/>
    </TTGlyph>
    <TTGlyph name="Ccaron" xMin="10" yMin="-96" xMax="1632" yMax="1997">
      <component glyphName="C" x="0" y="0" flags="0x204"/>
      <component glyphName="caron" x="494" y="563" flags="0x4"/>
    </TTGlyph>
    <TTGlyph name="Ccedilla" xMin="10" yMin="-512" xMax="1632" yMax="1516">
      <contour>
        <pt x="1151" y="-311" on="1"/>
        <pt x="1148" y="-356" on="0"/>
        <pt x="1120" y="-420" on="0"/>
        <pt x="1078" y="-465" on="0"/>
        <pt x="1026" y="-492" on="0"/>
        <pt x="974" y="-507" on="0"/>
        <pt x="924" y="-512" on="0"/>
        <pt x="905" y="-512" on="1"/>
        <pt x="854" y="-512" on="0"/>
        <pt x="744" y="-474" on="0"/>
        <pt x="702" y="-436" on="1"/>
        <pt x="733" y="-407" on="0"/>
        <pt x="781" y="-336" on="0"/>
        <pt x="795" y="-293" on="1"/>
        <pt x="812" y="-315" on="0"/>
        <pt x="848" y="-338" on="0"/>
        <pt x="862" y="-343" on="1"/>
        <pt x="879" y="-349" on="0"/>
        <pt x="895" y="-350" on="1"/>
        <pt x="918" y="-350" on="0"/>
        <pt x="949" y="-336" on="0"/>
        <pt x="967" y="-315" on="0"/>
        <pt x="975" y="-291" on="0"/>
        <pt x="975" y="-281" on="1"/>
        <pt x="975" y="-271" on="0"/>
        <pt x="969" y="-243" on="0"/>
        <pt x="948" y="-218" on="0"/>
        <pt x="909" y="-201" on="0"/>
        <pt x="877" y="-201" on="1"/>
        <pt x="860" y="-201" on="0"/>
        <pt x="816" y="-207" on="0"/>
        <pt x="788" y="-215" on="1"/>
        <pt x="848" y="-94" on="1"/>
        <pt x="680" y="-87" on="0"/>
        <pt x="399" y="22" on="0"/>
        <pt x="185" y="226" on="0"/>
        <pt x="41" y="524" on="0"/>
        <pt x="10" y="721" on="1"/>
        <pt x="33" y="713" on="0"/>
        <pt x="85" y="699" on="0"/>
        <pt x="111" y="694" on="1"/>
        <pt x="129" y="897" on="0"/>
        <pt x="305" y="1204" on="0"/>
        <pt x="586" y="1411" on="0"/>
        <pt x="955" y="1516" on="0"/>
        <pt x="1167" y="1516" on="1"/>
        <pt x="1264" y="1516" on="0"/>
        <pt x="1485" y="1496" on="0"/>
        <pt x="1612" y="1473" on="1"/>
        <pt x="1583" y="1382" on="0"/>
        <pt x="1554" y="1199" on="0"/>
        <pt x="1554" y="1108" on="1"/>
        <pt x="1554" y="1012" on="0"/>
        <pt x="1569" y="918" on="1"/>
        <pt x="1510" y="962" on="0"/>
        <pt x="1392" y="1021" on="0"/>
        <pt x="1279" y="1056" on="0"/>
        <pt x="1171" y="1071" on="0"/>
        <pt x="1122" y="1071" on="1"/>
        <pt x="1030" y="1071" on="0"/>
        <pt x="834" y="1020" on="0"/>
        <pt x="659" y="922" on="0"/>
        <pt x="521" y="781" on="0"/>
        <pt x="487" y="690" on="1"/>
        <pt x="528" y="696" on="0"/>
        <pt x="604" y="715" on="0"/>
        <pt x="641" y="727" on="1"/>
        <pt x="635" y="683" on="0"/>
        <pt x="635" y="645" on="1"/>
        <pt x="635" y="551" on="0"/>
        <pt x="701" y="404" on="0"/>
        <pt x="815" y="303" on="0"/>
        <pt x="971" y="250" on="0"/>
        <pt x="1061" y="250" on="1"/>
        <pt x="1112" y="250" on="0"/>
        <pt x="1243" y="269" on="0"/>
        <pt x="1391" y="322" on="0"/>
        <pt x="1551" y="417" on="0"/>
        <pt x="1632" y="494" on="1"/>
        <pt x="1616" y="373" on="0"/>
        <pt x="1538" y="192" on="0"/>
        <pt x="1428" y="62" on="0"/>
        <pt x="1292" y="-23" on="0"/>
        <pt x="1146" y="-73" on="0"/>
        <pt x="997" y="-95" on="0"/>
        <pt x="928" y="-96" on="1"/>
        <pt x="915" y="-141" on="1"/>
        <pt x="971" y="-141" on="0"/>
        <pt x="1050" y="-165" on="0"/>
        <pt x="1102" y="-200" on="0"/>
        <pt x="1132" y="-243" on="0"/>
        <pt x="1147" y="-280" on="0"/>
        <pt x="1151" y="-308" on="0"/>
      </contour>
    </TTGlyph>
    <TTGlyph name="Ccircumflex" xMin="10" yMin="-96" xMax="1632" yMax="1989">
      <component glyphName="C" x="0" y="0" flags="0x204"/>
      <component glyphName="circumflex" x="494" y="555" flags="0x4"/>
    </TTGlyph>
    <TTGlyph name="Cdotaccent" xMin="10" yMin="-96" xMax="1632" yMax="1870">
      <component glyphName="C" x="0" y="0" flags="0x204"/>
      <component glyphName="dotaccent" x="672" y="459" flags="0x4"/>
    </TTGlyph>
    <TTGlyph name="D" xMin="14" yMin="-80" xMax="1728" yMax="1538">
      <contour>
        <pt x="1714" y="827" on="1"/>
        <pt x="1728" y="707" on="0"/>
        <pt x="1677" y="480" on="0"/>
        <pt x="1562" y="278" on="0"/>
        <pt x="1391" y="110" on="0"/>
        <pt x="1182" y="-12" on="0"/>
        <pt x="943" y="-80" on="0"/>
        <pt x="817" y="-80" on="1"/>
        <pt x="734" y="-80" on="0"/>
        <pt x="559" y="-39" on="0"/>
        <pt x="477" y="16" on="1"/>
        <pt x="387" y="5" on="0"/>
        <pt x="196" y="-41" on="0"/>
        <pt x="94" y="-78" on="1"/>
        <pt x="184" y="191" on="0"/>
        <pt x="287" y="734" on="0"/>
        <pt x="289" y="1012" on="1"/>
        <pt x="254" y="996" on="0"/>
        <pt x="182" y="955" on="0"/>
        <pt x="147" y="930" on="1"/>
        <pt x="151" y="956" on="0"/>
        <pt x="154" y="1005" on="0"/>
        <pt x="154" y="1030" on="1"/>
        <pt x="154" y="1152" on="0"/>
        <pt x="83" y="1369" on="0"/>
        <pt x="14" y="1466" on="1"/>
        <pt x="51" y="1478" on="0"/>
        <pt x="153" y="1498" on="0"/>
        <pt x="268" y="1514" on="0"/>
        <pt x="389" y="1526" on="0"/>
        <pt x="503" y="1534" on="0"/>
        <pt x="603" y="1538" on="0"/>
        <pt x="639" y="1538" on="1"/>
        <pt x="787" y="1538" on="0"/>
        <pt x="1049" y="1489" on="0"/>
        <pt x="1269" y="1400" on="0"/>
        <pt x="1442" y="1275" on="0"/>
        <pt x="1562" y="1124" on="0"/>
        <pt x="1626" y="950" on="0"/>
        <pt x="1626" y="856" on="1"/>
        <pt x="1626" y="841" on="0"/>
        <pt x="1626" y="810" on="0"/>
        <pt x="1624" y="795" on="1"/>
        <pt x="1649" y="803" on="0"/>
        <pt x="1693" y="818" on="0"/>
      </contour>
      <contour>
        <pt x="1257" y="745" on="1"/>
        <pt x="1238" y="808" on="0"/>
        <pt x="1167" y="906" on="0"/>
        <pt x="1076" y="980" on="0"/>
        <pt x="971" y="1030" on="0"/>
        <pt x="864" y="1064" on="0"/>
        <pt x="760" y="1081" on="0"/>
        <pt x="715" y="1085" on="1"/>
        <pt x="709" y="840" on="0"/>
        <pt x="709" y="598" on="1"/>
        <pt x="709" y="376" on="0"/>
        <pt x="715" y="156" on="1"/>
        <pt x="813" y="185" on="0"/>
        <pt x="984" y="287" on="0"/>
        <pt x="1105" y="434" on="0"/>
        <pt x="1165" y="626" on="0"/>
        <pt x="1153" y="743" on="1"/>
        <pt x="1176" y="743" on="0"/>
        <pt x="1228" y="743" on="0"/>
      </contour>
    </TTGlyph>
    <TTGlyph name="Dcaron" xMin="14" yMin="-80" xMax="1728" yMax="2018">
      <component glyphName="D" x="0" y="0" flags="0x204"/>
      <component glyphName="caron" x="537" y="584" flags="0x4"/>
    </TTGlyph>
    <TTGlyph name="Dcroat" xMin="18" yMin="-80" xMax="1732" yMax="1538">
      <contour>
        <pt x="1718" y="827" on="1"/>
        <pt x="1732" y="707" on="0"/>
        <pt x="1681" y="480" on="0"/>
        <pt x="1566" y="278" on="0"/>
        <pt x="1395" y="110" on="0"/>
        <pt x="1186" y="-12" on="0"/>
        <pt x="947" y="-80" on="0"/>
        <pt x="821" y="-80" on="1"/>
        <pt x="738" y="-80" on="0"/>
        <pt x="563" y="-39" on="0"/>
        <pt x="481" y="16" on="1"/>
        <pt x="391" y="5" on="0"/>
        <pt x="200" y="-41" on="0"/>
        <pt x="98" y="-78" on="1"/>
        <pt x="145" y="61" on="0"/>
        <pt x="217" y="339" on="0"/>
        <pt x="242" y="479" on="1"/>
        <pt x="185" y="474" on="0"/>
        <pt x="83" y="456" on="0"/>
        <pt x="45" y="442" on="1"/>
        <pt x="51" y="477" on="0"/>
        <pt x="57" y="573" on="0"/>
        <pt x="57" y="676" on="0"/>
        <pt x="48" y="774" on="0"/>
        <pt x="39" y="811" on="1"/>
        <pt x="151" y="770" on="0"/>
        <pt x="281" y="758" on="1"/>
        <pt x="293" y="884" on="0"/>
        <pt x="293" y="1012" on="1"/>
        <pt x="258" y="996" on="0"/>
        <pt x="186" y="955" on="0"/>
        <pt x="152" y="930" on="1"/>
        <pt x="158" y="982" on="0"/>
        <pt x="158" y="1030" on="1"/>
        <pt x="158" y="1272" on="0"/>
        <pt x="18" y="1466" on="1"/>
        <pt x="55" y="1478" on="0"/>
        <pt x="157" y="1498" on="0"/>
        <pt x="272" y="1514" on="0"/>
        <pt x="393" y="1526" on="0"/>
        <pt x="507" y="1534" on="0"/>
        <pt x="607" y="1538" on="0"/>
        <pt x="643" y="1538" on="1"/>
        <pt x="791" y="1538" on="0"/>
        <pt x="1053" y="1489" on="0"/>
        <pt x="1273" y="1400" on="0"/>
        <pt x="1446" y="1275" on="0"/>
        <pt x="1566" y="1124" on="0"/>
        <pt x="1630" y="950" on="0"/>
        <pt x="1630" y="856" on="1"/>
        <pt x="1630" y="841" on="0"/>
        <pt x="1630" y="810" on="0"/>
        <pt x="1628" y="795" on="1"/>
        <pt x="1653" y="803" on="0"/>
        <pt x="1697" y="818" on="0"/>
      </contour>
      <contour>
        <pt x="897" y="463" on="1"/>
        <pt x="860" y="465" on="0"/>
        <pt x="767" y="472" on="0"/>
        <pt x="713" y="475" on="1"/>
        <pt x="713" y="395" on="0"/>
        <pt x="717" y="236" on="0"/>
        <pt x="719" y="156" on="1"/>
        <pt x="817" y="185" on="0"/>
        <pt x="988" y="287" on="0"/>
        <pt x="1109" y="434" on="0"/>
        <pt x="1169" y="626" on="0"/>
        <pt x="1157" y="743" on="1"/>
        <pt x="1180" y="743" on="0"/>
        <pt x="1233" y="743" on="0"/>
        <pt x="1262" y="745" on="1"/>
        <pt x="1242" y="808" on="0"/>
        <pt x="1172" y="906" on="0"/>
        <pt x="1081" y="980" on="0"/>
        <pt x="975" y="1030" on="0"/>
        <pt x="868" y="1064" on="0"/>
        <pt x="764" y="1081" on="0"/>
        <pt x="719" y="1085" on="1"/>
        <pt x="713" y="776" on="1"/>
        <pt x="761" y="784" on="0"/>
        <pt x="852" y="808" on="0"/>
        <pt x="897" y="823" on="1"/>
        <pt x="886" y="790" on="0"/>
        <pt x="876" y="696" on="0"/>
        <pt x="877" y="596" on="0"/>
        <pt x="888" y="499" on="0"/>
      </contour>
    </TTGlyph>
    <TTGlyph name="E" xMin="18" yMin="-106" xMax="1499" yMax="1489">
      <contour>
        <pt x="698" y="4" on="1"/>
        <pt x="616" y="3" on="0"/>
        <pt x="455" y="4" on="0"/>
        <pt x="296" y="-2" on="0"/>
        <pt x="140" y="-22" on="0"/>
        <pt x="63" y="-43" on="1"/>
        <pt x="132" y="189" on="0"/>
        <pt x="203" y="646" on="0"/>
        <pt x="203" y="877" on="1"/>
        <pt x="203" y="982" on="0"/>
        <pt x="188" y="1191" on="0"/>
        <pt x="172" y="1296" on="1"/>
        <pt x="18" y="1315" on="1"/>
        <pt x="54" y="1326" on="0"/>
        <pt x="127" y="1346" on="0"/>
        <pt x="162" y="1356" on="1"/>
        <pt x="157" y="1384" on="0"/>
        <pt x="148" y="1439" on="0"/>
        <pt x="141" y="1468" on="1"/>
        <pt x="201" y="1450" on="0"/>
        <pt x="319" y="1418" on="0"/>
        <pt x="381" y="1407" on="1"/>
        <pt x="574" y="1447" on="0"/>
        <pt x="959" y="1489" on="0"/>
        <pt x="1157" y="1489" on="1"/>
        <pt x="1242" y="1489" on="0"/>
        <pt x="1412" y="1481" on="0"/>
        <pt x="1499" y="1473" on="1"/>
        <pt x="1450" y="1290" on="0"/>
        <pt x="1450" y="1094" on="1"/>
        <pt x="1450" y="1022" on="0"/>
        <pt x="1456" y="952" on="1"/>
        <pt x="1078" y="1112" on="0"/>
        <pt x="676" y="1204" on="1"/>
        <pt x="667" y="1116" on="0"/>
        <pt x="655" y="938" on="0"/>
        <pt x="653" y="850" on="1"/>
        <pt x="755" y="873" on="0"/>
        <pt x="957" y="897" on="0"/>
        <pt x="1059" y="899" on="1"/>
        <pt x="1036" y="805" on="0"/>
        <pt x="1036" y="713" on="1"/>
        <pt x="1036" y="676" on="0"/>
        <pt x="1043" y="602" on="0"/>
        <pt x="1051" y="565" on="1"/>
        <pt x="954" y="612" on="0"/>
        <pt x="754" y="686" on="0"/>
        <pt x="651" y="715" on="1"/>
        <pt x="651" y="609" on="0"/>
        <pt x="660" y="383" on="0"/>
        <pt x="670" y="268" on="1"/>
        <pt x="1055" y="320" on="0"/>
        <pt x="1456" y="459" on="1"/>
        <pt x="1444" y="384" on="0"/>
        <pt x="1430" y="238" on="0"/>
        <pt x="1430" y="164" on="1"/>
        <pt x="1430" y="96" on="0"/>
        <pt x="1442" y="-38" on="0"/>
        <pt x="1456" y="-106" on="1"/>
        <pt x="1267" y="-58" on="0"/>
        <pt x="889" y="11" on="0"/>
        <pt x="694" y="31" on="1"/>
        <pt x="694" y="25" on="0"/>
        <pt x="696" y="10" on="0"/>
      </contour>
    </TTGlyph>
    <TTGlyph name="Eacute" xMin="18" yMin="-106" xMax="1499" yMax="1921">
      <component glyphName="E" x="0" y="0" flags="0x204"/>
      <component glyphName="acute" x="662" y="467" flags="0x4"/>
    </TTGlyph>
    <TTGlyph name="Ebreve" xMin="18" yMin="-106" xMax="1499" yMax="1917">
      <component glyphName="E" x="0" y="0" flags="0x204"/>
      <component glyphName="breve" x="489" y="481" flags="0x4"/>
    </TTGlyph>
    <TTGlyph name="Ecaron" xMin="18" yMin="-106" xMax="1499" yMax="1993">
      <component glyphName="E" x="0" y="0" flags="0x204"/>
      <component glyphName="caron" x="430" y="559" flags="0x4"/>
    </TTGlyph>
    <TTGlyph name="Ecircumflex" xMin="18" yMin="-106" xMax="1499" yMax="1946">
      <component glyphName="E" x="0" y="0" flags="0x204"/>
      <component glyphName="circumflex" x="418" y="512" flags="0x4"/>
    </TTGlyph>
    <TTGlyph name="Edieresis" xMin="18" yMin="-106" xMax="1499" yMax="1810">
      <component glyphName="E" x="0" y="0" flags="0x204"/>
      <component glyphName="dieresis" x="438" y="438" flags="0x4"/>
    </TTGlyph>
    <TTGlyph name="Edotaccent" xMin="18" yMin="-106" xMax="1499" yMax="1868">
      <component glyphName="E" x="0" y="0" flags="0x204"/>
      <component glyphName="dotaccent" x="608" y="457" flags="0x4"/>
    </TTGlyph>
    <TTGlyph name="Egrave" xMin="18" yMin="-106" xMax="1499" yMax="1927">
      <component glyphName="E" x="0" y="0" flags="0x204"/>
      <component glyphName="grave" x="430" y="473" flags="0x4"/>
    </TTGlyph>
    <TTGlyph name="Emacron" xMin="18" yMin="-106" xMax="1499" yMax="1825">
      <component glyphName="E" x="0" y="0" flags="0x204"/>
      <component glyphName="macron" x="465" y="395" flags="0x4"/>
    </TTGlyph>
    <TTGlyph name="Eng" xMin="-20" yMin="-692" xMax="1870" yMax="1569">
      <contour>
        <pt x="1792" y="-23" on="1"/>
        <pt x="1619" y="-319" on="0"/>
        <pt x="983" y="-657" on="0"/>
        <pt x="504" y="-692" on="1"/>
        <pt x="504" y="-615" on="0"/>
        <pt x="502" y="-479" on="0"/>
        <pt x="484" y="-347" on="0"/>
        <pt x="445" y="-212" on="0"/>
        <pt x="408" y="-137" on="1"/>
        <pt x="550" y="-182" on="0"/>
        <pt x="824" y="-225" on="0"/>
        <pt x="961" y="-225" on="1"/>
        <pt x="1085" y="-225" on="0"/>
        <pt x="1208" y="-207" on="1"/>
        <pt x="1173" y="-109" on="0"/>
        <pt x="1094" y="72" on="0"/>
        <pt x="1010" y="235" on="0"/>
        <pt x="926" y="378" on="0"/>
        <pt x="888" y="438" on="1"/>
        <pt x="798" y="578" on="0"/>
        <pt x="707" y="692" on="1"/>
        <pt x="706" y="693" on="0"/>
        <pt x="704" y="696" on="1"/>
        <pt x="702" y="698" on="0"/>
        <pt x="698" y="703" on="0"/>
        <pt x="696" y="707" on="1"/>
        <pt x="702" y="620" on="0"/>
        <pt x="702" y="537" on="1"/>
        <pt x="702" y="231" on="0"/>
        <pt x="623" y="-66" on="1"/>
        <pt x="449" y="-4" on="0"/>
        <pt x="264" y="-4" on="1"/>
        <pt x="205" y="-4" on="0"/>
        <pt x="84" y="-16" on="0"/>
        <pt x="23" y="-29" on="1"/>
        <pt x="166" y="149" on="0"/>
        <pt x="315" y="557" on="0"/>
        <pt x="315" y="797" on="1"/>
        <pt x="315" y="877" on="0"/>
        <pt x="298" y="1045" on="0"/>
        <pt x="281" y="1133" on="1"/>
        <pt x="216" y="1187" on="0"/>
        <pt x="66" y="1299" on="0"/>
        <pt x="-20" y="1358" on="1"/>
        <pt x="73" y="1345" on="0"/>
        <pt x="244" y="1349" on="0"/>
        <pt x="412" y="1384" on="0"/>
        <pt x="584" y="1448" on="0"/>
        <pt x="678" y="1495" on="1"/>
        <pt x="1212" y="535" on="1"/>
        <pt x="1198" y="624" on="0"/>
        <pt x="1184" y="796" on="0"/>
        <pt x="1184" y="881" on="1"/>
        <pt x="1184" y="1066" on="0"/>
        <pt x="1257" y="1410" on="0"/>
        <pt x="1337" y="1569" on="1"/>
        <pt x="1576" y="1400" on="0"/>
        <pt x="1870" y="1378" on="1"/>
        <pt x="1726" y="1198" on="0"/>
        <pt x="1577" y="790" on="0"/>
        <pt x="1577" y="555" on="1"/>
        <pt x="1577" y="500" on="0"/>
        <pt x="1593" y="341" on="0"/>
        <pt x="1620" y="167" on="0"/>
        <pt x="1656" y="-6" on="0"/>
        <pt x="1675" y="-76" on="1"/>
        <pt x="1704" y="-63" on="0"/>
        <pt x="1763" y="-37" on="0"/>
      </contour>
    </TTGlyph>
    <TTGlyph name="Eogonek" xMin="18" yMin="-473" xMax="1499" yMax="1489">
      <contour>
        <pt x="1499" y="-332" on="1"/>
        <pt x="1464" y="-380" on="0"/>
        <pt x="1387" y="-436" on="0"/>
        <pt x="1316" y="-465" on="0"/>
        <pt x="1255" y="-473" on="0"/>
        <pt x="1235" y="-473" on="1"/>
        <pt x="1177" y="-473" on="0"/>
        <pt x="1090" y="-434" on="0"/>
        <pt x="1031" y="-373" on="0"/>
        <pt x="1001" y="-298" on="0"/>
        <pt x="1001" y="-262" on="1"/>
        <pt x="1001" y="-208" on="0"/>
        <pt x="1072" y="-89" on="0"/>
        <pt x="1141" y="-35" on="1"/>
        <pt x="1029" y="-13" on="0"/>
        <pt x="807" y="18" on="0"/>
        <pt x="694" y="31" on="1"/>
        <pt x="694" y="25" on="0"/>
        <pt x="696" y="10" on="0"/>
        <pt x="698" y="4" on="1"/>
        <pt x="616" y="3" on="0"/>
        <pt x="455" y="4" on="0"/>
        <pt x="296" y="-2" on="0"/>
        <pt x="140" y="-22" on="0"/>
        <pt x="63" y="-43" on="1"/>
        <pt x="132" y="189" on="0"/>
        <pt x="203" y="646" on="0"/>
        <pt x="203" y="877" on="1"/>
        <pt x="203" y="982" on="0"/>
        <pt x="188" y="1191" on="0"/>
        <pt x="172" y="1296" on="1"/>
        <pt x="18" y="1315" on="1"/>
        <pt x="54" y="1326" on="0"/>
        <pt x="127" y="1346" on="0"/>
        <pt x="162" y="1356" on="1"/>
        <pt x="157" y="1384" on="0"/>
        <pt x="148" y="1439" on="0"/>
        <pt x="141" y="1468" on="1"/>
        <pt x="201" y="1450" on="0"/>
        <pt x="319" y="1418" on="0"/>
        <pt x="381" y="1407" on="1"/>
        <pt x="574" y="1447" on="0"/>
        <pt x="959" y="1489" on="0"/>
        <pt x="1157" y="1489" on="1"/>
        <pt x="1242" y="1489" on="0"/>
        <pt x="1412" y="1481" on="0"/>
        <pt x="1499" y="1473" on="1"/>
        <pt x="1450" y="1290" on="0"/>
        <pt x="1450" y="1094" on="1"/>
        <pt x="1450" y="1022" on="0"/>
        <pt x="1456" y="952" on="1"/>
        <pt x="1078" y="1112" on="0"/>
        <pt x="676" y="1204" on="1"/>
        <pt x="667" y="1116" on="0"/>
        <pt x="655" y="938" on="0"/>
        <pt x="653" y="850" on="1"/>
        <pt x="755" y="873" on="0"/>
        <pt x="957" y="897" on="0"/>
        <pt x="1059" y="899" on="1"/>
        <pt x="1036" y="805" on="0"/>
        <pt x="1036" y="713" on="1"/>
        <pt x="1036" y="676" on="0"/>
        <pt x="1043" y="602" on="0"/>
        <pt x="1051" y="565" on="1"/>
        <pt x="954" y="612" on="0"/>
        <pt x="754" y="686" on="0"/>
        <pt x="651" y="715" on="1"/>
        <pt x="651" y="609" on="0"/>
        <pt x="660" y="383" on="0"/>
        <pt x="670" y="268" on="1"/>
        <pt x="1055" y="320" on="0"/>
        <pt x="1456" y="459" on="1"/>
        <pt x="1444" y="384" on="0"/>
        <pt x="1430" y="238" on="0"/>
        <pt x="1430" y="164" on="1"/>
        <pt x="1430" y="96" on="0"/>
        <pt x="1442" y="-38" on="0"/>
        <pt x="1456" y="-106" on="1"/>
        <pt x="1399" y="-91" on="0"/>
        <pt x="1284" y="-66" on="0"/>
        <pt x="1227" y="-53" on="1"/>
        <pt x="1204" y="-88" on="0"/>
        <pt x="1169" y="-169" on="0"/>
        <pt x="1169" y="-201" on="1"/>
        <pt x="1169" y="-232" on="0"/>
        <pt x="1203" y="-270" on="0"/>
        <pt x="1231" y="-270" on="1"/>
        <pt x="1262" y="-270" on="0"/>
        <pt x="1310" y="-229" on="0"/>
        <pt x="1315" y="-195" on="1"/>
        <pt x="1347" y="-238" on="0"/>
        <pt x="1442" y="-309" on="0"/>
      </contour>
    </TTGlyph>
    <TTGlyph name="Eth" xMin="18" yMin="-80" xMax="1732" yMax="1538">
      <contour>
        <pt x="1718" y="827" on="1"/>
        <pt x="1732" y="707" on="0"/>
        <pt x="1681" y="480" on="0"/>
        <pt x="1566" y="278" on="0"/>
        <pt x="1395" y="110" on="0"/>
        <pt x="1186" y="-12" on="0"/>
        <pt x="947" y="-80" on="0"/>
        <pt x="821" y="-80" on="1"/>
        <pt x="738" y="-80" on="0"/>
        <pt x="563" y="-39" on="0"/>
        <pt x="481" y="16" on="1"/>
        <pt x="391" y="5" on="0"/>
        <pt x="200" y="-41" on="0"/>
        <pt x="98" y="-78" on="1"/>
        <pt x="145" y="61" on="0"/>
        <pt x="217" y="339" on="0"/>
        <pt x="242" y="479" on="1"/>
        <pt x="185" y="474" on="0"/>
        <pt x="83" y="456" on="0"/>
        <pt x="45" y="442" on="1"/>
        <pt x="51" y="477" on="0"/>
        <pt x="57" y="573" on="0"/>
        <pt x="57" y="676" on="0"/>
        <pt x="48" y="774" on="0"/>
        <pt x="39" y="811" on="1"/>
        <pt x="151" y="770" on="0"/>
        <pt x="281" y="758" on="1"/>
        <pt x="293" y="884" on="0"/>
        <pt x="293" y="1012" on="1"/>
        <pt x="258" y="996" on="0"/>
        <pt x="186" y="955" on="0"/>
        <pt x="152" y="930" on="1"/>
        <pt x="158" y="982" on="0"/>
        <pt x="158" y="1030" on="1"/>
        <pt x="158" y="1272" on="0"/>
        <pt x="18" y="1466" on="1"/>
        <pt x="55" y="1478" on="0"/>
        <pt x="157" y="1498" on="0"/>
        <pt x="272" y="1514" on="0"/>
        <pt x="393" y="1526" on="0"/>
        <pt x="507" y="1534" on="0"/>
        <pt x="607" y="1538" on="0"/>
        <pt x="643" y="1538" on="1"/>
        <pt x="791" y="1538" on="0"/>
        <pt x="1053" y="1489" on="0"/>
        <pt x="1273" y="1400" on="0"/>
        <pt x="1446" y="1275" on="0"/>
        <pt x="1566" y="1124" on="0"/>
        <pt x="1630" y="950" on="0"/>
        <pt x="1630" y="856" on="1"/>
        <pt x="1630" y="841" on="0"/>
        <pt x="1630" y="810" on="0"/>
        <pt x="1628" y="795" on="1"/>
        <pt x="1653" y="803" on="0"/>
        <pt x="1697" y="818" on="0"/>
      </contour>
      <contour>
        <pt x="897" y="463" on="1"/>
        <pt x="860" y="465" on="0"/>
        <pt x="767" y="472" on="0"/>
        <pt x="713" y="475" on="1"/>
        <pt x="713" y="395" on="0"/>
        <pt x="717" y="236" on="0"/>
        <pt x="719" y="156" on="1"/>
        <pt x="817" y="185" on="0"/>
        <pt x="988" y="287" on="0"/>
        <pt x="1109" y="434" on="0"/>
        <pt x="1169" y="626" on="0"/>
        <pt x="1157" y="743" on="1"/>
        <pt x="1180" y="743" on="0"/>
        <pt x="1233" y="743" on="0"/>
        <pt x="1262" y="745" on="1"/>
        <pt x="1242" y="808" on="0"/>
        <pt x="1172" y="906" on="0"/>
        <pt x="1081" y="980" on="0"/>
        <pt x="975" y="1030" on="0"/>
        <pt x="868" y="1064" on="0"/>
        <pt x="764" y="1081" on="0"/>
        <pt x="719" y="1085" on="1"/>
        <pt x="713" y="776" on="1"/>
        <pt x="761" y="784" on="0"/>
        <pt x="852" y="808" on="0"/>
        <pt x="897" y="823" on="1"/>
        <pt x="886" y="790" on="0"/>
        <pt x="876" y="696" on="0"/>
        <pt x="877" y="596" on="0"/>
        <pt x="888" y="499" on="0"/>
      </contour>
    </TTGlyph>
    <TTGlyph name="Euro" xMin="49" yMin="145" xMax="1505" yMax="1274">
      <contour>
        <pt x="1505" y="559" on="1"/>
        <pt x="1493" y="472" on="0"/>
        <pt x="1435" y="343" on="0"/>
        <pt x="1354" y="251" on="0"/>
        <pt x="1255" y="192" on="0"/>
        <pt x="1149" y="158" on="0"/>
        <pt x="1042" y="145" on="0"/>
        <pt x="993" y="145" on="1"/>
        <pt x="817" y="145" on="0"/>
        <pt x="551" y="283" on="0"/>
        <pt x="469" y="422" on="1"/>
        <pt x="418" y="426" on="0"/>
        <pt x="307" y="430" on="0"/>
        <pt x="197" y="427" on="0"/>
        <pt x="93" y="414" on="0"/>
        <pt x="49" y="399" on="1"/>
        <pt x="63" y="423" on="0"/>
        <pt x="92" y="490" on="0"/>
        <pt x="118" y="562" on="0"/>
        <pt x="136" y="631" on="0"/>
        <pt x="139" y="657" on="1"/>
        <pt x="255" y="611" on="0"/>
        <pt x="389" y="614" on="1"/>
        <pt x="383" y="639" on="0"/>
        <pt x="374" y="689" on="0"/>
        <pt x="369" y="717" on="1"/>
        <pt x="386" y="712" on="0"/>
        <pt x="420" y="704" on="0"/>
        <pt x="438" y="700" on="1"/>
        <pt x="440" y="713" on="0"/>
        <pt x="443" y="739" on="0"/>
        <pt x="446" y="752" on="1"/>
        <pt x="371" y="754" on="0"/>
        <pt x="227" y="741" on="0"/>
        <pt x="168" y="721" on="1"/>
        <pt x="180" y="745" on="0"/>
        <pt x="209" y="813" on="0"/>
        <pt x="234" y="885" on="0"/>
        <pt x="252" y="953" on="0"/>
        <pt x="254" y="979" on="1"/>
        <pt x="372" y="932" on="0"/>
        <pt x="508" y="938" on="1"/>
        <pt x="553" y="1021" on="0"/>
        <pt x="689" y="1147" on="0"/>
        <pt x="862" y="1231" on="0"/>
        <pt x="1067" y="1274" on="0"/>
        <pt x="1180" y="1274" on="1"/>
        <pt x="1248" y="1274" on="0"/>
        <pt x="1401" y="1260" on="0"/>
        <pt x="1491" y="1243" on="1"/>
        <pt x="1469" y="1180" on="0"/>
        <pt x="1450" y="1052" on="0"/>
        <pt x="1450" y="989" on="1"/>
        <pt x="1450" y="955" on="0"/>
        <pt x="1455" y="888" on="0"/>
        <pt x="1460" y="856" on="1"/>
        <pt x="1377" y="918" on="0"/>
        <pt x="1216" y="963" on="0"/>
        <pt x="1147" y="963" on="1"/>
        <pt x="1082" y="963" on="0"/>
        <pt x="945" y="927" on="0"/>
        <pt x="822" y="859" on="0"/>
        <pt x="725" y="760" on="0"/>
        <pt x="702" y="696" on="1"/>
        <pt x="730" y="699" on="0"/>
        <pt x="785" y="713" on="0"/>
        <pt x="811" y="721" on="1"/>
        <pt x="809" y="707" on="0"/>
        <pt x="807" y="678" on="0"/>
        <pt x="807" y="664" on="1"/>
        <pt x="807" y="598" on="0"/>
        <pt x="853" y="495" on="0"/>
        <pt x="933" y="424" on="0"/>
        <pt x="1042" y="387" on="0"/>
        <pt x="1104" y="387" on="1"/>
        <pt x="1140" y="387" on="0"/>
        <pt x="1232" y="401" on="0"/>
        <pt x="1336" y="438" on="0"/>
        <pt x="1448" y="505" on="0"/>
      </contour>
    </TTGlyph>
    <TTGlyph name="F" xMin="35" yMin="-106" xMax="1507" yMax="1468">
      <contour>
        <pt x="653" y="0" on="1"/>
        <pt x="500" y="0" on="0"/>
        <pt x="218" y="-53" on="0"/>
        <pt x="70" y="-106" on="1"/>
        <pt x="148" y="230" on="0"/>
        <pt x="211" y="898" on="0"/>
        <pt x="213" y="1229" on="1"/>
        <pt x="35" y="1253" on="1"/>
        <pt x="80" y="1269" on="0"/>
        <pt x="168" y="1299" on="0"/>
        <pt x="213" y="1313" on="1"/>
        <pt x="213" y="1351" on="0"/>
        <pt x="211" y="1430" on="0"/>
        <pt x="211" y="1468" on="1"/>
        <pt x="280" y="1459" on="0"/>
        <pt x="420" y="1448" on="0"/>
        <pt x="492" y="1448" on="1"/>
        <pt x="535" y="1448" on="0"/>
        <pt x="618" y="1453" on="0"/>
        <pt x="662" y="1456" on="1"/>
        <pt x="657" y="1419" on="1"/>
        <pt x="772" y="1438" on="0"/>
        <pt x="998" y="1458" on="0"/>
        <pt x="1112" y="1458" on="1"/>
        <pt x="1211" y="1458" on="0"/>
        <pt x="1407" y="1445" on="0"/>
        <pt x="1507" y="1430" on="1"/>
        <pt x="1483" y="1275" on="0"/>
        <pt x="1483" y="1124" on="1"/>
        <pt x="1483" y="1061" on="0"/>
        <pt x="1490" y="935" on="0"/>
        <pt x="1499" y="872" on="1"/>
        <pt x="1288" y="957" on="0"/>
        <pt x="863" y="1092" on="0"/>
        <pt x="643" y="1145" on="1"/>
        <pt x="640" y="1088" on="0"/>
        <pt x="639" y="977" on="0"/>
        <pt x="639" y="922" on="1"/>
        <pt x="639" y="813" on="1"/>
        <pt x="723" y="825" on="0"/>
        <pt x="888" y="840" on="0"/>
        <pt x="973" y="840" on="1"/>
        <pt x="994" y="840" on="0"/>
        <pt x="1037" y="838" on="0"/>
        <pt x="1059" y="838" on="1"/>
        <pt x="1034" y="720" on="0"/>
        <pt x="1034" y="598" on="1"/>
        <pt x="1034" y="548" on="0"/>
        <pt x="1042" y="448" on="0"/>
        <pt x="1049" y="397" on="1"/>
        <pt x="955" y="466" on="0"/>
        <pt x="753" y="584" on="0"/>
        <pt x="645" y="635" on="1"/>
        <pt x="651" y="476" on="0"/>
        <pt x="682" y="159" on="0"/>
        <pt x="705" y="0" on="1"/>
      </contour>
    </TTGlyph>
    <TTGlyph name="G" xMin="10" yMin="-106" xMax="1632" yMax="1516">
      <contour>
        <pt x="1632" y="494" on="1"/>
        <pt x="1620" y="398" on="0"/>
        <pt x="1566" y="247" on="0"/>
        <pt x="1528" y="188" on="1"/>
        <pt x="1528" y="156" on="0"/>
        <pt x="1529" y="86" on="0"/>
        <pt x="1531" y="17" on="0"/>
        <pt x="1535" y="-47" on="0"/>
        <pt x="1538" y="-72" on="1"/>
        <pt x="1307" y="-106" on="1"/>
        <pt x="1266" y="-29" on="1"/>
        <pt x="1175" y="-67" on="0"/>
        <pt x="986" y="-96" on="0"/>
        <pt x="901" y="-96" on="1"/>
        <pt x="722" y="-96" on="0"/>
        <pt x="424" y="6" on="0"/>
        <pt x="196" y="210" on="0"/>
        <pt x="43" y="517" on="0"/>
        <pt x="10" y="721" on="1"/>
        <pt x="33" y="713" on="0"/>
        <pt x="85" y="699" on="0"/>
        <pt x="111" y="694" on="1"/>
        <pt x="129" y="897" on="0"/>
        <pt x="305" y="1204" on="0"/>
        <pt x="586" y="1411" on="0"/>
        <pt x="955" y="1516" on="0"/>
        <pt x="1167" y="1516" on="1"/>
        <pt x="1264" y="1516" on="0"/>
        <pt x="1485" y="1496" on="0"/>
        <pt x="1612" y="1473" on="1"/>
        <pt x="1583" y="1382" on="0"/>
        <pt x="1554" y="1199" on="0"/>
        <pt x="1554" y="1108" on="1"/>
        <pt x="1554" y="1012" on="0"/>
        <pt x="1569" y="918" on="1"/>
        <pt x="1510" y="962" on="0"/>
        <pt x="1392" y="1021" on="0"/>
        <pt x="1279" y="1056" on="0"/>
        <pt x="1171" y="1071" on="0"/>
        <pt x="1122" y="1071" on="1"/>
        <pt x="1029" y="1071" on="0"/>
        <pt x="835" y="1021" on="0"/>
        <pt x="662" y="924" on="0"/>
        <pt x="525" y="783" on="0"/>
        <pt x="489" y="692" on="1"/>
        <pt x="530" y="698" on="0"/>
        <pt x="604" y="715" on="0"/>
        <pt x="641" y="727" on="1"/>
        <pt x="635" y="683" on="0"/>
        <pt x="635" y="645" on="1"/>
        <pt x="635" y="545" on="0"/>
        <pt x="703" y="397" on="0"/>
        <pt x="823" y="300" on="0"/>
        <pt x="986" y="252" on="0"/>
        <pt x="1081" y="252" on="1"/>
        <pt x="1097" y="252" on="0"/>
        <pt x="1129" y="252" on="0"/>
        <pt x="1145" y="254" on="1"/>
        <pt x="1105" y="366" on="0"/>
        <pt x="1053" y="592" on="0"/>
        <pt x="1034" y="721" on="1"/>
        <pt x="1082" y="712" on="0"/>
        <pt x="1174" y="702" on="0"/>
        <pt x="1219" y="702" on="1"/>
        <pt x="1316" y="702" on="0"/>
        <pt x="1500" y="744" on="0"/>
        <pt x="1597" y="784" on="1"/>
        <pt x="1549" y="596" on="0"/>
        <pt x="1534" y="416" on="1"/>
        <pt x="1559" y="433" on="0"/>
        <pt x="1606" y="472" on="0"/>
      </contour>
    </TTGlyph>
    <TTGlyph name="Gbreve" xMin="10" yMin="-106" xMax="1632" yMax="1930">
      <component glyphName="G" x="0" y="0" flags="0x204"/>
      <component glyphName="breve" x="561" y="494" flags="0x4"/>
    </TTGlyph>
    <TTGlyph name="Gcircumflex" xMin="10" yMin="-106" xMax="1632" yMax="1985">
      <component glyphName="G" x="0" y="0" flags="0x204"/>
      <component glyphName="circumflex" x="504" y="551" flags="0x4"/>
    </TTGlyph>
    <TTGlyph name="Gcommaaccent" xMin="10" yMin="-565" xMax="1632" yMax="1516">
      <component glyphName="G" x="0" y="0" flags="0x204"/>
      <component glyphName="uni0326" x="580" y="-409" flags="0x4"/>
    </TTGlyph>
    <TTGlyph name="Gdotaccent" xMin="10" yMin="-106" xMax="1632" yMax="1874">
      <component glyphName="G" x="0" y="0" flags="0x204"/>
      <component glyphName="dotaccent" x="682" y="463" flags="0x4"/>
    </TTGlyph>
    <TTGlyph name="H" xMin="33" yMin="-70" xMax="1735" yMax="1518">
      <contour>
        <pt x="668" y="-37" on="1"/>
        <pt x="586" y="-17" on="0"/>
        <pt x="431" y="2" on="0"/>
        <pt x="352" y="2" on="1"/>
        <pt x="275" y="2" on="0"/>
        <pt x="118" y="-17" on="0"/>
        <pt x="33" y="-37" on="1"/>
        <pt x="119" y="181" on="0"/>
        <pt x="211" y="630" on="0"/>
        <pt x="211" y="868" on="1"/>
        <pt x="211" y="1012" on="0"/>
        <pt x="176" y="1303" on="0"/>
        <pt x="139" y="1456" on="1"/>
        <pt x="205" y="1437" on="0"/>
        <pt x="332" y="1406" on="0"/>
        <pt x="461" y="1383" on="0"/>
        <pt x="595" y="1371" on="0"/>
        <pt x="668" y="1370" on="1"/>
        <pt x="674" y="1208" on="0"/>
        <pt x="680" y="890" on="0"/>
        <pt x="682" y="729" on="1"/>
        <pt x="781" y="738" on="0"/>
        <pt x="971" y="763" on="0"/>
        <pt x="1067" y="778" on="1"/>
        <pt x="1079" y="962" on="0"/>
        <pt x="1133" y="1329" on="0"/>
        <pt x="1180" y="1518" on="1"/>
        <pt x="1237" y="1494" on="0"/>
        <pt x="1344" y="1460" on="0"/>
        <pt x="1454" y="1437" on="0"/>
        <pt x="1572" y="1427" on="0"/>
        <pt x="1640" y="1427" on="1"/>
        <pt x="1654" y="1427" on="0"/>
        <pt x="1684" y="1430" on="0"/>
        <pt x="1700" y="1430" on="1"/>
        <pt x="1634" y="1292" on="0"/>
        <pt x="1546" y="1012" on="0"/>
        <pt x="1528" y="866" on="1"/>
        <pt x="1579" y="877" on="0"/>
        <pt x="1682" y="904" on="0"/>
        <pt x="1735" y="918" on="1"/>
        <pt x="1724" y="846" on="0"/>
        <pt x="1714" y="708" on="0"/>
        <pt x="1714" y="637" on="1"/>
        <pt x="1714" y="566" on="0"/>
        <pt x="1724" y="423" on="0"/>
        <pt x="1735" y="352" on="1"/>
        <pt x="1681" y="354" on="0"/>
        <pt x="1579" y="360" on="0"/>
        <pt x="1528" y="365" on="1"/>
        <pt x="1540" y="272" on="0"/>
        <pt x="1581" y="88" on="0"/>
        <pt x="1612" y="-8" on="1"/>
        <pt x="1575" y="-5" on="0"/>
        <pt x="1509" y="-2" on="0"/>
        <pt x="1477" y="-2" on="1"/>
        <pt x="1424" y="-2" on="0"/>
        <pt x="1326" y="-11" on="0"/>
        <pt x="1230" y="-28" on="0"/>
        <pt x="1133" y="-53" on="0"/>
        <pt x="1081" y="-70" on="1"/>
        <pt x="1069" y="60" on="0"/>
        <pt x="1057" y="315" on="0"/>
        <pt x="1057" y="446" on="1"/>
        <pt x="961" y="471" on="0"/>
        <pt x="775" y="532" on="0"/>
        <pt x="682" y="567" on="1"/>
        <pt x="680" y="416" on="0"/>
        <pt x="674" y="115" on="0"/>
      </contour>
    </TTGlyph>
    <TTGlyph name="Hbar" xMin="23" yMin="-70" xMax="1815" yMax="1518">
      <contour>
        <pt x="668" y="-37" on="1"/>
        <pt x="586" y="-17" on="0"/>
        <pt x="431" y="2" on="0"/>
        <pt x="352" y="2" on="1"/>
        <pt x="275" y="2" on="0"/>
        <pt x="118" y="-17" on="0"/>
        <pt x="33" y="-37" on="1"/>
        <pt x="118" y="177" on="0"/>
        <pt x="209" y="617" on="0"/>
        <pt x="211" y="850" on="1"/>
        <pt x="23" y="842" on="1"/>
        <pt x="34" y="874" on="0"/>
        <pt x="47" y="962" on="0"/>
        <pt x="49" y="1012" on="1"/>
        <pt x="52" y="1064" on="0"/>
        <pt x="45" y="1166" on="0"/>
        <pt x="37" y="1204" on="1"/>
        <pt x="68" y="1195" on="0"/>
        <pt x="145" y="1177" on="0"/>
        <pt x="190" y="1169" on="1"/>
        <pt x="181" y="1241" on="0"/>
        <pt x="156" y="1382" on="0"/>
        <pt x="139" y="1456" on="1"/>
        <pt x="205" y="1437" on="0"/>
        <pt x="332" y="1406" on="0"/>
        <pt x="461" y="1383" on="0"/>
        <pt x="595" y="1371" on="0"/>
        <pt x="668" y="1370" on="1"/>
        <pt x="676" y="1124" on="1"/>
        <pt x="779" y="1119" on="0"/>
        <pt x="996" y="1114" on="0"/>
        <pt x="1102" y="1114" on="1"/>
        <pt x="1116" y="1214" on="0"/>
        <pt x="1154" y="1415" on="0"/>
        <pt x="1180" y="1518" on="1"/>
        <pt x="1237" y="1494" on="0"/>
        <pt x="1344" y="1460" on="0"/>
        <pt x="1454" y="1437" on="0"/>
        <pt x="1572" y="1427" on="0"/>
        <pt x="1640" y="1427" on="1"/>
        <pt x="1654" y="1427" on="0"/>
        <pt x="1684" y="1430" on="0"/>
        <pt x="1700" y="1430" on="1"/>
        <pt x="1663" y="1354" on="0"/>
        <pt x="1605" y="1204" on="0"/>
        <pt x="1583" y="1126" on="1"/>
        <pt x="1649" y="1129" on="0"/>
        <pt x="1767" y="1139" on="0"/>
        <pt x="1815" y="1145" on="1"/>
        <pt x="1746" y="1123" on="0"/>
        <pt x="1626" y="1086" on="0"/>
        <pt x="1567" y="1069" on="1"/>
        <pt x="1553" y="1018" on="0"/>
        <pt x="1534" y="917" on="0"/>
        <pt x="1528" y="866" on="1"/>
        <pt x="1579" y="877" on="0"/>
        <pt x="1682" y="904" on="0"/>
        <pt x="1735" y="918" on="1"/>
        <pt x="1724" y="846" on="0"/>
        <pt x="1714" y="708" on="0"/>
        <pt x="1714" y="637" on="1"/>
        <pt x="1714" y="566" on="0"/>
        <pt x="1724" y="423" on="0"/>
        <pt x="1735" y="352" on="1"/>
        <pt x="1681" y="354" on="0"/>
        <pt x="1579" y="360" on="0"/>
        <pt x="1528" y="365" on="1"/>
        <pt x="1540" y="272" on="0"/>
        <pt x="1581" y="88" on="0"/>
        <pt x="1612" y="-8" on="1"/>
        <pt x="1575" y="-5" on="0"/>
        <pt x="1509" y="-2" on="0"/>
        <pt x="1477" y="-2" on="1"/>
        <pt x="1424" y="-2" on="0"/>
        <pt x="1326" y="-11" on="0"/>
        <pt x="1230" y="-28" on="0"/>
        <pt x="1133" y="-53" on="0"/>
        <pt x="1081" y="-70" on="1"/>
        <pt x="1069" y="60" on="0"/>
        <pt x="1057" y="315" on="0"/>
        <pt x="1057" y="446" on="1"/>
        <pt x="961" y="471" on="0"/>
        <pt x="775" y="532" on="0"/>
        <pt x="682" y="567" on="1"/>
        <pt x="680" y="416" on="0"/>
        <pt x="674" y="115" on="0"/>
      </contour>
      <contour>
        <pt x="1081" y="948" on="1"/>
        <pt x="976" y="927" on="0"/>
        <pt x="780" y="896" on="0"/>
        <pt x="680" y="885" on="1"/>
        <pt x="682" y="847" on="0"/>
        <pt x="682" y="767" on="0"/>
        <pt x="682" y="729" on="1"/>
        <pt x="781" y="738" on="0"/>
        <pt x="971" y="763" on="0"/>
        <pt x="1067" y="778" on="1"/>
        <pt x="1070" y="820" on="0"/>
        <pt x="1076" y="905" on="0"/>
      </contour>
    </TTGlyph>
    <TTGlyph name="Hcircumflex" xMin="33" yMin="-70" xMax="1735" yMax="1913">
      <component glyphName="H" x="0" y="0" flags="0x204"/>
      <component glyphName="circumflex" x="563" y="479" flags="0x4"/>
    </TTGlyph>
    <TTGlyph name="I" xMin="88" yMin="-41" xMax="653" yMax="1491">
      <contour>
        <pt x="653" y="1491" on="1"/>
        <pt x="621" y="1282" on="0"/>
        <pt x="588" y="855" on="0"/>
        <pt x="588" y="637" on="1"/>
        <pt x="588" y="473" on="0"/>
        <pt x="607" y="152" on="0"/>
        <pt x="627" y="-6" on="1"/>
        <pt x="585" y="-3" on="0"/>
        <pt x="505" y="2" on="0"/>
        <pt x="467" y="2" on="1"/>
        <pt x="374" y="2" on="0"/>
        <pt x="190" y="-19" on="0"/>
        <pt x="88" y="-41" on="1"/>
        <pt x="120" y="136" on="0"/>
        <pt x="158" y="501" on="0"/>
        <pt x="158" y="690" on="1"/>
        <pt x="158" y="852" on="0"/>
        <pt x="128" y="1172" on="0"/>
        <pt x="96" y="1331" on="1"/>
        <pt x="167" y="1340" on="0"/>
        <pt x="302" y="1368" on="0"/>
        <pt x="438" y="1408" on="0"/>
        <pt x="578" y="1459" on="0"/>
      </contour>
    </TTGlyph>
    <TTGlyph name="IJ" xMin="88" yMin="-131" xMax="2089" yMax="1552">
      <component glyphName="I" x="0" y="0" flags="0x4"/>
      <component glyphName="J" x="750" y="0" flags="0x4"/>
    </TTGlyph>
    <TTGlyph name="Iacute" xMin="88" yMin="-41" xMax="776" yMax="1888">
      <component glyphName="I" x="0" y="0" flags="0x204"/>
      <component glyphName="acute" x="311" y="434" flags="0x4"/>
    </TTGlyph>
    <TTGlyph name="Ibreve" xMin="88" yMin="-41" xMax="653" yMax="1856">
      <component glyphName="I" x="0" y="0" flags="0x204"/>
      <component glyphName="breve" x="92" y="420" flags="0x4"/>
    </TTGlyph>
    <TTGlyph name="Icircumflex" xMin="31" yMin="-41" xMax="711" yMax="1926">
      <component glyphName="I" x="0" y="0" flags="0x204"/>
      <component glyphName="circumflex" x="31" y="492" flags="0x4"/>
    </TTGlyph>
    <TTGlyph name="Idieresis" xMin="51" yMin="-41" xMax="692" yMax="1782">
      <component glyphName="I" x="0" y="0" flags="0x204"/>
      <component glyphName="dieresis" x="51" y="410" flags="0x4"/>
    </TTGlyph>
    <TTGlyph name="Idotaccent" xMin="88" yMin="-41" xMax="653" yMax="1829">
      <component glyphName="I" x="0" y="0" flags="0x204"/>
      <component glyphName="dotaccent" x="213" y="418" flags="0x4"/>
    </TTGlyph>
    <TTGlyph name="Igrave" xMin="-22" yMin="-41" xMax="653" yMax="1864">
      <component glyphName="I" x="0" y="0" flags="0x204"/>
      <component glyphName="grave" x="-22" y="410" flags="0x4"/>
    </TTGlyph>
    <TTGlyph name="Imacron" xMin="70" yMin="-41" xMax="680" yMax="1836">
      <component glyphName="I" x="0" y="0" flags="0x204"/>
      <component glyphName="macron" x="70" y="406" flags="0x4"/>
    </TTGlyph>
    <TTGlyph name="Iogonek" xMin="88" yMin="-473" xMax="653" yMax="1491">
      <contour>
        <pt x="653" y="-332" on="1"/>
        <pt x="618" y="-380" on="0"/>
        <pt x="541" y="-436" on="0"/>
        <pt x="470" y="-465" on="0"/>
        <pt x="409" y="-473" on="0"/>
        <pt x="389" y="-473" on="1"/>
        <pt x="332" y="-473" on="0"/>
        <pt x="244" y="-434" on="0"/>
        <pt x="186" y="-373" on="0"/>
        <pt x="156" y="-298" on="0"/>
        <pt x="156" y="-262" on="1"/>
        <pt x="156" y="-199" on="0"/>
        <pt x="248" y="-61" on="0"/>
        <pt x="342" y="-2" on="1"/>
        <pt x="280" y="-7" on="0"/>
        <pt x="154" y="-25" on="0"/>
        <pt x="88" y="-41" on="1"/>
        <pt x="120" y="136" on="0"/>
        <pt x="158" y="501" on="0"/>
        <pt x="158" y="690" on="1"/>
        <pt x="158" y="852" on="0"/>
        <pt x="128" y="1172" on="0"/>
        <pt x="96" y="1331" on="1"/>
        <pt x="167" y="1340" on="0"/>
        <pt x="302" y="1368" on="0"/>
        <pt x="438" y="1408" on="0"/>
        <pt x="578" y="1459" on="0"/>
        <pt x="653" y="1491" on="1"/>
        <pt x="621" y="1282" on="0"/>
        <pt x="588" y="855" on="0"/>
        <pt x="588" y="637" on="1"/>
        <pt x="588" y="473" on="0"/>
        <pt x="607" y="152" on="0"/>
        <pt x="627" y="-6" on="1"/>
        <pt x="585" y="-3" on="0"/>
        <pt x="505" y="2" on="0"/>
        <pt x="467" y="2" on="1"/>
        <pt x="422" y="2" on="1"/>
        <pt x="404" y="-18" on="0"/>
        <pt x="369" y="-69" on="0"/>
        <pt x="341" y="-123" on="0"/>
        <pt x="324" y="-178" on="0"/>
        <pt x="324" y="-201" on="1"/>
        <pt x="324" y="-232" on="0"/>
        <pt x="357" y="-270" on="0"/>
        <pt x="385" y="-270" on="1"/>
        <pt x="416" y="-270" on="0"/>
        <pt x="464" y="-229" on="0"/>
        <pt x="469" y="-195" on="1"/>
        <pt x="501" y="-238" on="0"/>
        <pt x="596" y="-309" on="0"/>
      </contour>
    </TTGlyph>
    <TTGlyph name="Itilde" xMin="29" yMin="-41" xMax="719" yMax="1884">
      <component glyphName="I" x="0" y="0" flags="0x204"/>
      <component glyphName="tilde" x="29" y="434" flags="0x4"/>
    </TTGlyph>
    <TTGlyph name="J" xMin="-45" yMin="-131" xMax="1339" yMax="1552">
      <contour>
        <pt x="1339" y="539" on="1"/>
        <pt x="1166" y="242" on="0"/>
        <pt x="530" y="-96" on="0"/>
        <pt x="51" y="-131" on="1"/>
        <pt x="51" y="-54" on="0"/>
        <pt x="49" y="82" on="0"/>
        <pt x="31" y="214" on="0"/>
        <pt x="-8" y="349" on="0"/>
        <pt x="-45" y="424" on="1"/>
        <pt x="97" y="379" on="0"/>
        <pt x="372" y="336" on="0"/>
        <pt x="508" y="336" on="1"/>
        <pt x="574" y="336" on="0"/>
        <pt x="707" y="345" on="0"/>
        <pt x="772" y="356" on="1"/>
        <pt x="761" y="504" on="0"/>
        <pt x="727" y="810" on="0"/>
        <pt x="679" y="1113" on="0"/>
        <pt x="619" y="1411" on="0"/>
        <pt x="582" y="1552" on="1"/>
        <pt x="731" y="1494" on="0"/>
        <pt x="1024" y="1417" on="0"/>
        <pt x="1169" y="1417" on="1"/>
        <pt x="1183" y="1417" on="0"/>
        <pt x="1211" y="1417" on="0"/>
        <pt x="1225" y="1419" on="1"/>
        <pt x="1194" y="1240" on="0"/>
        <pt x="1159" y="882" on="0"/>
        <pt x="1159" y="698" on="1"/>
        <pt x="1159" y="649" on="0"/>
        <pt x="1161" y="523" on="0"/>
        <pt x="1163" y="461" on="1"/>
        <pt x="1208" y="478" on="0"/>
        <pt x="1294" y="517" on="0"/>
      </contour>
    </TTGlyph>
    <TTGlyph name="Jcircumflex" xMin="-45" yMin="-131" xMax="1339" yMax="1999">
      <component glyphName="J" x="0" y="0" flags="0x204"/>
      <component glyphName="circumflex" x="575" y="565" flags="0x4"/>
    </TTGlyph>
    <TTGlyph name="K" xMin="39" yMin="-123" xMax="1741" yMax="1507">
      <contour>
        <pt x="682" y="1430" on="1"/>
        <pt x="657" y="1261" on="0"/>
        <pt x="632" y="928" on="0"/>
        <pt x="629" y="760" on="1"/>
        <pt x="812" y="913" on="0"/>
        <pt x="1117" y="1288" on="0"/>
        <pt x="1247" y="1507" on="1"/>
        <pt x="1343" y="1396" on="0"/>
        <pt x="1591" y="1226" on="0"/>
        <pt x="1741" y="1163" on="1"/>
        <pt x="1591" y="1035" on="0"/>
        <pt x="1265" y="820" on="0"/>
        <pt x="1094" y="741" on="1"/>
        <pt x="1203" y="558" on="0"/>
        <pt x="1498" y="237" on="0"/>
        <pt x="1671" y="88" on="1"/>
        <pt x="1357" y="20" on="0"/>
        <pt x="1106" y="-123" on="1"/>
        <pt x="1027" y="86" on="0"/>
        <pt x="794" y="443" on="0"/>
        <pt x="629" y="590" on="1"/>
        <pt x="629" y="441" on="0"/>
        <pt x="641" y="149" on="0"/>
        <pt x="655" y="0" on="1"/>
        <pt x="574" y="-5" on="0"/>
        <pt x="422" y="-24" on="0"/>
        <pt x="271" y="-55" on="0"/>
        <pt x="119" y="-97" on="0"/>
        <pt x="39" y="-123" on="1"/>
        <pt x="201" y="402" on="0"/>
        <pt x="201" y="942" on="1"/>
        <pt x="201" y="1209" on="0"/>
        <pt x="162" y="1481" on="1"/>
        <pt x="256" y="1450" on="0"/>
        <pt x="431" y="1419" on="0"/>
        <pt x="524" y="1419" on="1"/>
        <pt x="562" y="1419" on="0"/>
        <pt x="640" y="1423" on="0"/>
      </contour>
    </TTGlyph>
    <TTGlyph name="Kcommaaccent" xMin="39" yMin="-452" xMax="1741" yMax="1507">
      <component glyphName="K" x="0" y="0" flags="0x204"/>
      <component glyphName="uni0326" x="547" y="-296" flags="0x4"/>
    </TTGlyph>
    <TTGlyph name="L" xMin="-4" yMin="-27" xMax="1452" yMax="1491">
      <contour>
        <pt x="1452" y="-8" on="1"/>
        <pt x="1282" y="18" on="0"/>
        <pt x="945" y="45" on="0"/>
        <pt x="772" y="45" on="1"/>
        <pt x="579" y="45" on="0"/>
        <pt x="192" y="11" on="0"/>
        <pt x="-4" y="-27" on="1"/>
        <pt x="45" y="11" on="0"/>
        <pt x="144" y="83" on="0"/>
        <pt x="197" y="115" on="1"/>
        <pt x="220" y="251" on="0"/>
        <pt x="242" y="515" on="0"/>
        <pt x="242" y="649" on="1"/>
        <pt x="242" y="848" on="0"/>
        <pt x="196" y="1237" on="0"/>
        <pt x="156" y="1430" on="1"/>
        <pt x="177" y="1428" on="0"/>
        <pt x="222" y="1427" on="0"/>
        <pt x="244" y="1427" on="1"/>
        <pt x="371" y="1427" on="0"/>
        <pt x="615" y="1460" on="0"/>
        <pt x="737" y="1491" on="1"/>
        <pt x="737" y="1202" on="0"/>
        <pt x="680" y="627" on="0"/>
        <pt x="614" y="340" on="1"/>
        <pt x="801" y="422" on="0"/>
        <pt x="1195" y="538" on="0"/>
        <pt x="1407" y="573" on="1"/>
        <pt x="1395" y="472" on="0"/>
        <pt x="1395" y="375" on="1"/>
        <pt x="1395" y="278" on="0"/>
        <pt x="1421" y="86" on="0"/>
      </contour>
    </TTGlyph>
    <TTGlyph name="Lacute" xMin="-4" yMin="-27" xMax="1452" yMax="1960">
      <component glyphName="L" x="0" y="0" flags="0x204"/>
      <component glyphName="acute" x="401" y="506" flags="0x4"/>
    </TTGlyph>
    <TTGlyph name="Lcaron" xMin="-4" yMin="-27" xMax="1452" yMax="1927">
      <component glyphName="L" x="0" y="0" flags="0x204"/>
      <component glyphName="uni0315" x="291" y="563" flags="0x4"/>
    </TTGlyph>
    <TTGlyph name="Lcommaaccent" xMin="-4" yMin="-427" xMax="1452" yMax="1491">
      <component glyphName="L" x="0" y="0" flags="0x204"/>
      <component glyphName="uni0326" x="457" y="-271" flags="0x4"/>
    </TTGlyph>
    <TTGlyph name="Ldot" xMin="-4" yMin="-27" xMax="2052" yMax="1491">
      <component glyphName="L" x="0" y="0" flags="0x4"/>
      <component glyphName="periodcentered" x="1440" y="0" flags="0x4"/>
    </TTGlyph>
    <TTGlyph name="Lslash" xMin="2" yMin="-27" xMax="1458" yMax="1491">
      <contour>
        <pt x="1458" y="-8" on="1"/>
        <pt x="1288" y="18" on="0"/>
        <pt x="952" y="45" on="0"/>
        <pt x="778" y="45" on="1"/>
        <pt x="585" y="45" on="0"/>
        <pt x="198" y="11" on="0"/>
        <pt x="2" y="-27" on="1"/>
        <pt x="52" y="11" on="0"/>
        <pt x="150" y="83" on="0"/>
        <pt x="203" y="115" on="1"/>
        <pt x="220" y="217" on="0"/>
        <pt x="241" y="418" on="0"/>
        <pt x="246" y="518" on="1"/>
        <pt x="198" y="501" on="0"/>
        <pt x="119" y="462" on="0"/>
        <pt x="88" y="442" on="1"/>
        <pt x="87" y="478" on="0"/>
        <pt x="76" y="577" on="0"/>
        <pt x="57" y="680" on="0"/>
        <pt x="31" y="776" on="0"/>
        <pt x="16" y="811" on="1"/>
        <pt x="70" y="805" on="0"/>
        <pt x="184" y="807" on="0"/>
        <pt x="244" y="815" on="1"/>
        <pt x="236" y="971" on="0"/>
        <pt x="193" y="1277" on="0"/>
        <pt x="162" y="1430" on="1"/>
        <pt x="183" y="1428" on="0"/>
        <pt x="228" y="1427" on="0"/>
        <pt x="250" y="1427" on="1"/>
        <pt x="377" y="1427" on="0"/>
        <pt x="622" y="1460" on="0"/>
        <pt x="743" y="1491" on="1"/>
        <pt x="743" y="1222" on="0"/>
        <pt x="719" y="954" on="1"/>
        <pt x="759" y="973" on="0"/>
        <pt x="833" y="1015" on="0"/>
        <pt x="870" y="1036" on="1"/>
        <pt x="865" y="1001" on="0"/>
        <pt x="873" y="905" on="0"/>
        <pt x="892" y="804" on="0"/>
        <pt x="920" y="710" on="0"/>
        <pt x="936" y="676" on="1"/>
        <pt x="886" y="667" on="0"/>
        <pt x="753" y="644" on="0"/>
        <pt x="678" y="629" on="1"/>
        <pt x="654" y="485" on="0"/>
        <pt x="621" y="340" on="1"/>
        <pt x="807" y="422" on="0"/>
        <pt x="1202" y="538" on="0"/>
        <pt x="1413" y="573" on="1"/>
        <pt x="1401" y="472" on="0"/>
        <pt x="1401" y="375" on="1"/>
        <pt x="1401" y="278" on="0"/>
        <pt x="1427" y="86" on="0"/>
      </contour>
    </TTGlyph>
    <TTGlyph name="M" xMin="-20" yMin="-90" xMax="2202" yMax="1536">
      <contour>
        <pt x="2058" y="1425" on="1"/>
        <pt x="2015" y="1328" on="0"/>
        <pt x="1955" y="1150" on="0"/>
        <pt x="1918" y="985" on="0"/>
        <pt x="1901" y="834" on="0"/>
        <pt x="1901" y="764" on="1"/>
        <pt x="1901" y="631" on="0"/>
        <pt x="1955" y="408" on="0"/>
        <pt x="2041" y="223" on="0"/>
        <pt x="2149" y="73" on="0"/>
        <pt x="2202" y="14" on="1"/>
        <pt x="2160" y="19" on="0"/>
        <pt x="2084" y="25" on="0"/>
        <pt x="2050" y="25" on="1"/>
        <pt x="1998" y="25" on="0"/>
        <pt x="1904" y="13" on="0"/>
        <pt x="1812" y="-10" on="0"/>
        <pt x="1718" y="-46" on="0"/>
        <pt x="1665" y="-70" on="1"/>
        <pt x="1608" y="92" on="0"/>
        <pt x="1543" y="423" on="0"/>
        <pt x="1534" y="594" on="1"/>
        <pt x="1462" y="451" on="0"/>
        <pt x="1362" y="141" on="0"/>
        <pt x="1343" y="-37" on="1"/>
        <pt x="1331" y="-37" on="0"/>
        <pt x="1249" y="-39" on="0"/>
        <pt x="1134" y="-49" on="0"/>
        <pt x="1001" y="-70" on="0"/>
        <pt x="938" y="-90" on="1"/>
        <pt x="921" y="103" on="0"/>
        <pt x="825" y="434" on="0"/>
        <pt x="750" y="584" on="1"/>
        <pt x="730" y="246" on="0"/>
        <pt x="621" y="-70" on="1"/>
        <pt x="410" y="25" on="0"/>
        <pt x="168" y="25" on="1"/>
        <pt x="128" y="25" on="0"/>
        <pt x="46" y="19" on="0"/>
        <pt x="4" y="14" on="1"/>
        <pt x="184" y="204" on="0"/>
        <pt x="373" y="674" on="0"/>
        <pt x="373" y="956" on="1"/>
        <pt x="373" y="1028" on="0"/>
        <pt x="367" y="1102" on="1"/>
        <pt x="280" y="1190" on="0"/>
        <pt x="88" y="1362" on="0"/>
        <pt x="-20" y="1452" on="1"/>
        <pt x="-2" y="1447" on="0"/>
        <pt x="54" y="1432" on="0"/>
        <pt x="130" y="1418" on="0"/>
        <pt x="222" y="1409" on="0"/>
        <pt x="276" y="1409" on="1"/>
        <pt x="372" y="1409" on="0"/>
        <pt x="603" y="1451" on="0"/>
        <pt x="733" y="1509" on="1"/>
        <pt x="808" y="1375" on="0"/>
        <pt x="882" y="1212" on="1"/>
        <pt x="913" y="1143" on="0"/>
        <pt x="982" y="977" on="0"/>
        <pt x="1050" y="790" on="0"/>
        <pt x="1115" y="584" on="0"/>
        <pt x="1143" y="473" on="1"/>
        <pt x="1201" y="636" on="0"/>
        <pt x="1306" y="916" on="0"/>
        <pt x="1396" y="1171" on="0"/>
        <pt x="1467" y="1411" on="0"/>
        <pt x="1491" y="1536" on="1"/>
        <pt x="1561" y="1494" on="0"/>
        <pt x="1721" y="1449" on="0"/>
        <pt x="1875" y="1428" on="0"/>
        <pt x="2012" y="1425" on="0"/>
      </contour>
    </TTGlyph>
    <TTGlyph name="N" xMin="-20" yMin="-76" xMax="1870" yMax="1569">
      <contour>
        <pt x="1870" y="1378" on="1"/>
        <pt x="1726" y="1198" on="0"/>
        <pt x="1577" y="790" on="0"/>
        <pt x="1577" y="555" on="1"/>
        <pt x="1577" y="434" on="0"/>
        <pt x="1617" y="179" on="0"/>
        <pt x="1659" y="43" on="1"/>
        <pt x="1576" y="40" on="0"/>
        <pt x="1490" y="27" on="1"/>
        <pt x="1416" y="16" on="0"/>
        <pt x="1238" y="-32" on="0"/>
        <pt x="1153" y="-76" on="1"/>
        <pt x="1124" y="9" on="0"/>
        <pt x="1054" y="166" on="0"/>
        <pt x="980" y="306" on="0"/>
        <pt x="905" y="428" on="0"/>
        <pt x="871" y="479" on="1"/>
        <pt x="790" y="598" on="0"/>
        <pt x="707" y="692" on="1"/>
        <pt x="706" y="693" on="0"/>
        <pt x="704" y="696" on="1"/>
        <pt x="702" y="698" on="0"/>
        <pt x="698" y="703" on="0"/>
        <pt x="696" y="707" on="1"/>
        <pt x="702" y="620" on="0"/>
        <pt x="702" y="537" on="1"/>
        <pt x="702" y="231" on="0"/>
        <pt x="623" y="-66" on="1"/>
        <pt x="449" y="-4" on="0"/>
        <pt x="264" y="-4" on="1"/>
        <pt x="205" y="-4" on="0"/>
        <pt x="84" y="-16" on="0"/>
        <pt x="23" y="-29" on="1"/>
        <pt x="166" y="149" on="0"/>
        <pt x="315" y="557" on="0"/>
        <pt x="315" y="797" on="1"/>
        <pt x="315" y="877" on="0"/>
        <pt x="298" y="1045" on="0"/>
        <pt x="281" y="1133" on="1"/>
        <pt x="216" y="1187" on="0"/>
        <pt x="66" y="1299" on="0"/>
        <pt x="-20" y="1358" on="1"/>
        <pt x="73" y="1345" on="0"/>
        <pt x="244" y="1349" on="0"/>
        <pt x="412" y="1384" on="0"/>
        <pt x="584" y="1448" on="0"/>
        <pt x="678" y="1495" on="1"/>
        <pt x="1212" y="535" on="1"/>
        <pt x="1198" y="624" on="0"/>
        <pt x="1184" y="796" on="0"/>
        <pt x="1184" y="881" on="1"/>
        <pt x="1184" y="1066" on="0"/>
        <pt x="1257" y="1410" on="0"/>
        <pt x="1337" y="1569" on="1"/>
        <pt x="1576" y="1400" on="0"/>
      </contour>
    </TTGlyph>
    <TTGlyph name="Nacute" xMin="-20" yMin="-76" xMax="1870" yMax="1868">
      <component glyphName="N" x="0" y="0" flags="0x204"/>
      <component glyphName="acute" x="844" y="414" flags="0x4"/>
    </TTGlyph>
    <TTGlyph name="Ncaron" xMin="-20" yMin="-76" xMax="1870" yMax="1932">
      <component glyphName="N" x="0" y="0" flags="0x204"/>
      <component glyphName="caron" x="602" y="498" flags="0x4"/>
    </TTGlyph>
    <TTGlyph name="Ncommaaccent" xMin="-20" yMin="-434" xMax="1870" yMax="1569">
      <component glyphName="N" x="0" y="0" flags="0x204"/>
      <component glyphName="uni0326" x="575" y="-278" flags="0x4"/>
    </TTGlyph>
    <TTGlyph name="Ntilde" xMin="-10" yMin="-76" xMax="1880" yMax="1880">
      <component glyphName="N" x="10" y="0" flags="0x4"/>
      <component glyphName="tilde" x="590" y="430" flags="0x4"/>
    </TTGlyph>
    <TTGlyph name="O" xMin="49" yMin="-74" xMax="1817" yMax="1464">
      <contour>
        <pt x="1446" y="1452" on="1"/>
        <pt x="1406" y="1417" on="0"/>
        <pt x="1335" y="1342" on="0"/>
        <pt x="1303" y="1300" on="1"/>
        <pt x="1408" y="1279" on="0"/>
        <pt x="1595" y="1181" on="0"/>
        <pt x="1735" y="1031" on="0"/>
        <pt x="1817" y="830" on="0"/>
        <pt x="1817" y="707" on="1"/>
        <pt x="1817" y="570" on="0"/>
        <pt x="1736" y="347" on="0"/>
        <pt x="1592" y="174" on="0"/>
        <pt x="1396" y="48" on="0"/>
        <pt x="1166" y="-35" on="0"/>
        <pt x="913" y="-74" on="0"/>
        <pt x="784" y="-74" on="1"/>
        <pt x="739" y="-74" on="0"/>
        <pt x="641" y="-71" on="0"/>
        <pt x="550" y="-64" on="0"/>
        <pt x="471" y="-51" on="0"/>
        <pt x="446" y="-41" on="1"/>
        <pt x="481" y="-12" on="0"/>
        <pt x="539" y="48" on="0"/>
        <pt x="565" y="80" on="1"/>
        <pt x="460" y="101" on="0"/>
        <pt x="272" y="191" on="0"/>
        <pt x="131" y="330" on="0"/>
        <pt x="49" y="522" on="0"/>
        <pt x="49" y="647" on="1"/>
        <pt x="49" y="792" on="0"/>
        <pt x="144" y="1027" on="0"/>
        <pt x="309" y="1208" on="0"/>
        <pt x="531" y="1339" on="0"/>
        <pt x="787" y="1424" on="0"/>
        <pt x="1064" y="1464" on="0"/>
        <pt x="1200" y="1464" on="1"/>
        <pt x="1259" y="1464" on="0"/>
        <pt x="1380" y="1458" on="0"/>
      </contour>
      <contour>
        <pt x="1368" y="793" on="1"/>
        <pt x="1368" y="851" on="0"/>
        <pt x="1340" y="944" on="0"/>
        <pt x="1290" y="1018" on="0"/>
        <pt x="1221" y="1072" on="0"/>
        <pt x="1180" y="1092" on="1"/>
        <pt x="1164" y="1056" on="0"/>
        <pt x="1139" y="984" on="0"/>
        <pt x="1128" y="946" on="1"/>
        <pt x="1070" y="966" on="0"/>
        <pt x="969" y="981" on="0"/>
        <pt x="926" y="981" on="1"/>
        <pt x="851" y="981" on="0"/>
        <pt x="697" y="928" on="0"/>
        <pt x="574" y="828" on="0"/>
        <pt x="496" y="686" on="0"/>
        <pt x="496" y="598" on="1"/>
        <pt x="496" y="553" on="0"/>
        <pt x="523" y="468" on="0"/>
        <pt x="572" y="390" on="0"/>
        <pt x="639" y="319" on="0"/>
        <pt x="678" y="287" on="1"/>
        <pt x="692" y="329" on="0"/>
        <pt x="707" y="412" on="0"/>
        <pt x="709" y="459" on="1"/>
        <pt x="775" y="425" on="0"/>
        <pt x="896" y="399" on="0"/>
        <pt x="948" y="399" on="1"/>
        <pt x="1026" y="399" on="0"/>
        <pt x="1177" y="453" on="0"/>
        <pt x="1296" y="555" on="0"/>
        <pt x="1368" y="701" on="0"/>
      </contour>
    </TTGlyph>
    <TTGlyph name="OE" xMin="49" yMin="-106" xMax="2675" yMax="1489">
      <contour>
        <pt x="1874" y="4" on="1"/>
        <pt x="1792" y="3" on="0"/>
        <pt x="1631" y="4" on="0"/>
        <pt x="1472" y="-2" on="0"/>
        <pt x="1316" y="-22" on="0"/>
        <pt x="1239" y="-43" on="1"/>
        <pt x="1249" y="-4" on="1"/>
        <pt x="1140" y="-39" on="0"/>
        <pt x="905" y="-74" on="0"/>
        <pt x="784" y="-74" on="1"/>
        <pt x="739" y="-74" on="0"/>
        <pt x="641" y="-71" on="0"/>
        <pt x="550" y="-64" on="0"/>
        <pt x="471" y="-51" on="0"/>
        <pt x="446" y="-41" on="1"/>
        <pt x="481" y="-12" on="0"/>
        <pt x="539" y="48" on="0"/>
        <pt x="565" y="80" on="1"/>
        <pt x="460" y="101" on="0"/>
        <pt x="272" y="191" on="0"/>
        <pt x="131" y="330" on="0"/>
        <pt x="49" y="522" on="0"/>
        <pt x="49" y="647" on="1"/>
        <pt x="49" y="792" on="0"/>
        <pt x="144" y="1027" on="0"/>
        <pt x="309" y="1208" on="0"/>
        <pt x="531" y="1339" on="0"/>
        <pt x="787" y="1424" on="0"/>
        <pt x="1064" y="1464" on="0"/>
        <pt x="1200" y="1464" on="1"/>
        <pt x="1225" y="1464" on="0"/>
        <pt x="1287" y="1457" on="0"/>
        <pt x="1319" y="1452" on="1"/>
        <pt x="1319" y="1457" on="0"/>
        <pt x="1317" y="1463" on="0"/>
        <pt x="1317" y="1468" on="1"/>
        <pt x="1332" y="1463" on="0"/>
        <pt x="1366" y="1454" on="0"/>
        <pt x="1418" y="1440" on="0"/>
        <pt x="1496" y="1421" on="0"/>
        <pt x="1556" y="1407" on="1"/>
        <pt x="1749" y="1447" on="0"/>
        <pt x="2135" y="1489" on="0"/>
        <pt x="2333" y="1489" on="1"/>
        <pt x="2418" y="1489" on="0"/>
        <pt x="2588" y="1481" on="0"/>
        <pt x="2675" y="1473" on="1"/>
        <pt x="2626" y="1290" on="0"/>
        <pt x="2626" y="1094" on="1"/>
        <pt x="2626" y="1022" on="0"/>
        <pt x="2632" y="952" on="1"/>
        <pt x="2253" y="1113" on="0"/>
        <pt x="1851" y="1204" on="1"/>
        <pt x="1842" y="1116" on="0"/>
        <pt x="1831" y="938" on="0"/>
        <pt x="1829" y="850" on="1"/>
        <pt x="2029" y="896" on="0"/>
        <pt x="2234" y="899" on="1"/>
        <pt x="2223" y="853" on="0"/>
        <pt x="2212" y="761" on="0"/>
        <pt x="2212" y="713" on="1"/>
        <pt x="2212" y="676" on="0"/>
        <pt x="2218" y="602" on="0"/>
        <pt x="2226" y="565" on="1"/>
        <pt x="2129" y="612" on="0"/>
        <pt x="1930" y="686" on="0"/>
        <pt x="1827" y="715" on="1"/>
        <pt x="1827" y="609" on="0"/>
        <pt x="1836" y="383" on="0"/>
        <pt x="1845" y="268" on="1"/>
        <pt x="2040" y="294" on="0"/>
        <pt x="2431" y="390" on="0"/>
        <pt x="2632" y="459" on="1"/>
        <pt x="2619" y="384" on="0"/>
        <pt x="2605" y="238" on="0"/>
        <pt x="2605" y="164" on="1"/>
        <pt x="2605" y="96" on="0"/>
        <pt x="2618" y="-38" on="0"/>
        <pt x="2632" y="-106" on="1"/>
        <pt x="2443" y="-58" on="0"/>
        <pt x="2065" y="11" on="0"/>
        <pt x="1870" y="31" on="1"/>
        <pt x="1870" y="25" on="0"/>
        <pt x="1872" y="10" on="0"/>
      </contour>
      <contour>
        <pt x="1368" y="793" on="1"/>
        <pt x="1368" y="900" on="0"/>
        <pt x="1278" y="1039" on="0"/>
        <pt x="1204" y="1079" on="1"/>
        <pt x="1186" y="1047" on="0"/>
        <pt x="1147" y="981" on="0"/>
        <pt x="1128" y="946" on="1"/>
        <pt x="1070" y="966" on="0"/>
        <pt x="969" y="981" on="0"/>
        <pt x="926" y="981" on="1"/>
        <pt x="851" y="981" on="0"/>
        <pt x="697" y="928" on="0"/>
        <pt x="574" y="828" on="0"/>
        <pt x="496" y="686" on="0"/>
        <pt x="496" y="598" on="1"/>
        <pt x="496" y="553" on="0"/>
        <pt x="523" y="468" on="0"/>
        <pt x="572" y="390" on="0"/>
        <pt x="639" y="319" on="0"/>
        <pt x="678" y="287" on="1"/>
        <pt x="692" y="329" on="0"/>
        <pt x="707" y="412" on="0"/>
        <pt x="709" y="459" on="1"/>
        <pt x="775" y="425" on="0"/>
        <pt x="896" y="399" on="0"/>
        <pt x="948" y="399" on="1"/>
        <pt x="1026" y="399" on="0"/>
        <pt x="1177" y="453" on="0"/>
        <pt x="1296" y="555" on="0"/>
        <pt x="1368" y="701" on="0"/>
      </contour>
    </TTGlyph>
    <TTGlyph name="Oacute" xMin="49" yMin="-74" xMax="1817" yMax="1917">
      <component glyphName="O" x="0" y="0" flags="0x204"/>
      <component glyphName="acute" x="850" y="463" flags="0x4"/>
    </TTGlyph>
    <TTGlyph name="Obreve" xMin="49" yMin="-74" xMax="1817" yMax="1895">
      <component glyphName="O" x="0" y="0" flags="0x204"/>
      <component glyphName="breve" x="651" y="459" flags="0x4"/>
    </TTGlyph>
    <TTGlyph name="Ocircumflex" xMin="49" yMin="-74" xMax="1817" yMax="1936">
      <component glyphName="O" x="0" y="0" flags="0x204"/>
      <component glyphName="circumflex" x="594" y="502" flags="0x4"/>
    </TTGlyph>
    <TTGlyph name="Odieresis" xMin="49" yMin="-74" xMax="1817" yMax="1782">
      <component glyphName="O" x="0" y="0" flags="0x204"/>
      <component glyphName="dieresis" x="612" y="410" flags="0x4"/>
    </TTGlyph>
    <TTGlyph name="Ograve" xMin="49" yMin="-74" xMax="1817" yMax="1896">
      <component glyphName="O" x="0" y="0" flags="0x204"/>
      <component glyphName="grave" x="526" y="442" flags="0x4"/>
    </TTGlyph>
    <TTGlyph name="Ohungarumlaut" xMin="49" yMin="-74" xMax="1817" yMax="1941">
      <component glyphName="O" x="0" y="0" flags="0x204"/>
      <component glyphName="hungarumlaut" x="629" y="481" flags="0x4"/>
    </TTGlyph>
    <TTGlyph name="Omacron" xMin="49" yMin="-74" xMax="1817" yMax="1786">
      <component glyphName="O" x="0" y="0" flags="0x204"/>
      <component glyphName="macron" x="627" y="356" flags="0x4"/>
    </TTGlyph>
    <TTGlyph name="Oslash" xMin="49" yMin="-227" xMax="1817" yMax="1673">
      <contour>
        <pt x="1817" y="707" on="1"/>
        <pt x="1817" y="570" on="0"/>
        <pt x="1736" y="347" on="0"/>
        <pt x="1592" y="174" on="0"/>
        <pt x="1396" y="48" on="0"/>
        <pt x="1166" y="-35" on="0"/>
        <pt x="913" y="-74" on="0"/>
        <pt x="784" y="-74" on="1"/>
        <pt x="749" y="-74" on="0"/>
        <pt x="676" y="-72" on="0"/>
        <pt x="604" y="-68" on="0"/>
        <pt x="536" y="-62" on="0"/>
        <pt x="508" y="-57" on="1"/>
        <pt x="452" y="-107" on="0"/>
        <pt x="341" y="-192" on="0"/>
        <pt x="287" y="-227" on="1"/>
        <pt x="342" y="-149" on="0"/>
        <pt x="447" y="13" on="0"/>
        <pt x="498" y="96" on="1"/>
        <pt x="404" y="122" on="0"/>
        <pt x="240" y="215" on="0"/>
        <pt x="119" y="352" on="0"/>
        <pt x="49" y="533" on="0"/>
        <pt x="49" y="647" on="1"/>
        <pt x="49" y="782" on="0"/>
        <pt x="131" y="1002" on="0"/>
        <pt x="275" y="1178" on="0"/>
        <pt x="471" y="1309" on="0"/>
        <pt x="700" y="1400" on="0"/>
        <pt x="952" y="1452" on="0"/>
        <pt x="1079" y="1460" on="1"/>
        <pt x="1093" y="1516" on="0"/>
        <pt x="1114" y="1622" on="0"/>
        <pt x="1122" y="1673" on="1"/>
        <pt x="1165" y="1637" on="0"/>
        <pt x="1288" y="1585" on="0"/>
        <pt x="1425" y="1553" on="0"/>
        <pt x="1565" y="1541" on="0"/>
        <pt x="1626" y="1546" on="1"/>
        <pt x="1589" y="1472" on="0"/>
        <pt x="1510" y="1323" on="0"/>
        <pt x="1468" y="1245" on="1"/>
        <pt x="1543" y="1210" on="0"/>
        <pt x="1671" y="1107" on="0"/>
        <pt x="1764" y="972" on="0"/>
        <pt x="1817" y="805" on="0"/>
      </contour>
      <contour>
        <pt x="631" y="328" on="1"/>
        <pt x="719" y="492" on="0"/>
        <pt x="868" y="819" on="0"/>
        <pt x="930" y="981" on="1"/>
        <pt x="926" y="981" on="1"/>
        <pt x="851" y="981" on="0"/>
        <pt x="697" y="928" on="0"/>
        <pt x="574" y="828" on="0"/>
        <pt x="496" y="686" on="0"/>
        <pt x="496" y="598" on="1"/>
        <pt x="496" y="521" on="0"/>
        <pt x="571" y="387" on="0"/>
      </contour>
      <contour>
        <pt x="1315" y="981" on="1"/>
        <pt x="1222" y="829" on="0"/>
        <pt x="1025" y="536" on="0"/>
        <pt x="920" y="399" on="1"/>
        <pt x="926" y="397" on="0"/>
        <pt x="940" y="399" on="0"/>
        <pt x="948" y="399" on="1"/>
        <pt x="1026" y="399" on="0"/>
        <pt x="1177" y="453" on="0"/>
        <pt x="1296" y="555" on="0"/>
        <pt x="1368" y="701" on="0"/>
        <pt x="1368" y="793" on="1"/>
        <pt x="1368" y="851" on="0"/>
        <pt x="1340" y="944" on="0"/>
      </contour>
    </TTGlyph>
    <TTGlyph name="Oslashacute" xMin="49" yMin="-227" xMax="1817" yMax="1960">
      <component glyphName="Oslash" x="0" y="0" flags="0x204"/>
      <component glyphName="acute" x="758" y="506" flags="0x4"/>
    </TTGlyph>
    <TTGlyph name="Otilde" xMin="49" yMin="-74" xMax="1817" yMax="1888">
      <component glyphName="O" x="0" y="0" flags="0x204"/>
      <component glyphName="tilde" x="588" y="438" flags="0x4"/>
    </TTGlyph>
    <TTGlyph name="P" xMin="27" yMin="-135" xMax="1755" yMax="1532">
      <contour>
        <pt x="1755" y="1217" on="1"/>
        <pt x="1739" y="1109" on="0"/>
        <pt x="1656" y="895" on="0"/>
        <pt x="1531" y="700" on="0"/>
        <pt x="1368" y="533" on="0"/>
        <pt x="1175" y="410" on="0"/>
        <pt x="956" y="340" on="0"/>
        <pt x="838" y="340" on="1"/>
        <pt x="786" y="340" on="0"/>
        <pt x="737" y="346" on="1"/>
        <pt x="739" y="249" on="0"/>
        <pt x="745" y="56" on="0"/>
        <pt x="750" y="-41" on="1"/>
        <pt x="722" y="-38" on="0"/>
        <pt x="664" y="-33" on="0"/>
        <pt x="633" y="-33" on="1"/>
        <pt x="518" y="-33" on="0"/>
        <pt x="263" y="-86" on="0"/>
        <pt x="123" y="-135" on="1"/>
        <pt x="179" y="30" on="0"/>
        <pt x="260" y="362" on="0"/>
        <pt x="285" y="532" on="1"/>
        <pt x="206" y="586" on="0"/>
        <pt x="97" y="694" on="0"/>
        <pt x="70" y="729" on="1"/>
        <pt x="124" y="712" on="0"/>
        <pt x="241" y="684" on="0"/>
        <pt x="301" y="672" on="1"/>
        <pt x="309" y="747" on="0"/>
        <pt x="317" y="895" on="0"/>
        <pt x="317" y="971" on="1"/>
        <pt x="317" y="1030" on="1"/>
        <pt x="256" y="1010" on="0"/>
        <pt x="136" y="964" on="0"/>
        <pt x="80" y="936" on="1"/>
        <pt x="95" y="992" on="0"/>
        <pt x="111" y="1098" on="0"/>
        <pt x="111" y="1149" on="1"/>
        <pt x="111" y="1236" on="0"/>
        <pt x="67" y="1396" on="0"/>
        <pt x="27" y="1470" on="1"/>
        <pt x="260" y="1506" on="0"/>
        <pt x="631" y="1532" on="0"/>
        <pt x="776" y="1532" on="1"/>
        <pt x="844" y="1532" on="0"/>
        <pt x="1017" y="1525" on="0"/>
        <pt x="1200" y="1500" on="0"/>
        <pt x="1380" y="1452" on="0"/>
        <pt x="1530" y="1367" on="0"/>
        <pt x="1637" y="1242" on="0"/>
        <pt x="1655" y="1153" on="1"/>
        <pt x="1655" y="1149" on="1"/>
        <pt x="1681" y="1164" on="0"/>
        <pt x="1730" y="1197" on="0"/>
      </contour>
      <contour>
        <pt x="1014" y="1149" on="1"/>
        <pt x="961" y="1149" on="0"/>
        <pt x="831" y="1139" on="0"/>
        <pt x="748" y="1128" on="1"/>
        <pt x="743" y="1008" on="0"/>
        <pt x="737" y="770" on="0"/>
        <pt x="737" y="651" on="1"/>
        <pt x="815" y="661" on="0"/>
        <pt x="951" y="709" on="0"/>
        <pt x="1056" y="793" on="0"/>
        <pt x="1125" y="916" on="0"/>
        <pt x="1135" y="1001" on="1"/>
        <pt x="1178" y="1009" on="0"/>
        <pt x="1263" y="1023" on="0"/>
        <pt x="1307" y="1032" on="1"/>
        <pt x="1307" y="1034" on="1"/>
        <pt x="1284" y="1062" on="0"/>
        <pt x="1234" y="1105" on="0"/>
        <pt x="1168" y="1134" on="0"/>
        <pt x="1078" y="1149" on="0"/>
      </contour>
    </TTGlyph>
    <TTGlyph name="Q" xMin="49" yMin="-483" xMax="1817" yMax="1464">
      <contour>
        <pt x="1446" y="1452" on="1"/>
        <pt x="1406" y="1417" on="0"/>
        <pt x="1335" y="1342" on="0"/>
        <pt x="1303" y="1300" on="1"/>
        <pt x="1408" y="1279" on="0"/>
        <pt x="1595" y="1181" on="0"/>
        <pt x="1735" y="1031" on="0"/>
        <pt x="1817" y="830" on="0"/>
        <pt x="1817" y="707" on="1"/>
        <pt x="1817" y="566" on="0"/>
        <pt x="1731" y="340" on="0"/>
        <pt x="1581" y="165" on="0"/>
        <pt x="1377" y="40" on="0"/>
        <pt x="1260" y="0" on="1"/>
        <pt x="1374" y="-38" on="0"/>
        <pt x="1620" y="-90" on="0"/>
        <pt x="1741" y="-96" on="1"/>
        <pt x="1742" y="-96" on="0"/>
        <pt x="1703" y="-114" on="0"/>
        <pt x="1637" y="-154" on="0"/>
        <pt x="1553" y="-215" on="0"/>
        <pt x="1466" y="-301" on="0"/>
        <pt x="1384" y="-413" on="0"/>
        <pt x="1354" y="-483" on="1"/>
        <pt x="1291" y="-439" on="0"/>
        <pt x="1225" y="-377" on="1"/>
        <pt x="1168" y="-323" on="0"/>
        <pt x="1034" y="-167" on="0"/>
        <pt x="971" y="-61" on="1"/>
        <pt x="924" y="-68" on="0"/>
        <pt x="831" y="-74" on="0"/>
        <pt x="784" y="-74" on="1"/>
        <pt x="739" y="-74" on="0"/>
        <pt x="641" y="-71" on="0"/>
        <pt x="550" y="-64" on="0"/>
        <pt x="471" y="-51" on="0"/>
        <pt x="446" y="-41" on="1"/>
        <pt x="481" y="-12" on="0"/>
        <pt x="539" y="48" on="0"/>
        <pt x="565" y="80" on="1"/>
        <pt x="460" y="101" on="0"/>
        <pt x="272" y="191" on="0"/>
        <pt x="131" y="330" on="0"/>
        <pt x="49" y="522" on="0"/>
        <pt x="49" y="647" on="1"/>
        <pt x="49" y="792" on="0"/>
        <pt x="144" y="1027" on="0"/>
        <pt x="309" y="1208" on="0"/>
        <pt x="531" y="1339" on="0"/>
        <pt x="787" y="1424" on="0"/>
        <pt x="1064" y="1464" on="0"/>
        <pt x="1200" y="1464" on="1"/>
        <pt x="1259" y="1464" on="0"/>
        <pt x="1380" y="1458" on="0"/>
      </contour>
      <contour>
        <pt x="1368" y="793" on="1"/>
        <pt x="1368" y="836" on="0"/>
        <pt x="1346" y="922" on="0"/>
        <pt x="1300" y="1000" on="0"/>
        <pt x="1229" y="1068" on="0"/>
        <pt x="1180" y="1094" on="1"/>
        <pt x="1164" y="1059" on="0"/>
        <pt x="1139" y="984" on="0"/>
        <pt x="1128" y="946" on="1"/>
        <pt x="1070" y="966" on="0"/>
        <pt x="969" y="981" on="0"/>
        <pt x="926" y="981" on="1"/>
        <pt x="851" y="981" on="0"/>
        <pt x="697" y="928" on="0"/>
        <pt x="574" y="828" on="0"/>
        <pt x="496" y="686" on="0"/>
        <pt x="496" y="598" on="1"/>
        <pt x="496" y="553" on="0"/>
        <pt x="523" y="468" on="0"/>
        <pt x="572" y="390" on="0"/>
        <pt x="639" y="319" on="0"/>
        <pt x="678" y="287" on="1"/>
        <pt x="692" y="329" on="0"/>
        <pt x="707" y="412" on="0"/>
        <pt x="709" y="459" on="1"/>
        <pt x="775" y="425" on="0"/>
        <pt x="896" y="399" on="0"/>
        <pt x="948" y="399" on="1"/>
        <pt x="1026" y="399" on="0"/>
        <pt x="1177" y="453" on="0"/>
        <pt x="1296" y="555" on="0"/>
        <pt x="1368" y="701" on="0"/>
      </contour>
    </TTGlyph>
    <TTGlyph name="R" xMin="27" yMin="-135" xMax="1767" yMax="1532">
      <contour>
        <pt x="1767" y="66" on="1"/>
        <pt x="1608" y="53" on="0"/>
        <pt x="1309" y="-37" on="0"/>
        <pt x="1165" y="-115" on="1"/>
        <pt x="1154" y="12" on="0"/>
        <pt x="1092" y="253" on="0"/>
        <pt x="1042" y="369" on="1"/>
        <pt x="943" y="340" on="0"/>
        <pt x="838" y="340" on="1"/>
        <pt x="786" y="340" on="0"/>
        <pt x="737" y="346" on="1"/>
        <pt x="739" y="249" on="0"/>
        <pt x="745" y="56" on="0"/>
        <pt x="750" y="-41" on="1"/>
        <pt x="722" y="-38" on="0"/>
        <pt x="664" y="-33" on="0"/>
        <pt x="633" y="-33" on="1"/>
        <pt x="518" y="-33" on="0"/>
        <pt x="263" y="-86" on="0"/>
        <pt x="123" y="-135" on="1"/>
        <pt x="179" y="30" on="0"/>
        <pt x="260" y="362" on="0"/>
        <pt x="285" y="532" on="1"/>
        <pt x="206" y="586" on="0"/>
        <pt x="97" y="694" on="0"/>
        <pt x="70" y="729" on="1"/>
        <pt x="124" y="712" on="0"/>
        <pt x="241" y="684" on="0"/>
        <pt x="301" y="672" on="1"/>
        <pt x="309" y="747" on="0"/>
        <pt x="317" y="895" on="0"/>
        <pt x="317" y="971" on="1"/>
        <pt x="317" y="1030" on="1"/>
        <pt x="256" y="1010" on="0"/>
        <pt x="136" y="964" on="0"/>
        <pt x="80" y="936" on="1"/>
        <pt x="95" y="992" on="0"/>
        <pt x="111" y="1098" on="0"/>
        <pt x="111" y="1149" on="1"/>
        <pt x="111" y="1236" on="0"/>
        <pt x="67" y="1396" on="0"/>
        <pt x="27" y="1470" on="1"/>
        <pt x="260" y="1506" on="0"/>
        <pt x="631" y="1532" on="0"/>
        <pt x="776" y="1532" on="1"/>
        <pt x="844" y="1532" on="0"/>
        <pt x="1017" y="1525" on="0"/>
        <pt x="1200" y="1500" on="0"/>
        <pt x="1380" y="1452" on="0"/>
        <pt x="1530" y="1367" on="0"/>
        <pt x="1637" y="1242" on="0"/>
        <pt x="1655" y="1153" on="1"/>
        <pt x="1655" y="1149" on="1"/>
        <pt x="1681" y="1164" on="0"/>
        <pt x="1730" y="1197" on="0"/>
        <pt x="1755" y="1217" on="1"/>
        <pt x="1741" y="1126" on="0"/>
        <pt x="1679" y="946" on="0"/>
        <pt x="1586" y="778" on="0"/>
        <pt x="1465" y="626" on="0"/>
        <pt x="1393" y="563" on="1"/>
        <pt x="1546" y="293" on="0"/>
      </contour>
      <contour>
        <pt x="1014" y="1149" on="1"/>
        <pt x="961" y="1149" on="0"/>
        <pt x="831" y="1139" on="0"/>
        <pt x="748" y="1128" on="1"/>
        <pt x="743" y="1008" on="0"/>
        <pt x="737" y="770" on="0"/>
        <pt x="737" y="651" on="1"/>
        <pt x="815" y="661" on="0"/>
        <pt x="951" y="709" on="0"/>
        <pt x="1056" y="793" on="0"/>
        <pt x="1125" y="916" on="0"/>
        <pt x="1135" y="1001" on="1"/>
        <pt x="1178" y="1009" on="0"/>
        <pt x="1263" y="1023" on="0"/>
        <pt x="1307" y="1032" on="1"/>
        <pt x="1307" y="1034" on="1"/>
        <pt x="1284" y="1062" on="0"/>
        <pt x="1234" y="1105" on="0"/>
        <pt x="1168" y="1134" on="0"/>
        <pt x="1078" y="1149" on="0"/>
      </contour>
    </TTGlyph>
    <TTGlyph name="Racute" xMin="27" yMin="-135" xMax="1767" yMax="1989">
      <component glyphName="R" x="0" y="0" flags="0x204"/>
      <component glyphName="acute" x="776" y="535" flags="0x4"/>
    </TTGlyph>
    <TTGlyph name="Rcaron" xMin="27" yMin="-135" xMax="1767" yMax="2020">
      <component glyphName="R" x="0" y="0" flags="0x204"/>
      <component glyphName="caron" x="549" y="586" flags="0x4"/>
    </TTGlyph>
    <TTGlyph name="Rcommaaccent" xMin="27" yMin="-403" xMax="1767" yMax="1532">
      <component glyphName="R" x="0" y="0" flags="0x204"/>
      <component glyphName="uni0326" x="625" y="-247" flags="0x4"/>
    </TTGlyph>
    <TTGlyph name="S" xMin="23" yMin="-121" xMax="1632" yMax="1561">
      <contour>
        <pt x="1628" y="684" on="1"/>
        <pt x="1631" y="662" on="0"/>
        <pt x="1632" y="620" on="0"/>
        <pt x="1632" y="600" on="1"/>
        <pt x="1632" y="495" on="0"/>
        <pt x="1567" y="311" on="0"/>
        <pt x="1453" y="157" on="0"/>
        <pt x="1298" y="35" on="0"/>
        <pt x="1116" y="-49" on="0"/>
        <pt x="917" y="-94" on="0"/>
        <pt x="817" y="-94" on="1"/>
        <pt x="723" y="-94" on="0"/>
        <pt x="549" y="-78" on="0"/>
        <pt x="471" y="-78" on="1"/>
        <pt x="411" y="-78" on="0"/>
        <pt x="305" y="-95" on="0"/>
        <pt x="260" y="-121" on="1"/>
        <pt x="223" y="16" on="0"/>
        <pt x="140" y="239" on="0"/>
        <pt x="105" y="318" on="1"/>
        <pt x="64" y="410" on="0"/>
        <pt x="23" y="483" on="1"/>
        <pt x="142" y="421" on="0"/>
        <pt x="381" y="349" on="0"/>
        <pt x="597" y="310" on="0"/>
        <pt x="775" y="299" on="0"/>
        <pt x="834" y="299" on="1"/>
        <pt x="900" y="299" on="0"/>
        <pt x="1034" y="315" on="0"/>
        <pt x="1102" y="332" on="1"/>
        <pt x="1085" y="355" on="0"/>
        <pt x="1049" y="391" on="0"/>
        <pt x="1034" y="402" on="1"/>
        <pt x="1016" y="415" on="0"/>
        <pt x="999" y="424" on="1"/>
        <pt x="970" y="438" on="0"/>
        <pt x="871" y="465" on="0"/>
        <pt x="750" y="497" on="0"/>
        <pt x="613" y="535" on="0"/>
        <pt x="478" y="585" on="0"/>
        <pt x="355" y="649" on="0"/>
        <pt x="307" y="690" on="1"/>
        <pt x="269" y="723" on="0"/>
        <pt x="219" y="800" on="0"/>
        <pt x="190" y="881" on="0"/>
        <pt x="177" y="962" on="0"/>
        <pt x="176" y="999" on="1"/>
        <pt x="141" y="985" on="0"/>
        <pt x="85" y="959" on="0"/>
        <pt x="65" y="950" on="1"/>
        <pt x="25" y="930" on="1"/>
        <pt x="61" y="1038" on="0"/>
        <pt x="190" y="1204" on="0"/>
        <pt x="351" y="1326" on="0"/>
        <pt x="534" y="1410" on="0"/>
        <pt x="624" y="1437" on="1"/>
        <pt x="834" y="1500" on="0"/>
        <pt x="1079" y="1509" on="1"/>
        <pt x="1155" y="1509" on="0"/>
        <pt x="1241" y="1515" on="1"/>
        <pt x="1315" y="1520" on="0"/>
        <pt x="1505" y="1541" on="0"/>
        <pt x="1610" y="1561" on="1"/>
        <pt x="1578" y="1513" on="0"/>
        <pt x="1539" y="1401" on="0"/>
        <pt x="1517" y="1287" on="0"/>
        <pt x="1509" y="1176" on="0"/>
        <pt x="1509" y="1130" on="1"/>
        <pt x="1509" y="1099" on="0"/>
        <pt x="1511" y="1049" on="0"/>
        <pt x="1513" y="1031" on="1"/>
        <pt x="1515" y="1010" on="0"/>
        <pt x="1518" y="993" on="1"/>
        <pt x="1343" y="1072" on="0"/>
        <pt x="1011" y="1135" on="0"/>
        <pt x="856" y="1135" on="1"/>
        <pt x="803" y="1135" on="0"/>
        <pt x="707" y="1128" on="0"/>
        <pt x="659" y="1122" on="1"/>
        <pt x="670" y="1074" on="0"/>
        <pt x="727" y="1010" on="0"/>
        <pt x="756" y="990" on="1"/>
        <pt x="790" y="967" on="0"/>
        <pt x="829" y="954" on="1"/>
        <pt x="905" y="930" on="0"/>
        <pt x="1083" y="861" on="0"/>
        <pt x="1261" y="759" on="0"/>
        <pt x="1425" y="621" on="0"/>
        <pt x="1487" y="530" on="1"/>
        <pt x="1525" y="562" on="0"/>
        <pt x="1597" y="639" on="0"/>
      </contour>
    </TTGlyph>
    <TTGlyph name="Sacute" xMin="23" yMin="-121" xMax="1632" yMax="1966">
      <component glyphName="S" x="0" y="0" flags="0x204"/>
      <component glyphName="acute" x="668" y="512" flags="0x4"/>
    </TTGlyph>
    <TTGlyph name="Scaron" xMin="23" yMin="-121" xMax="1632" yMax="2003">
      <component glyphName="S" x="0" y="0" flags="0x204"/>
      <component glyphName="caron" x="487" y="569" flags="0x4"/>
    </TTGlyph>
    <TTGlyph name="Scedilla" xMin="23" yMin="-512" xMax="1632" yMax="1561">
      <contour>
        <pt x="1057" y="-311" on="1"/>
        <pt x="1052" y="-378" on="0"/>
        <pt x="995" y="-457" on="0"/>
        <pt x="920" y="-499" on="0"/>
        <pt x="839" y="-512" on="0"/>
        <pt x="811" y="-512" on="1"/>
        <pt x="760" y="-512" on="0"/>
        <pt x="650" y="-474" on="0"/>
        <pt x="608" y="-436" on="1"/>
        <pt x="639" y="-407" on="0"/>
        <pt x="686" y="-336" on="0"/>
        <pt x="700" y="-293" on="1"/>
        <pt x="717" y="-315" on="0"/>
        <pt x="752" y="-338" on="0"/>
        <pt x="767" y="-343" on="1"/>
        <pt x="785" y="-349" on="0"/>
        <pt x="801" y="-350" on="1"/>
        <pt x="824" y="-350" on="0"/>
        <pt x="855" y="-336" on="0"/>
        <pt x="873" y="-315" on="0"/>
        <pt x="881" y="-291" on="0"/>
        <pt x="881" y="-281" on="1"/>
        <pt x="881" y="-271" on="0"/>
        <pt x="874" y="-243" on="0"/>
        <pt x="853" y="-218" on="0"/>
        <pt x="814" y="-201" on="0"/>
        <pt x="782" y="-201" on="1"/>
        <pt x="765" y="-201" on="0"/>
        <pt x="722" y="-207" on="0"/>
        <pt x="694" y="-215" on="1"/>
        <pt x="756" y="-92" on="1"/>
        <pt x="678" y="-89" on="0"/>
        <pt x="536" y="-78" on="0"/>
        <pt x="471" y="-78" on="1"/>
        <pt x="411" y="-78" on="0"/>
        <pt x="305" y="-95" on="0"/>
        <pt x="260" y="-121" on="1"/>
        <pt x="223" y="16" on="0"/>
        <pt x="140" y="239" on="0"/>
        <pt x="105" y="318" on="1"/>
        <pt x="64" y="410" on="0"/>
        <pt x="23" y="483" on="1"/>
        <pt x="142" y="421" on="0"/>
        <pt x="381" y="349" on="0"/>
        <pt x="597" y="310" on="0"/>
        <pt x="775" y="299" on="0"/>
        <pt x="834" y="299" on="1"/>
        <pt x="900" y="299" on="0"/>
        <pt x="1034" y="315" on="0"/>
        <pt x="1102" y="332" on="1"/>
        <pt x="1085" y="355" on="0"/>
        <pt x="1049" y="391" on="0"/>
        <pt x="1034" y="402" on="1"/>
        <pt x="1016" y="415" on="0"/>
        <pt x="999" y="424" on="1"/>
        <pt x="970" y="438" on="0"/>
        <pt x="871" y="465" on="0"/>
        <pt x="750" y="497" on="0"/>
        <pt x="613" y="535" on="0"/>
        <pt x="478" y="585" on="0"/>
        <pt x="355" y="649" on="0"/>
        <pt x="307" y="690" on="1"/>
        <pt x="269" y="723" on="0"/>
        <pt x="219" y="800" on="0"/>
        <pt x="190" y="881" on="0"/>
        <pt x="177" y="962" on="0"/>
        <pt x="176" y="999" on="1"/>
        <pt x="141" y="985" on="0"/>
        <pt x="85" y="959" on="0"/>
        <pt x="65" y="950" on="1"/>
        <pt x="25" y="930" on="1"/>
        <pt x="61" y="1038" on="0"/>
        <pt x="190" y="1204" on="0"/>
        <pt x="351" y="1326" on="0"/>
        <pt x="534" y="1410" on="0"/>
        <pt x="624" y="1437" on="1"/>
        <pt x="834" y="1500" on="0"/>
        <pt x="1079" y="1509" on="1"/>
        <pt x="1155" y="1509" on="0"/>
        <pt x="1241" y="1515" on="1"/>
        <pt x="1315" y="1520" on="0"/>
        <pt x="1505" y="1541" on="0"/>
        <pt x="1610" y="1561" on="1"/>
        <pt x="1578" y="1513" on="0"/>
        <pt x="1539" y="1401" on="0"/>
        <pt x="1517" y="1287" on="0"/>
        <pt x="1509" y="1176" on="0"/>
        <pt x="1509" y="1130" on="1"/>
        <pt x="1509" y="1099" on="0"/>
        <pt x="1511" y="1049" on="0"/>
        <pt x="1513" y="1031" on="1"/>
        <pt x="1515" y="1010" on="0"/>
        <pt x="1518" y="993" on="1"/>
        <pt x="1343" y="1072" on="0"/>
        <pt x="1011" y="1135" on="0"/>
        <pt x="856" y="1135" on="1"/>
        <pt x="803" y="1135" on="0"/>
        <pt x="707" y="1128" on="0"/>
        <pt x="659" y="1122" on="1"/>
        <pt x="670" y="1074" on="0"/>
        <pt x="727" y="1010" on="0"/>
        <pt x="756" y="990" on="1"/>
        <pt x="790" y="967" on="0"/>
        <pt x="829" y="954" on="1"/>
        <pt x="905" y="930" on="0"/>
        <pt x="1083" y="861" on="0"/>
        <pt x="1261" y="759" on="0"/>
        <pt x="1425" y="621" on="0"/>
        <pt x="1487" y="530" on="1"/>
        <pt x="1525" y="562" on="0"/>
        <pt x="1597" y="639" on="0"/>
        <pt x="1628" y="684" on="1"/>
        <pt x="1631" y="662" on="0"/>
        <pt x="1632" y="620" on="0"/>
        <pt x="1632" y="600" on="1"/>
        <pt x="1632" y="497" on="0"/>
        <pt x="1569" y="315" on="0"/>
        <pt x="1457" y="162" on="0"/>
        <pt x="1305" y="41" on="0"/>
        <pt x="1128" y="-44" on="0"/>
        <pt x="933" y="-91" on="0"/>
        <pt x="834" y="-92" on="1"/>
        <pt x="821" y="-141" on="1"/>
        <pt x="877" y="-141" on="0"/>
        <pt x="955" y="-165" on="0"/>
        <pt x="1008" y="-200" on="0"/>
        <pt x="1038" y="-243" on="0"/>
        <pt x="1053" y="-280" on="0"/>
        <pt x="1057" y="-308" on="0"/>
      </contour>
    </TTGlyph>
    <TTGlyph name="Scircumflex" xMin="23" yMin="-121" xMax="1632" yMax="1985">
      <component glyphName="S" x="0" y="0" flags="0x204"/>
      <component glyphName="circumflex" x="494" y="551" flags="0x4"/>
    </TTGlyph>
    <TTGlyph name="T" xMin="0" yMin="-70" xMax="1430" yMax="1647">
      <contour>
        <pt x="1057" y="6" on="1"/>
        <pt x="1037" y="6" on="0"/>
        <pt x="997" y="8" on="0"/>
        <pt x="977" y="8" on="1"/>
        <pt x="846" y="8" on="0"/>
        <pt x="598" y="-29" on="0"/>
        <pt x="479" y="-70" on="1"/>
        <pt x="477" y="-41" on="0"/>
        <pt x="477" y="20" on="0"/>
        <pt x="477" y="49" on="1"/>
        <pt x="477" y="335" on="0"/>
        <pt x="554" y="859" on="0"/>
        <pt x="637" y="1104" on="1"/>
        <pt x="473" y="1087" on="0"/>
        <pt x="152" y="1006" on="0"/>
        <pt x="0" y="940" on="1"/>
        <pt x="37" y="1094" on="0"/>
        <pt x="37" y="1249" on="1"/>
        <pt x="37" y="1320" on="0"/>
        <pt x="22" y="1463" on="0"/>
        <pt x="6" y="1532" on="1"/>
        <pt x="192" y="1490" on="0"/>
        <pt x="574" y="1435" on="0"/>
        <pt x="772" y="1427" on="1"/>
        <pt x="800" y="1483" on="0"/>
        <pt x="861" y="1593" on="0"/>
        <pt x="895" y="1647" on="1"/>
        <pt x="886" y="1536" on="0"/>
        <pt x="883" y="1425" on="1"/>
        <pt x="913" y="1425" on="1"/>
        <pt x="1043" y="1425" on="0"/>
        <pt x="1299" y="1445" on="0"/>
        <pt x="1430" y="1468" on="1"/>
        <pt x="1407" y="1425" on="0"/>
        <pt x="1374" y="1327" on="0"/>
        <pt x="1374" y="1257" on="1"/>
        <pt x="1374" y="1217" on="0"/>
        <pt x="1387" y="1122" on="0"/>
        <pt x="1403" y="1063" on="1"/>
        <pt x="1290" y="1089" on="0"/>
        <pt x="1036" y="1118" on="0"/>
        <pt x="899" y="1118" on="1"/>
        <pt x="883" y="1118" on="1"/>
        <pt x="891" y="837" on="0"/>
        <pt x="972" y="284" on="0"/>
      </contour>
    </TTGlyph>
    <TTGlyph name="Tbar" xMin="0" yMin="-70" xMax="1430" yMax="1647">
      <contour>
        <pt x="1214" y="524" on="1"/>
        <pt x="1168" y="527" on="0"/>
        <pt x="1022" y="538" on="0"/>
        <pt x="934" y="541" on="1"/>
        <pt x="956" y="406" on="0"/>
        <pt x="1015" y="140" on="0"/>
        <pt x="1057" y="6" on="1"/>
        <pt x="1037" y="6" on="0"/>
        <pt x="997" y="8" on="0"/>
        <pt x="977" y="8" on="1"/>
        <pt x="846" y="8" on="0"/>
        <pt x="598" y="-29" on="0"/>
        <pt x="479" y="-70" on="1"/>
        <pt x="477" y="-41" on="0"/>
        <pt x="477" y="20" on="0"/>
        <pt x="477" y="49" on="1"/>
        <pt x="477" y="179" on="0"/>
        <pt x="491" y="426" on="0"/>
        <pt x="508" y="547" on="1"/>
        <pt x="409" y="542" on="0"/>
        <pt x="244" y="522" on="0"/>
        <pt x="195" y="504" on="1"/>
        <pt x="201" y="536" on="0"/>
        <pt x="207" y="626" on="0"/>
        <pt x="207" y="676" on="1"/>
        <pt x="207" y="730" on="0"/>
        <pt x="198" y="834" on="0"/>
        <pt x="188" y="872" on="1"/>
        <pt x="260" y="848" on="0"/>
        <pt x="449" y="818" on="0"/>
        <pt x="555" y="813" on="1"/>
        <pt x="572" y="887" on="0"/>
        <pt x="612" y="1032" on="0"/>
        <pt x="637" y="1104" on="1"/>
        <pt x="473" y="1087" on="0"/>
        <pt x="152" y="1006" on="0"/>
        <pt x="0" y="940" on="1"/>
        <pt x="37" y="1094" on="0"/>
        <pt x="37" y="1249" on="1"/>
        <pt x="37" y="1320" on="0"/>
        <pt x="22" y="1463" on="0"/>
        <pt x="6" y="1532" on="1"/>
        <pt x="192" y="1490" on="0"/>
        <pt x="574" y="1435" on="0"/>
        <pt x="772" y="1427" on="1"/>
        <pt x="800" y="1483" on="0"/>
        <pt x="861" y="1593" on="0"/>
        <pt x="895" y="1647" on="1"/>
        <pt x="886" y="1536" on="0"/>
        <pt x="883" y="1425" on="1"/>
        <pt x="913" y="1425" on="1"/>
        <pt x="1043" y="1425" on="0"/>
        <pt x="1299" y="1445" on="0"/>
        <pt x="1430" y="1468" on="1"/>
        <pt x="1407" y="1425" on="0"/>
        <pt x="1374" y="1327" on="0"/>
        <pt x="1374" y="1257" on="1"/>
        <pt x="1374" y="1217" on="0"/>
        <pt x="1387" y="1122" on="0"/>
        <pt x="1403" y="1063" on="1"/>
        <pt x="1290" y="1089" on="0"/>
        <pt x="1036" y="1118" on="0"/>
        <pt x="899" y="1118" on="1"/>
        <pt x="883" y="1118" on="1"/>
        <pt x="885" y="1044" on="0"/>
        <pt x="891" y="898" on="0"/>
        <pt x="899" y="823" on="1"/>
        <pt x="987" y="833" on="0"/>
        <pt x="1148" y="863" on="0"/>
        <pt x="1214" y="885" on="1"/>
        <pt x="1203" y="853" on="0"/>
        <pt x="1194" y="764" on="0"/>
        <pt x="1194" y="715" on="1"/>
        <pt x="1194" y="662" on="0"/>
        <pt x="1205" y="561" on="0"/>
      </contour>
    </TTGlyph>
    <TTGlyph name="Tcaron" xMin="0" yMin="-70" xMax="1430" yMax="1969">
      <component glyphName="T" x="0" y="0" flags="0x204"/>
      <component glyphName="caron" x="279" y="535" flags="0x4"/>
    </TTGlyph>
    <TTGlyph name="Tcommaaccent" xMin="0" yMin="-474" xMax="1430" yMax="1647">
      <component glyphName="T" x="0" y="0" flags="0x204"/>
      <component glyphName="uni0326" x="457" y="-318" flags="0x4"/>
    </TTGlyph>
    <TTGlyph name="Thorn" xMin="31" yMin="-135" xMax="1759" yMax="1583">
      <contour>
        <pt x="764" y="1583" on="1"/>
        <pt x="759" y="1521" on="0"/>
        <pt x="753" y="1390" on="0"/>
        <pt x="750" y="1321" on="1"/>
        <pt x="884" y="1322" on="0"/>
        <pt x="1080" y="1307" on="0"/>
        <pt x="1146" y="1299" on="1"/>
        <pt x="1223" y="1288" on="0"/>
        <pt x="1276" y="1276" on="1"/>
        <pt x="1365" y="1250" on="0"/>
        <pt x="1503" y="1173" on="0"/>
        <pt x="1599" y="1082" on="0"/>
        <pt x="1654" y="985" on="0"/>
        <pt x="1659" y="940" on="1"/>
        <pt x="1659" y="938" on="1"/>
        <pt x="1685" y="953" on="0"/>
        <pt x="1734" y="986" on="0"/>
        <pt x="1759" y="1006" on="1"/>
        <pt x="1746" y="882" on="0"/>
        <pt x="1680" y="680" on="0"/>
        <pt x="1588" y="519" on="0"/>
        <pt x="1479" y="395" on="0"/>
        <pt x="1424" y="349" on="1"/>
        <pt x="1295" y="242" on="0"/>
        <pt x="1139" y="188" on="1"/>
        <pt x="1032" y="157" on="0"/>
        <pt x="837" y="143" on="0"/>
        <pt x="748" y="154" on="1"/>
        <pt x="754" y="-41" on="1"/>
        <pt x="619" y="-22" on="0"/>
        <pt x="307" y="-72" on="0"/>
        <pt x="127" y="-135" on="1"/>
        <pt x="162" y="-29" on="0"/>
        <pt x="226" y="218" on="0"/>
        <pt x="252" y="352" on="1"/>
        <pt x="189" y="399" on="0"/>
        <pt x="98" y="485" on="0"/>
        <pt x="74" y="516" on="1"/>
        <pt x="167" y="488" on="0"/>
        <pt x="270" y="467" on="1"/>
        <pt x="284" y="554" on="0"/>
        <pt x="304" y="726" on="0"/>
        <pt x="309" y="813" on="1"/>
        <pt x="250" y="794" on="0"/>
        <pt x="137" y="749" on="0"/>
        <pt x="84" y="723" on="1"/>
        <pt x="126" y="876" on="0"/>
        <pt x="96" y="1141" on="0"/>
        <pt x="31" y="1260" on="1"/>
        <pt x="100" y="1271" on="0"/>
        <pt x="231" y="1286" on="0"/>
        <pt x="293" y="1292" on="1"/>
        <pt x="287" y="1333" on="0"/>
        <pt x="273" y="1410" on="0"/>
        <pt x="264" y="1448" on="1"/>
        <pt x="512" y="1445" on="0"/>
      </contour>
      <contour>
        <pt x="752" y="915" on="1"/>
        <pt x="748" y="915" on="1"/>
        <pt x="745" y="915" on="0"/>
        <pt x="741" y="913" on="1"/>
        <pt x="738" y="673" on="0"/>
        <pt x="741" y="440" on="1"/>
        <pt x="819" y="450" on="0"/>
        <pt x="956" y="499" on="0"/>
        <pt x="1061" y="583" on="0"/>
        <pt x="1129" y="706" on="0"/>
        <pt x="1139" y="791" on="1"/>
        <pt x="1182" y="799" on="0"/>
        <pt x="1267" y="812" on="0"/>
        <pt x="1311" y="821" on="1"/>
        <pt x="1311" y="823" on="1"/>
        <pt x="1279" y="861" on="0"/>
        <pt x="1205" y="914" on="0"/>
        <pt x="1084" y="940" on="0"/>
        <pt x="897" y="935" on="0"/>
      </contour>
    </TTGlyph>
    <TTGlyph name="U" xMin="70" yMin="-70" xMax="1733" yMax="1491">
      <contour>
        <pt x="1733" y="1395" on="1"/>
        <pt x="1733" y="1045" on="0"/>
        <pt x="1603" y="500" on="0"/>
        <pt x="1346" y="126" on="0"/>
        <pt x="966" y="-70" on="0"/>
        <pt x="717" y="-70" on="1"/>
        <pt x="655" y="-70" on="0"/>
        <pt x="521" y="-51" on="0"/>
        <pt x="449" y="-33" on="1"/>
        <pt x="463" y="-24" on="0"/>
        <pt x="479" y="-13" on="1"/>
        <pt x="493" y="-3" on="0"/>
        <pt x="529" y="25" on="0"/>
        <pt x="549" y="43" on="1"/>
        <pt x="432" y="83" on="0"/>
        <pt x="253" y="266" on="0"/>
        <pt x="132" y="530" on="0"/>
        <pt x="70" y="865" on="0"/>
        <pt x="70" y="1057" on="1"/>
        <pt x="70" y="1102" on="0"/>
        <pt x="73" y="1177" on="0"/>
        <pt x="80" y="1252" on="0"/>
        <pt x="90" y="1333" on="0"/>
        <pt x="98" y="1384" on="1"/>
        <pt x="200" y="1374" on="0"/>
        <pt x="307" y="1377" on="1"/>
        <pt x="353" y="1378" on="0"/>
        <pt x="456" y="1386" on="0"/>
        <pt x="565" y="1404" on="0"/>
        <pt x="676" y="1433" on="0"/>
        <pt x="729" y="1454" on="1"/>
        <pt x="687" y="1350" on="0"/>
        <pt x="625" y="1175" on="0"/>
        <pt x="584" y="1020" on="0"/>
        <pt x="563" y="875" on="0"/>
        <pt x="563" y="801" on="1"/>
        <pt x="563" y="657" on="0"/>
        <pt x="639" y="411" on="0"/>
        <pt x="717" y="315" on="1"/>
        <pt x="722" y="332" on="0"/>
        <pt x="728" y="369" on="0"/>
        <pt x="731" y="389" on="1"/>
        <pt x="757" y="381" on="0"/>
        <pt x="809" y="375" on="0"/>
        <pt x="834" y="375" on="1"/>
        <pt x="906" y="375" on="0"/>
        <pt x="1020" y="429" on="0"/>
        <pt x="1105" y="521" on="0"/>
        <pt x="1164" y="640" on="0"/>
        <pt x="1201" y="770" on="0"/>
        <pt x="1217" y="902" on="0"/>
        <pt x="1217" y="961" on="1"/>
        <pt x="1217" y="1011" on="0"/>
        <pt x="1193" y="1139" on="0"/>
        <pt x="1153" y="1279" on="0"/>
        <pt x="1100" y="1424" on="0"/>
        <pt x="1071" y="1491" on="1"/>
        <pt x="1111" y="1478" on="0"/>
        <pt x="1210" y="1456" on="0"/>
        <pt x="1319" y="1441" on="0"/>
        <pt x="1433" y="1432" on="0"/>
        <pt x="1489" y="1432" on="1"/>
        <pt x="1561" y="1432" on="0"/>
        <pt x="1688" y="1448" on="0"/>
        <pt x="1733" y="1468" on="1"/>
      </contour>
    </TTGlyph>
    <TTGlyph name="Uacute" xMin="70" yMin="-70" xMax="1733" yMax="1892">
      <component glyphName="U" x="0" y="0" flags="0x204"/>
      <component glyphName="acute" x="827" y="438" flags="0x4"/>
    </TTGlyph>
    <TTGlyph name="Ubreve" xMin="70" yMin="-70" xMax="1733" yMax="1889">
      <component glyphName="U" x="0" y="0" flags="0x204"/>
      <component glyphName="breve" x="612" y="453" flags="0x4"/>
    </TTGlyph>
    <TTGlyph name="Ucircumflex" xMin="70" yMin="-70" xMax="1733" yMax="1930">
      <component glyphName="U" x="0" y="0" flags="0x204"/>
      <component glyphName="circumflex" x="561" y="496" flags="0x4"/>
    </TTGlyph>
    <TTGlyph name="Udieresis" xMin="70" yMin="-70" xMax="1733" yMax="1782">
      <component glyphName="U" x="0" y="0" flags="0x204"/>
      <component glyphName="dieresis" x="580" y="410" flags="0x4"/>
    </TTGlyph>
    <TTGlyph name="Ugrave" xMin="70" yMin="-70" xMax="1733" yMax="1884">
      <component glyphName="U" x="0" y="0" flags="0x204"/>
      <component glyphName="grave" x="500" y="430" flags="0x4"/>
    </TTGlyph>
    <TTGlyph name="Uhungarumlaut" xMin="70" yMin="-70" xMax="1733" yMax="1952">
      <component glyphName="U" x="0" y="0" flags="0x204"/>
      <component glyphName="hungarumlaut" x="633" y="492" flags="0x4"/>
    </TTGlyph>
    <TTGlyph name="Umacron" xMin="70" yMin="-70" xMax="1733" yMax="1807">
      <component glyphName="U" x="0" y="0" flags="0x204"/>
      <component glyphName="macron" x="588" y="377" flags="0x4"/>
    </TTGlyph>
    <TTGlyph name="Uogonek" xMin="70" yMin="-473" xMax="1733" yMax="1491">
      <contour>
        <pt x="1104" y="-332" on="1"/>
        <pt x="1069" y="-380" on="0"/>
        <pt x="992" y="-436" on="0"/>
        <pt x="921" y="-465" on="0"/>
        <pt x="860" y="-473" on="0"/>
        <pt x="840" y="-473" on="1"/>
        <pt x="782" y="-473" on="0"/>
        <pt x="695" y="-434" on="0"/>
        <pt x="636" y="-373" on="0"/>
        <pt x="606" y="-298" on="0"/>
        <pt x="606" y="-262" on="1"/>
        <pt x="606" y="-216" on="0"/>
        <pt x="656" y="-118" on="0"/>
        <pt x="707" y="-70" on="1"/>
        <pt x="647" y="-68" on="0"/>
        <pt x="518" y="-50" on="0"/>
        <pt x="449" y="-33" on="1"/>
        <pt x="451" y="-31" on="0"/>
        <pt x="509" y="9" on="0"/>
        <pt x="549" y="43" on="1"/>
        <pt x="432" y="83" on="0"/>
        <pt x="253" y="266" on="0"/>
        <pt x="132" y="530" on="0"/>
        <pt x="70" y="865" on="0"/>
        <pt x="70" y="1057" on="1"/>
        <pt x="70" y="1102" on="0"/>
        <pt x="73" y="1177" on="0"/>
        <pt x="80" y="1252" on="0"/>
        <pt x="90" y="1333" on="0"/>
        <pt x="98" y="1384" on="1"/>
        <pt x="200" y="1374" on="0"/>
        <pt x="307" y="1377" on="1"/>
        <pt x="353" y="1378" on="0"/>
        <pt x="456" y="1386" on="0"/>
        <pt x="565" y="1404" on="0"/>
        <pt x="676" y="1433" on="0"/>
        <pt x="729" y="1454" on="1"/>
        <pt x="687" y="1350" on="0"/>
        <pt x="625" y="1175" on="0"/>
        <pt x="584" y="1020" on="0"/>
        <pt x="563" y="875" on="0"/>
        <pt x="563" y="801" on="1"/>
        <pt x="563" y="657" on="0"/>
        <pt x="639" y="411" on="0"/>
        <pt x="717" y="315" on="1"/>
        <pt x="722" y="332" on="0"/>
        <pt x="728" y="369" on="0"/>
        <pt x="731" y="389" on="1"/>
        <pt x="757" y="381" on="0"/>
        <pt x="809" y="375" on="0"/>
        <pt x="834" y="375" on="1"/>
        <pt x="906" y="375" on="0"/>
        <pt x="1020" y="429" on="0"/>
        <pt x="1105" y="521" on="0"/>
        <pt x="1164" y="640" on="0"/>
        <pt x="1201" y="770" on="0"/>
        <pt x="1217" y="902" on="0"/>
        <pt x="1217" y="961" on="1"/>
        <pt x="1217" y="1011" on="0"/>
        <pt x="1193" y="1139" on="0"/>
        <pt x="1153" y="1279" on="0"/>
        <pt x="1100" y="1424" on="0"/>
        <pt x="1071" y="1491" on="1"/>
        <pt x="1111" y="1478" on="0"/>
        <pt x="1210" y="1456" on="0"/>
        <pt x="1319" y="1441" on="0"/>
        <pt x="1433" y="1432" on="0"/>
        <pt x="1489" y="1432" on="1"/>
        <pt x="1561" y="1432" on="0"/>
        <pt x="1688" y="1448" on="0"/>
        <pt x="1733" y="1468" on="1"/>
        <pt x="1733" y="1395" on="1"/>
        <pt x="1733" y="1065" on="0"/>
        <pt x="1616" y="542" on="0"/>
        <pt x="1387" y="171" on="0"/>
        <pt x="1046" y="-42" on="0"/>
        <pt x="823" y="-63" on="1"/>
        <pt x="803" y="-99" on="0"/>
        <pt x="774" y="-172" on="0"/>
        <pt x="774" y="-201" on="1"/>
        <pt x="774" y="-232" on="0"/>
        <pt x="808" y="-270" on="0"/>
        <pt x="836" y="-270" on="1"/>
        <pt x="867" y="-270" on="0"/>
        <pt x="915" y="-229" on="0"/>
        <pt x="920" y="-195" on="1"/>
        <pt x="952" y="-238" on="0"/>
        <pt x="1047" y="-309" on="0"/>
      </contour>
    </TTGlyph>
    <TTGlyph name="Uring" xMin="70" yMin="-70" xMax="1733" yMax="1948">
      <component glyphName="U" x="0" y="0" flags="0x204"/>
      <component glyphName="ring" x="690" y="455" flags="0x4"/>
    </TTGlyph>
    <TTGlyph name="Utilde" xMin="70" yMin="-70" xMax="1733" yMax="1913">
      <component glyphName="U" x="0" y="0" flags="0x204"/>
      <component glyphName="tilde" x="549" y="463" flags="0x4"/>
    </TTGlyph>
    <TTGlyph name="V" xMin="-68" yMin="-18" xMax="1696" yMax="1456">
      <contour>
        <pt x="1696" y="1419" on="1"/>
        <pt x="1585" y="1264" on="0"/>
        <pt x="1397" y="932" on="0"/>
        <pt x="1247" y="582" on="0"/>
        <pt x="1139" y="215" on="0"/>
        <pt x="1108" y="25" on="1"/>
        <pt x="1012" y="37" on="0"/>
        <pt x="922" y="37" on="1"/>
        <pt x="825" y="37" on="0"/>
        <pt x="633" y="9" on="0"/>
        <pt x="537" y="-18" on="1"/>
        <pt x="500" y="151" on="0"/>
        <pt x="384" y="520" on="0"/>
        <pt x="231" y="887" on="0"/>
        <pt x="43" y="1234" on="0"/>
        <pt x="-68" y="1380" on="1"/>
        <pt x="40" y="1368" on="0"/>
        <pt x="156" y="1368" on="1"/>
        <pt x="279" y="1368" on="0"/>
        <pt x="518" y="1407" on="0"/>
        <pt x="618" y="1456" on="1"/>
        <pt x="629" y="1327" on="0"/>
        <pt x="656" y="1084" on="0"/>
        <pt x="698" y="850" on="0"/>
        <pt x="763" y="622" on="0"/>
        <pt x="811" y="508" on="1"/>
        <pt x="920" y="734" on="0"/>
        <pt x="1016" y="1193" on="0"/>
        <pt x="1016" y="1430" on="1"/>
        <pt x="1201" y="1399" on="0"/>
        <pt x="1386" y="1399" on="1"/>
        <pt x="1464" y="1399" on="0"/>
        <pt x="1618" y="1410" on="0"/>
      </contour>
    </TTGlyph>
    <TTGlyph name="W" xMin="-45" yMin="-80" xMax="2111" yMax="1495">
      <contour>
        <pt x="2111" y="1382" on="1"/>
        <pt x="2032" y="1221" on="0"/>
        <pt x="1915" y="894" on="0"/>
        <pt x="1837" y="558" on="0"/>
        <pt x="1798" y="213" on="0"/>
        <pt x="1798" y="33" on="1"/>
        <pt x="1662" y="19" on="0"/>
        <pt x="1403" y="-40" on="0"/>
        <pt x="1276" y="-80" on="1"/>
        <pt x="1233" y="79" on="0"/>
        <pt x="1118" y="377" on="0"/>
        <pt x="1034" y="514" on="1"/>
        <pt x="1014" y="462" on="0"/>
        <pt x="961" y="328" on="0"/>
        <pt x="912" y="181" on="0"/>
        <pt x="872" y="29" on="0"/>
        <pt x="866" y="-41" on="1"/>
        <pt x="754" y="-6" on="0"/>
        <pt x="527" y="39" on="0"/>
        <pt x="410" y="39" on="1"/>
        <pt x="353" y="39" on="0"/>
        <pt x="295" y="33" on="1"/>
        <pt x="301" y="124" on="0"/>
        <pt x="301" y="217" on="1"/>
        <pt x="301" y="527" on="0"/>
        <pt x="136" y="1109" on="0"/>
        <pt x="-45" y="1376" on="1"/>
        <pt x="104" y="1384" on="0"/>
        <pt x="393" y="1431" on="0"/>
        <pt x="537" y="1468" on="1"/>
        <pt x="574" y="1339" on="0"/>
        <pt x="635" y="1119" on="0"/>
        <pt x="682" y="902" on="0"/>
        <pt x="715" y="669" on="0"/>
        <pt x="725" y="528" on="1"/>
        <pt x="750" y="616" on="0"/>
        <pt x="793" y="755" on="0"/>
        <pt x="827" y="870" on="0"/>
        <pt x="852" y="967" on="0"/>
        <pt x="869" y="1060" on="0"/>
        <pt x="877" y="1155" on="0"/>
        <pt x="877" y="1210" on="1"/>
        <pt x="877" y="1229" on="0"/>
        <pt x="874" y="1269" on="0"/>
        <pt x="874" y="1290" on="1"/>
        <pt x="922" y="1282" on="0"/>
        <pt x="1020" y="1276" on="0"/>
        <pt x="1071" y="1276" on="1"/>
        <pt x="1109" y="1276" on="0"/>
        <pt x="1187" y="1279" on="0"/>
        <pt x="1225" y="1284" on="1"/>
        <pt x="1225" y="1170" on="0"/>
        <pt x="1249" y="977" on="0"/>
        <pt x="1293" y="806" on="0"/>
        <pt x="1356" y="651" on="0"/>
        <pt x="1395" y="575" on="1"/>
        <pt x="1426" y="686" on="0"/>
        <pt x="1468" y="901" on="0"/>
        <pt x="1495" y="1125" on="0"/>
        <pt x="1509" y="1362" on="0"/>
        <pt x="1513" y="1495" on="1"/>
        <pt x="1791" y="1382" on="0"/>
      </contour>
    </TTGlyph>
    <TTGlyph name="Wacute" xMin="-45" yMin="-80" xMax="2111" yMax="1782">
      <component glyphName="W" x="0" y="0" flags="0x204"/>
      <component glyphName="acute" x="989" y="328" flags="0x4"/>
    </TTGlyph>
    <TTGlyph name="Wcircumflex" xMin="-45" yMin="-80" xMax="2111" yMax="1815">
      <component glyphName="W" x="0" y="0" flags="0x204"/>
      <component glyphName="circumflex" x="709" y="381" flags="0x4"/>
    </TTGlyph>
    <TTGlyph name="Wdieresis" xMin="-45" yMin="-80" xMax="2111" yMax="1618">
      <component glyphName="W" x="0" y="0" flags="0x204"/>
      <component glyphName="dieresis" x="748" y="246" flags="0x4"/>
    </TTGlyph>
    <TTGlyph name="Wgrave" xMin="-45" yMin="-80" xMax="2111" yMax="1782">
      <component glyphName="W" x="0" y="0" flags="0x204"/>
      <component glyphName="grave" x="666" y="328" flags="0x4"/>
    </TTGlyph>
    <TTGlyph name="X" xMin="-63" yMin="-29" xMax="1839" yMax="1470">
      <contour>
        <pt x="1839" y="1401" on="1"/>
        <pt x="1668" y="1236" on="0"/>
        <pt x="1336" y="897" on="0"/>
        <pt x="1171" y="715" on="1"/>
        <pt x="1315" y="548" on="0"/>
        <pt x="1619" y="237" on="0"/>
        <pt x="1780" y="84" on="1"/>
        <pt x="1605" y="84" on="0"/>
        <pt x="1313" y="30" on="0"/>
        <pt x="1182" y="-23" on="1"/>
        <pt x="1114" y="87" on="0"/>
        <pt x="970" y="293" on="0"/>
        <pt x="895" y="393" on="1"/>
        <pt x="813" y="293" on="0"/>
        <pt x="652" y="88" on="0"/>
        <pt x="573" y="-18" on="1"/>
        <pt x="505" y="-10" on="0"/>
        <pt x="370" y="-4" on="0"/>
        <pt x="299" y="-4" on="1"/>
        <pt x="211" y="-4" on="0"/>
        <pt x="31" y="-16" on="0"/>
        <pt x="-63" y="-29" on="1"/>
        <pt x="126" y="151" on="0"/>
        <pt x="477" y="515" on="0"/>
        <pt x="641" y="707" on="1"/>
        <pt x="485" y="884" on="0"/>
        <pt x="156" y="1209" on="0"/>
        <pt x="-20" y="1362" on="1"/>
        <pt x="150" y="1367" on="0"/>
        <pt x="469" y="1416" on="0"/>
        <pt x="621" y="1470" on="1"/>
        <pt x="756" y="1247" on="0"/>
        <pt x="911" y="1038" on="1"/>
        <pt x="983" y="1131" on="0"/>
        <pt x="1115" y="1319" on="0"/>
        <pt x="1178" y="1415" on="1"/>
        <pt x="1264" y="1398" on="0"/>
        <pt x="1444" y="1380" on="0"/>
        <pt x="1538" y="1380" on="1"/>
        <pt x="1610" y="1380" on="0"/>
        <pt x="1762" y="1392" on="0"/>
      </contour>
    </TTGlyph>
    <TTGlyph name="Y" xMin="-33" yMin="-29" xMax="1954" yMax="1450">
      <contour>
        <pt x="1954" y="1450" on="1"/>
        <pt x="1717" y="1247" on="0"/>
        <pt x="1299" y="804" on="0"/>
        <pt x="1128" y="555" on="1"/>
        <pt x="1126" y="540" on="0"/>
        <pt x="1126" y="509" on="0"/>
        <pt x="1126" y="494" on="1"/>
        <pt x="1126" y="353" on="0"/>
        <pt x="1187" y="93" on="0"/>
        <pt x="1243" y="-29" on="1"/>
        <pt x="1125" y="6" on="0"/>
        <pt x="895" y="43" on="0"/>
        <pt x="776" y="43" on="1"/>
        <pt x="621" y="43" on="0"/>
        <pt x="467" y="12" on="1"/>
        <pt x="535" y="153" on="0"/>
        <pt x="622" y="441" on="0"/>
        <pt x="635" y="594" on="1"/>
        <pt x="510" y="830" on="0"/>
        <pt x="179" y="1238" on="0"/>
        <pt x="-33" y="1411" on="1"/>
        <pt x="51" y="1397" on="0"/>
        <pt x="211" y="1382" on="0"/>
        <pt x="287" y="1382" on="1"/>
        <pt x="380" y="1382" on="0"/>
        <pt x="550" y="1405" on="0"/>
        <pt x="629" y="1430" on="1"/>
        <pt x="675" y="1283" on="0"/>
        <pt x="816" y="1036" on="0"/>
        <pt x="913" y="936" on="1"/>
        <pt x="1020" y="1039" on="0"/>
        <pt x="1163" y="1289" on="0"/>
        <pt x="1208" y="1438" on="1"/>
        <pt x="1286" y="1419" on="0"/>
        <pt x="1447" y="1403" on="0"/>
        <pt x="1534" y="1403" on="1"/>
        <pt x="1633" y="1403" on="0"/>
        <pt x="1842" y="1425" on="0"/>
      </contour>
    </TTGlyph>
    <TTGlyph name="Yacute" xMin="-33" yMin="-29" xMax="1954" yMax="1814">
      <component glyphName="Y" x="0" y="0" flags="0x204"/>
      <component glyphName="acute" x="872" y="360" flags="0x4"/>
    </TTGlyph>
    <TTGlyph name="Ycircumflex" xMin="-33" yMin="-29" xMax="1954" yMax="1880">
      <component glyphName="Y" x="0" y="0" flags="0x204"/>
      <component glyphName="circumflex" x="565" y="446" flags="0x4"/>
    </TTGlyph>
    <TTGlyph name="Ydieresis" xMin="-33" yMin="-29" xMax="1954" yMax="1749">
      <component glyphName="Y" x="0" y="0" flags="0x204"/>
      <component glyphName="dieresis" x="600" y="377" flags="0x4"/>
    </TTGlyph>
    <TTGlyph name="Ygrave" xMin="-33" yMin="-29" xMax="1954" yMax="1782">
      <component glyphName="Y" x="0" y="0" flags="0x204"/>
      <component glyphName="grave" x="537" y="328" flags="0x4"/>
    </TTGlyph>
    <TTGlyph name="Z" xMin="-12" yMin="-41" xMax="1659" yMax="1495">
      <contour>
        <pt x="1561" y="-39" on="1"/>
        <pt x="1525" y="-39" on="0"/>
        <pt x="1457" y="-41" on="0"/>
        <pt x="1423" y="-41" on="1"/>
        <pt x="1214" y="-41" on="0"/>
        <pt x="839" y="-19" on="0"/>
        <pt x="489" y="23" on="0"/>
        <pt x="155" y="86" on="0"/>
        <pt x="-12" y="127" on="1"/>
        <pt x="42" y="135" on="0"/>
        <pt x="146" y="153" on="0"/>
        <pt x="197" y="162" on="1"/>
        <pt x="303" y="277" on="0"/>
        <pt x="522" y="528" on="0"/>
        <pt x="726" y="796" on="0"/>
        <pt x="903" y="1082" on="0"/>
        <pt x="967" y="1233" on="1"/>
        <pt x="740" y="1173" on="0"/>
        <pt x="304" y="993" on="0"/>
        <pt x="84" y="872" on="1"/>
        <pt x="106" y="966" on="0"/>
        <pt x="129" y="1147" on="0"/>
        <pt x="129" y="1235" on="1"/>
        <pt x="129" y="1294" on="0"/>
        <pt x="119" y="1404" on="0"/>
        <pt x="106" y="1460" on="1"/>
        <pt x="246" y="1477" on="0"/>
        <pt x="508" y="1495" on="0"/>
        <pt x="635" y="1495" on="1"/>
        <pt x="902" y="1495" on="0"/>
        <pt x="1404" y="1419" on="0"/>
        <pt x="1659" y="1346" on="1"/>
        <pt x="1609" y="1342" on="0"/>
        <pt x="1514" y="1333" on="0"/>
        <pt x="1466" y="1327" on="1"/>
        <pt x="1426" y="1199" on="0"/>
        <pt x="1303" y="941" on="0"/>
        <pt x="1148" y="686" on="0"/>
        <pt x="969" y="437" on="0"/>
        <pt x="874" y="319" on="1"/>
        <pt x="1032" y="367" on="0"/>
        <pt x="1346" y="489" on="0"/>
        <pt x="1513" y="569" on="1"/>
        <pt x="1501" y="512" on="0"/>
        <pt x="1487" y="397" on="0"/>
        <pt x="1487" y="340" on="1"/>
        <pt x="1487" y="149" on="0"/>
      </contour>
    </TTGlyph>
    <TTGlyph name="Zacute" xMin="-12" yMin="-41" xMax="1659" yMax="1956">
      <component glyphName="Z" x="0" y="0" flags="0x204"/>
      <component glyphName="acute" x="770" y="502" flags="0x4"/>
    </TTGlyph>
    <TTGlyph name="Zcaron" xMin="-12" yMin="-41" xMax="1659" yMax="1989">
      <component glyphName="Z" x="0" y="0" flags="0x204"/>
      <component glyphName="caron" x="483" y="555" flags="0x4"/>
    </TTGlyph>
    <TTGlyph name="Zdotaccent" xMin="-12" yMin="-41" xMax="1659" yMax="1888">
      <component glyphName="Z" x="0" y="0" flags="0x204"/>
      <component glyphName="dotaccent" x="684" y="477" flags="0x4"/>
    </TTGlyph>
    <TTGlyph name="a" xMin="-121" yMin="-135" xMax="1653" yMax="1251">
      <contour>
        <pt x="1616" y="377" on="1"/>
        <pt x="1574" y="357" on="0"/>
        <pt x="1492" y="320" on="0"/>
        <pt x="1450" y="303" on="1"/>
        <pt x="1542" y="137" on="0"/>
        <pt x="1653" y="-10" on="1"/>
        <pt x="1498" y="-10" on="0"/>
        <pt x="1216" y="-71" on="0"/>
        <pt x="1071" y="-135" on="1"/>
        <pt x="1082" y="-109" on="0"/>
        <pt x="1087" y="-54" on="0"/>
        <pt x="1087" y="-25" on="1"/>
        <pt x="1087" y="23" on="0"/>
        <pt x="1069" y="138" on="0"/>
        <pt x="1051" y="201" on="1"/>
        <pt x="1009" y="195" on="0"/>
        <pt x="925" y="190" on="0"/>
        <pt x="885" y="190" on="1"/>
        <pt x="814" y="190" on="0"/>
        <pt x="677" y="207" on="0"/>
        <pt x="614" y="227" on="1"/>
        <pt x="597" y="153" on="0"/>
        <pt x="569" y="-2" on="0"/>
        <pt x="555" y="-84" on="1"/>
        <pt x="504" y="-58" on="0"/>
        <pt x="443" y="-37" on="1"/>
        <pt x="391" y="-20" on="0"/>
        <pt x="254" y="10" on="0"/>
        <pt x="178" y="10" on="1"/>
        <pt x="113" y="10" on="0"/>
        <pt x="-33" y="-12" on="0"/>
        <pt x="-121" y="-37" on="1"/>
        <pt x="-53" y="30" on="0"/>
        <pt x="66" y="169" on="0"/>
        <pt x="165" y="298" on="0"/>
        <pt x="242" y="411" on="0"/>
        <pt x="268" y="453" on="1"/>
        <pt x="239" y="488" on="0"/>
        <pt x="190" y="568" on="0"/>
        <pt x="168" y="614" on="1"/>
        <pt x="208" y="594" on="0"/>
        <pt x="286" y="561" on="0"/>
        <pt x="324" y="547" on="1"/>
        <pt x="370" y="628" on="0"/>
        <pt x="472" y="792" on="0"/>
        <pt x="530" y="870" on="1"/>
        <pt x="518" y="899" on="0"/>
        <pt x="481" y="973" on="0"/>
        <pt x="438" y="1052" on="0"/>
        <pt x="390" y="1130" on="0"/>
        <pt x="367" y="1163" on="1"/>
        <pt x="463" y="1137" on="0"/>
        <pt x="656" y="1107" on="0"/>
        <pt x="752" y="1102" on="1"/>
        <pt x="807" y="1147" on="0"/>
        <pt x="927" y="1222" on="0"/>
        <pt x="993" y="1251" on="1"/>
        <pt x="972" y="1216" on="0"/>
        <pt x="932" y="1142" on="0"/>
        <pt x="913" y="1104" on="1"/>
        <pt x="963" y="1109" on="0"/>
        <pt x="1065" y="1122" on="0"/>
        <pt x="1120" y="1133" on="1"/>
        <pt x="1157" y="998" on="0"/>
        <pt x="1245" y="742" on="0"/>
        <pt x="1296" y="618" on="1"/>
        <pt x="1340" y="643" on="0"/>
        <pt x="1427" y="696" on="0"/>
        <pt x="1470" y="727" on="1"/>
        <pt x="1501" y="622" on="0"/>
        <pt x="1573" y="446" on="0"/>
      </contour>
      <contour>
        <pt x="946" y="483" on="1"/>
        <pt x="911" y="561" on="0"/>
        <pt x="828" y="720" on="0"/>
        <pt x="780" y="801" on="1"/>
        <pt x="721" y="643" on="0"/>
        <pt x="672" y="465" on="1"/>
        <pt x="690" y="463" on="0"/>
        <pt x="725" y="463" on="0"/>
        <pt x="743" y="463" on="1"/>
        <pt x="794" y="463" on="0"/>
        <pt x="895" y="472" on="0"/>
      </contour>
    </TTGlyph>
    <TTGlyph name="aacute" xMin="-121" yMin="-135" xMax="1653" yMax="1667">
      <component glyphName="a" x="0" y="0" flags="0x204"/>
      <component glyphName="acute" x="784" y="213" flags="0x4"/>
    </TTGlyph>
    <TTGlyph name="abreve" xMin="-121" yMin="-135" xMax="1653" yMax="1639">
      <component glyphName="a" x="0" y="0" flags="0x204"/>
      <component glyphName="breve" x="561" y="203" flags="0x4"/>
    </TTGlyph>
    <TTGlyph name="acircumflex" xMin="-121" yMin="-135" xMax="1653" yMax="1690">
      <component glyphName="a" x="0" y="0" flags="0x204"/>
      <component glyphName="circumflex" x="557" y="256" flags="0x4"/>
    </TTGlyph>
    <TTGlyph name="acute" xMin="0" yMin="1034" xMax="465" yMax="1454">
      <contour>
        <pt x="465" y="1255" on="1"/>
        <pt x="418" y="1234" on="0"/>
        <pt x="332" y="1188" on="0"/>
        <pt x="251" y="1134" on="0"/>
        <pt x="172" y="1072" on="0"/>
        <pt x="133" y="1034" on="1"/>
        <pt x="0" y="1176" on="1"/>
        <pt x="69" y="1234" on="0"/>
        <pt x="193" y="1367" on="0"/>
        <pt x="246" y="1454" on="1"/>
        <pt x="259" y="1428" on="0"/>
        <pt x="309" y="1371" on="0"/>
        <pt x="370" y="1318" on="0"/>
        <pt x="436" y="1271" on="0"/>
      </contour>
    </TTGlyph>
    <TTGlyph name="adieresis" xMin="-121" yMin="-135" xMax="1653" yMax="1526">
      <component glyphName="a" x="0" y="0" flags="0x204"/>
      <component glyphName="dieresis" x="580" y="154" flags="0x4"/>
    </TTGlyph>
    <TTGlyph name="ae" xMin="-125" yMin="-86" xMax="2308" yMax="1251">
      <contour>
        <pt x="1483" y="4" on="1"/>
        <pt x="1425" y="4" on="0"/>
        <pt x="1311" y="3" on="0"/>
        <pt x="1192" y="-6" on="0"/>
        <pt x="1068" y="-25" on="0"/>
        <pt x="1001" y="-43" on="1"/>
        <pt x="1023" y="22" on="0"/>
        <pt x="1059" y="151" on="0"/>
        <pt x="1073" y="217" on="1"/>
        <pt x="938" y="190" on="0"/>
        <pt x="809" y="190" on="1"/>
        <pt x="771" y="190" on="0"/>
        <pt x="695" y="195" on="0"/>
        <pt x="657" y="201" on="1"/>
        <pt x="595" y="66" on="0"/>
        <pt x="549" y="-84" on="1"/>
        <pt x="498" y="-58" on="0"/>
        <pt x="437" y="-37" on="1"/>
        <pt x="385" y="-20" on="0"/>
        <pt x="249" y="10" on="0"/>
        <pt x="174" y="10" on="1"/>
        <pt x="109" y="10" on="0"/>
        <pt x="-37" y="-12" on="0"/>
        <pt x="-125" y="-37" on="1"/>
        <pt x="-72" y="10" on="0"/>
        <pt x="23" y="106" on="0"/>
        <pt x="112" y="204" on="0"/>
        <pt x="197" y="305" on="0"/>
        <pt x="240" y="356" on="1"/>
        <pt x="260" y="381" on="1"/>
        <pt x="211" y="427" on="0"/>
        <pt x="126" y="542" on="0"/>
        <pt x="92" y="614" on="1"/>
        <pt x="164" y="579" on="0"/>
        <pt x="301" y="524" on="0"/>
        <pt x="367" y="506" on="1"/>
        <pt x="426" y="575" on="0"/>
        <pt x="554" y="713" on="0"/>
        <pt x="695" y="845" on="0"/>
        <pt x="852" y="969" on="0"/>
        <pt x="940" y="1024" on="1"/>
        <pt x="664" y="1053" on="1"/>
        <pt x="659" y="1053" on="1"/>
        <pt x="749" y="1084" on="0"/>
        <pt x="962" y="1130" on="0"/>
        <pt x="1077" y="1147" on="1"/>
        <pt x="1074" y="1156" on="0"/>
        <pt x="1071" y="1174" on="0"/>
        <pt x="1069" y="1184" on="1"/>
        <pt x="1092" y="1176" on="0"/>
        <pt x="1136" y="1164" on="0"/>
        <pt x="1159" y="1159" on="1"/>
        <pt x="1219" y="1165" on="1"/>
        <pt x="1279" y="1190" on="0"/>
        <pt x="1407" y="1233" on="0"/>
        <pt x="1479" y="1251" on="1"/>
        <pt x="1460" y="1236" on="0"/>
        <pt x="1423" y="1201" on="0"/>
        <pt x="1403" y="1184" on="1"/>
        <pt x="1531" y="1193" on="0"/>
        <pt x="1768" y="1202" on="0"/>
        <pt x="1870" y="1202" on="1"/>
        <pt x="1907" y="1202" on="0"/>
        <pt x="2020" y="1197" on="0"/>
        <pt x="2143" y="1189" on="0"/>
        <pt x="2263" y="1181" on="0"/>
        <pt x="2308" y="1178" on="1"/>
        <pt x="2265" y="1031" on="0"/>
        <pt x="2265" y="874" on="1"/>
        <pt x="2265" y="847" on="0"/>
        <pt x="2267" y="779" on="0"/>
        <pt x="2269" y="752" on="1"/>
        <pt x="2130" y="804" on="0"/>
        <pt x="1774" y="893" on="0"/>
        <pt x="1579" y="928" on="1"/>
        <pt x="1573" y="868" on="0"/>
        <pt x="1565" y="746" on="0"/>
        <pt x="1563" y="686" on="1"/>
        <pt x="1648" y="702" on="0"/>
        <pt x="1825" y="717" on="0"/>
        <pt x="1921" y="719" on="1"/>
        <pt x="1910" y="682" on="0"/>
        <pt x="1901" y="608" on="0"/>
        <pt x="1901" y="569" on="1"/>
        <pt x="1901" y="538" on="0"/>
        <pt x="1907" y="472" on="0"/>
        <pt x="1915" y="438" on="1"/>
        <pt x="1825" y="476" on="0"/>
        <pt x="1650" y="538" on="0"/>
        <pt x="1561" y="563" on="1"/>
        <pt x="1561" y="482" on="0"/>
        <pt x="1569" y="307" on="0"/>
        <pt x="1577" y="219" on="1"/>
        <pt x="1748" y="242" on="0"/>
        <pt x="2094" y="319" on="0"/>
        <pt x="2271" y="375" on="1"/>
        <pt x="2259" y="312" on="0"/>
        <pt x="2247" y="188" on="0"/>
        <pt x="2247" y="131" on="1"/>
        <pt x="2247" y="77" on="0"/>
        <pt x="2257" y="-30" on="0"/>
        <pt x="2269" y="-86" on="1"/>
        <pt x="2099" y="-49" on="0"/>
        <pt x="1768" y="6" on="0"/>
        <pt x="1599" y="23" on="1"/>
        <pt x="1604" y="4" on="1"/>
      </contour>
      <contour>
        <pt x="803" y="471" on="1"/>
        <pt x="883" y="483" on="0"/>
        <pt x="1042" y="532" on="0"/>
        <pt x="1122" y="567" on="1"/>
        <pt x="1124" y="601" on="0"/>
        <pt x="1126" y="666" on="0"/>
        <pt x="1126" y="700" on="1"/>
        <pt x="1126" y="748" on="0"/>
        <pt x="1121" y="845" on="0"/>
        <pt x="1116" y="895" on="1"/>
        <pt x="1036" y="805" on="0"/>
        <pt x="877" y="596" on="0"/>
      </contour>
    </TTGlyph>
    <TTGlyph name="aeacute" xMin="-125" yMin="-86" xMax="2308" yMax="1667">
      <component glyphName="ae" x="0" y="0" flags="0x204"/>
      <component glyphName="acute" x="1167" y="213" flags="0x4"/>
    </TTGlyph>
    <TTGlyph name="agrave" xMin="-121" yMin="-135" xMax="1653" yMax="1628">
      <component glyphName="a" x="0" y="0" flags="0x204"/>
      <component glyphName="grave" x="489" y="174" flags="0x4"/>
    </TTGlyph>
    <TTGlyph name="amacron" xMin="-121" yMin="-135" xMax="1653" yMax="1516">
      <component glyphName="a" x="0" y="0" flags="0x204"/>
      <component glyphName="macron" x="539" y="86" flags="0x4"/>
    </TTGlyph>
    <TTGlyph name="ampersand" xMin="-16" yMin="-293" xMax="1231" yMax="1741">
      <contour>
        <pt x="25" y="547" on="1"/>
        <pt x="48" y="538" on="0"/>
        <pt x="96" y="520" on="0"/>
        <pt x="119" y="512" on="1"/>
        <pt x="120" y="543" on="0"/>
        <pt x="148" y="599" on="0"/>
        <pt x="189" y="647" on="0"/>
        <pt x="236" y="687" on="0"/>
        <pt x="279" y="716" on="0"/>
        <pt x="310" y="734" on="0"/>
        <pt x="315" y="737" on="1"/>
        <pt x="256" y="770" on="0"/>
        <pt x="208" y="810" on="1"/>
        <pt x="188" y="827" on="0"/>
        <pt x="149" y="869" on="0"/>
        <pt x="118" y="917" on="0"/>
        <pt x="97" y="971" on="0"/>
        <pt x="96" y="1001" on="1"/>
        <pt x="-16" y="975" on="1"/>
        <pt x="15" y="1036" on="0"/>
        <pt x="115" y="1138" on="0"/>
        <pt x="242" y="1218" on="0"/>
        <pt x="392" y="1276" on="0"/>
        <pt x="475" y="1292" on="1"/>
        <pt x="469" y="1388" on="0"/>
        <pt x="448" y="1560" on="0"/>
        <pt x="432" y="1634" on="1"/>
        <pt x="461" y="1629" on="0"/>
        <pt x="512" y="1624" on="0"/>
        <pt x="532" y="1624" on="1"/>
        <pt x="567" y="1624" on="0"/>
        <pt x="650" y="1637" on="0"/>
        <pt x="739" y="1665" on="0"/>
        <pt x="829" y="1709" on="0"/>
        <pt x="870" y="1741" on="1"/>
        <pt x="844" y="1638" on="0"/>
        <pt x="810" y="1418" on="0"/>
        <pt x="799" y="1307" on="1"/>
        <pt x="852" y="1302" on="0"/>
        <pt x="967" y="1285" on="0"/>
        <pt x="1081" y="1263" on="0"/>
        <pt x="1187" y="1235" on="0"/>
        <pt x="1231" y="1219" on="1"/>
        <pt x="1177" y="1140" on="0"/>
        <pt x="1104" y="960" on="0"/>
        <pt x="1085" y="854" on="1"/>
        <pt x="1012" y="904" on="0"/>
        <pt x="864" y="972" on="0"/>
        <pt x="716" y="1017" on="0"/>
        <pt x="566" y="1041" on="0"/>
        <pt x="492" y="1047" on="1"/>
        <pt x="492" y="1026" on="1"/>
        <pt x="492" y="997" on="0"/>
        <pt x="512" y="920" on="0"/>
        <pt x="572" y="851" on="0"/>
        <pt x="683" y="801" on="0"/>
        <pt x="774" y="799" on="1"/>
        <pt x="768" y="645" on="1"/>
        <pt x="764" y="645" on="0"/>
        <pt x="725" y="641" on="0"/>
        <pt x="671" y="629" on="0"/>
        <pt x="609" y="605" on="0"/>
        <pt x="558" y="565" on="0"/>
        <pt x="524" y="505" on="0"/>
        <pt x="524" y="463" on="1"/>
        <pt x="524" y="449" on="1"/>
        <pt x="584" y="450" on="0"/>
        <pt x="725" y="467" on="0"/>
        <pt x="874" y="497" on="0"/>
        <pt x="1026" y="541" on="0"/>
        <pt x="1098" y="571" on="1"/>
        <pt x="1098" y="469" on="0"/>
        <pt x="1135" y="299" on="0"/>
        <pt x="1174" y="223" on="1"/>
        <pt x="1130" y="214" on="0"/>
        <pt x="1030" y="199" on="0"/>
        <pt x="929" y="189" on="0"/>
        <pt x="832" y="183" on="0"/>
        <pt x="791" y="182" on="1"/>
        <pt x="799" y="76" on="0"/>
        <pt x="826" y="-121" on="0"/>
        <pt x="846" y="-211" on="1"/>
        <pt x="811" y="-203" on="0"/>
        <pt x="773" y="-201" on="0"/>
        <pt x="758" y="-201" on="1"/>
        <pt x="724" y="-201" on="0"/>
        <pt x="644" y="-212" on="0"/>
        <pt x="560" y="-234" on="0"/>
        <pt x="475" y="-269" on="0"/>
        <pt x="436" y="-293" on="1"/>
        <pt x="453" y="-178" on="0"/>
        <pt x="476" y="76" on="0"/>
        <pt x="481" y="209" on="1"/>
        <pt x="323" y="246" on="0"/>
        <pt x="99" y="416" on="0"/>
      </contour>
    </TTGlyph>
    <TTGlyph name="aogonek" xMin="-121" yMin="-473" xMax="1653" yMax="1251">
      <contour>
        <pt x="1653" y="-332" on="1"/>
        <pt x="1618" y="-380" on="0"/>
        <pt x="1541" y="-436" on="0"/>
        <pt x="1470" y="-465" on="0"/>
        <pt x="1409" y="-473" on="0"/>
        <pt x="1389" y="-473" on="1"/>
        <pt x="1331" y="-473" on="0"/>
        <pt x="1244" y="-434" on="0"/>
        <pt x="1185" y="-373" on="0"/>
        <pt x="1155" y="-298" on="0"/>
        <pt x="1155" y="-262" on="1"/>
        <pt x="1155" y="-214" on="0"/>
        <pt x="1207" y="-113" on="0"/>
        <pt x="1260" y="-63" on="1"/>
        <pt x="1167" y="-92" on="0"/>
        <pt x="1071" y="-135" on="1"/>
        <pt x="1082" y="-109" on="0"/>
        <pt x="1087" y="-54" on="0"/>
        <pt x="1087" y="-25" on="1"/>
        <pt x="1087" y="23" on="0"/>
        <pt x="1069" y="138" on="0"/>
        <pt x="1051" y="201" on="1"/>
        <pt x="1009" y="195" on="0"/>
        <pt x="925" y="190" on="0"/>
        <pt x="885" y="190" on="1"/>
        <pt x="814" y="190" on="0"/>
        <pt x="677" y="207" on="0"/>
        <pt x="614" y="227" on="1"/>
        <pt x="597" y="153" on="0"/>
        <pt x="569" y="-2" on="0"/>
        <pt x="555" y="-84" on="1"/>
        <pt x="504" y="-58" on="0"/>
        <pt x="443" y="-37" on="1"/>
        <pt x="391" y="-20" on="0"/>
        <pt x="254" y="10" on="0"/>
        <pt x="178" y="10" on="1"/>
        <pt x="113" y="10" on="0"/>
        <pt x="-33" y="-12" on="0"/>
        <pt x="-121" y="-37" on="1"/>
        <pt x="-53" y="30" on="0"/>
        <pt x="66" y="169" on="0"/>
        <pt x="165" y="298" on="0"/>
        <pt x="242" y="411" on="0"/>
        <pt x="268" y="453" on="1"/>
        <pt x="239" y="488" on="0"/>
        <pt x="190" y="568" on="0"/>
        <pt x="168" y="614" on="1"/>
        <pt x="208" y="594" on="0"/>
        <pt x="286" y="561" on="0"/>
        <pt x="324" y="547" on="1"/>
        <pt x="370" y="628" on="0"/>
        <pt x="472" y="792" on="0"/>
        <pt x="530" y="870" on="1"/>
        <pt x="518" y="899" on="0"/>
        <pt x="481" y="973" on="0"/>
        <pt x="438" y="1052" on="0"/>
        <pt x="390" y="1130" on="0"/>
        <pt x="367" y="1163" on="1"/>
        <pt x="463" y="1137" on="0"/>
        <pt x="656" y="1107" on="0"/>
        <pt x="752" y="1102" on="1"/>
        <pt x="807" y="1147" on="0"/>
        <pt x="927" y="1222" on="0"/>
        <pt x="993" y="1251" on="1"/>
        <pt x="972" y="1216" on="0"/>
        <pt x="932" y="1142" on="0"/>
        <pt x="913" y="1104" on="1"/>
        <pt x="963" y="1109" on="0"/>
        <pt x="1065" y="1122" on="0"/>
        <pt x="1120" y="1133" on="1"/>
        <pt x="1157" y="998" on="0"/>
        <pt x="1245" y="742" on="0"/>
        <pt x="1296" y="618" on="1"/>
        <pt x="1340" y="643" on="0"/>
        <pt x="1427" y="696" on="0"/>
        <pt x="1470" y="727" on="1"/>
        <pt x="1501" y="622" on="0"/>
        <pt x="1573" y="446" on="0"/>
        <pt x="1616" y="377" on="1"/>
        <pt x="1574" y="357" on="0"/>
        <pt x="1492" y="320" on="0"/>
        <pt x="1450" y="303" on="1"/>
        <pt x="1542" y="137" on="0"/>
        <pt x="1653" y="-10" on="1"/>
        <pt x="1585" y="-10" on="0"/>
        <pt x="1456" y="-20" on="0"/>
        <pt x="1393" y="-33" on="1"/>
        <pt x="1379" y="-52" on="0"/>
        <pt x="1354" y="-96" on="0"/>
        <pt x="1334" y="-140" on="0"/>
        <pt x="1323" y="-183" on="0"/>
        <pt x="1323" y="-201" on="1"/>
        <pt x="1323" y="-232" on="0"/>
        <pt x="1357" y="-270" on="0"/>
        <pt x="1384" y="-270" on="1"/>
        <pt x="1415" y="-270" on="0"/>
        <pt x="1463" y="-229" on="0"/>
        <pt x="1468" y="-195" on="1"/>
        <pt x="1500" y="-238" on="0"/>
        <pt x="1596" y="-309" on="0"/>
      </contour>
      <contour>
        <pt x="946" y="483" on="1"/>
        <pt x="911" y="561" on="0"/>
        <pt x="828" y="720" on="0"/>
        <pt x="780" y="801" on="1"/>
        <pt x="721" y="643" on="0"/>
        <pt x="672" y="465" on="1"/>
        <pt x="690" y="463" on="0"/>
        <pt x="725" y="463" on="0"/>
        <pt x="743" y="463" on="1"/>
        <pt x="794" y="463" on="0"/>
        <pt x="895" y="472" on="0"/>
      </contour>
    </TTGlyph>
    <TTGlyph name="approxequal" xMin="98" yMin="179" xMax="1011" yMax="1173">
      <component glyphName="asciitilde" x="20" y="172" flags="0x4"/>
      <component glyphName="asciitilde" x="20" y="-331" flags="0x4"/>
    </TTGlyph>
    <TTGlyph name="aring" xMin="-121" yMin="-135" xMax="1653" yMax="1710">
      <component glyphName="a" x="0" y="0" flags="0x204"/>
      <component glyphName="ring" x="659" y="217" flags="0x4"/>
    </TTGlyph>
    <TTGlyph name="asciicircum" xMin="0" yMin="559" xMax="1024" yMax="1360">
      <contour>
        <pt x="1024" y="635" on="1"/>
        <pt x="1012" y="637" on="0"/>
        <pt x="979" y="639" on="0"/>
        <pt x="961" y="639" on="1"/>
        <pt x="924" y="639" on="0"/>
        <pt x="836" y="632" on="0"/>
        <pt x="750" y="619" on="0"/>
        <pt x="675" y="603" on="0"/>
        <pt x="651" y="594" on="1"/>
        <pt x="635" y="655" on="0"/>
        <pt x="604" y="753" on="0"/>
        <pt x="568" y="846" on="0"/>
        <pt x="527" y="946" on="0"/>
        <pt x="500" y="1010" on="1"/>
        <pt x="472" y="956" on="0"/>
        <pt x="432" y="849" on="0"/>
        <pt x="404" y="739" on="0"/>
        <pt x="384" y="623" on="0"/>
        <pt x="377" y="559" on="1"/>
        <pt x="359" y="568" on="0"/>
        <pt x="304" y="582" on="0"/>
        <pt x="239" y="590" on="0"/>
        <pt x="169" y="594" on="0"/>
        <pt x="135" y="594" on="1"/>
        <pt x="95" y="594" on="0"/>
        <pt x="25" y="590" on="0"/>
        <pt x="0" y="584" on="1"/>
        <pt x="48" y="657" on="0"/>
        <pt x="132" y="806" on="0"/>
        <pt x="199" y="983" on="0"/>
        <pt x="244" y="1202" on="0"/>
        <pt x="252" y="1346" on="1"/>
        <pt x="283" y="1339" on="0"/>
        <pt x="381" y="1333" on="0"/>
        <pt x="438" y="1333" on="1"/>
        <pt x="481" y="1333" on="0"/>
        <pt x="570" y="1336" on="0"/>
        <pt x="653" y="1343" on="0"/>
        <pt x="727" y="1353" on="0"/>
        <pt x="756" y="1360" on="1"/>
        <pt x="756" y="1255" on="0"/>
        <pt x="794" y="1070" on="0"/>
        <pt x="863" y="895" on="0"/>
        <pt x="962" y="725" on="0"/>
      </contour>
    </TTGlyph>
    <TTGlyph name="asciitilde" xMin="78" yMin="510" xMax="991" yMax="1001">
      <contour>
        <pt x="930" y="1001" on="1"/>
        <pt x="947" y="978" on="0"/>
        <pt x="960" y="943" on="1"/>
        <pt x="971" y="913" on="0"/>
        <pt x="991" y="820" on="0"/>
        <pt x="991" y="754" on="1"/>
        <pt x="991" y="695" on="0"/>
        <pt x="954" y="604" on="0"/>
        <pt x="892" y="542" on="0"/>
        <pt x="811" y="510" on="0"/>
        <pt x="766" y="510" on="1"/>
        <pt x="713" y="510" on="0"/>
        <pt x="635" y="544" on="0"/>
        <pt x="576" y="595" on="0"/>
        <pt x="530" y="654" on="0"/>
        <pt x="489" y="705" on="0"/>
        <pt x="447" y="739" on="0"/>
        <pt x="422" y="739" on="1"/>
        <pt x="396" y="739" on="0"/>
        <pt x="377" y="702" on="0"/>
        <pt x="377" y="674" on="1"/>
        <pt x="377" y="643" on="0"/>
        <pt x="394" y="571" on="0"/>
        <pt x="403" y="545" on="1"/>
        <pt x="379" y="553" on="0"/>
        <pt x="322" y="559" on="0"/>
        <pt x="291" y="559" on="1"/>
        <pt x="251" y="559" on="0"/>
        <pt x="168" y="548" on="0"/>
        <pt x="131" y="537" on="1"/>
        <pt x="115" y="564" on="0"/>
        <pt x="104" y="599" on="1"/>
        <pt x="94" y="629" on="0"/>
        <pt x="78" y="715" on="0"/>
        <pt x="78" y="772" on="1"/>
        <pt x="78" y="836" on="0"/>
        <pt x="127" y="921" on="0"/>
        <pt x="201" y="971" on="0"/>
        <pt x="287" y="991" on="0"/>
        <pt x="324" y="991" on="1"/>
        <pt x="380" y="991" on="0"/>
        <pt x="459" y="955" on="0"/>
        <pt x="517" y="900" on="0"/>
        <pt x="558" y="836" on="0"/>
        <pt x="593" y="781" on="0"/>
        <pt x="626" y="745" on="0"/>
        <pt x="647" y="745" on="1"/>
        <pt x="681" y="745" on="0"/>
        <pt x="709" y="786" on="0"/>
        <pt x="709" y="815" on="1"/>
        <pt x="709" y="836" on="0"/>
        <pt x="696" y="885" on="0"/>
        <pt x="675" y="931" on="0"/>
        <pt x="649" y="971" on="0"/>
        <pt x="635" y="983" on="1"/>
        <pt x="678" y="977" on="0"/>
        <pt x="733" y="977" on="1"/>
        <pt x="778" y="977" on="0"/>
        <pt x="877" y="987" on="0"/>
      </contour>
    </TTGlyph>
    <TTGlyph name="asterisk" xMin="74" yMin="565" xMax="983" yMax="1436">
      <contour>
        <pt x="74" y="956" on="1"/>
        <pt x="108" y="1042" on="0"/>
        <pt x="153" y="1179" on="0"/>
        <pt x="180" y="1272" on="0"/>
        <pt x="190" y="1319" on="0"/>
        <pt x="190" y="1315" on="1"/>
        <pt x="190" y="1312" on="0"/>
        <pt x="230" y="1266" on="0"/>
        <pt x="297" y="1202" on="0"/>
        <pt x="384" y="1133" on="0"/>
        <pt x="430" y="1108" on="1"/>
        <pt x="415" y="1180" on="0"/>
        <pt x="366" y="1298" on="0"/>
        <pt x="342" y="1341" on="1"/>
        <pt x="314" y="1391" on="0"/>
        <pt x="283" y="1432" on="1"/>
        <pt x="498" y="1380" on="0"/>
        <pt x="713" y="1436" on="1"/>
        <pt x="700" y="1413" on="0"/>
        <pt x="676" y="1338" on="0"/>
        <pt x="655" y="1252" on="0"/>
        <pt x="638" y="1161" on="0"/>
        <pt x="631" y="1122" on="1"/>
        <pt x="671" y="1151" on="0"/>
        <pt x="742" y="1217" on="0"/>
        <pt x="802" y="1279" on="0"/>
        <pt x="848" y="1329" on="0"/>
        <pt x="862" y="1343" on="1"/>
        <pt x="871" y="1292" on="0"/>
        <pt x="912" y="1181" on="0"/>
        <pt x="932" y="1134" on="1"/>
        <pt x="956" y="1079" on="0"/>
        <pt x="983" y="1026" on="1"/>
        <pt x="959" y="1027" on="0"/>
        <pt x="889" y="1021" on="0"/>
        <pt x="808" y="1008" on="0"/>
        <pt x="722" y="990" on="0"/>
        <pt x="684" y="981" on="1"/>
        <pt x="733" y="960" on="0"/>
        <pt x="830" y="931" on="0"/>
        <pt x="868" y="921" on="1"/>
        <pt x="913" y="910" on="0"/>
        <pt x="954" y="903" on="1"/>
        <pt x="931" y="892" on="0"/>
        <pt x="884" y="853" on="0"/>
        <pt x="836" y="804" on="0"/>
        <pt x="790" y="748" on="0"/>
        <pt x="769" y="720" on="1"/>
        <pt x="721" y="655" on="0"/>
        <pt x="674" y="580" on="1"/>
        <pt x="656" y="647" on="0"/>
        <pt x="634" y="709" on="1"/>
        <pt x="624" y="735" on="0"/>
        <pt x="601" y="790" on="0"/>
        <pt x="574" y="842" on="0"/>
        <pt x="544" y="887" on="0"/>
        <pt x="528" y="903" on="1"/>
        <pt x="514" y="888" on="0"/>
        <pt x="492" y="842" on="0"/>
        <pt x="473" y="789" on="0"/>
        <pt x="459" y="731" on="0"/>
        <pt x="453" y="703" on="1"/>
        <pt x="440" y="638" on="0"/>
        <pt x="432" y="565" on="1"/>
        <pt x="379" y="619" on="0"/>
        <pt x="262" y="689" on="0"/>
        <pt x="211" y="711" on="1"/>
        <pt x="152" y="736" on="0"/>
        <pt x="94" y="750" on="1"/>
        <pt x="149" y="776" on="0"/>
        <pt x="204" y="809" on="1"/>
        <pt x="251" y="836" on="0"/>
        <pt x="354" y="909" on="0"/>
        <pt x="395" y="950" on="1"/>
      </contour>
    </TTGlyph>
    <TTGlyph name="at" xMin="75" yMin="-291" xMax="2017" yMax="1401">
      <contour>
        <pt x="1622" y="463" on="1"/>
        <pt x="1594" y="449" on="0"/>
        <pt x="1541" y="425" on="0"/>
        <pt x="1513" y="416" on="1"/>
        <pt x="1532" y="384" on="0"/>
        <pt x="1567" y="322" on="0"/>
        <pt x="1587" y="293" on="1"/>
        <pt x="1668" y="356" on="0"/>
        <pt x="1757" y="545" on="0"/>
        <pt x="1757" y="672" on="1"/>
        <pt x="1757" y="758" on="0"/>
        <pt x="1678" y="916" on="0"/>
        <pt x="1517" y="1038" on="0"/>
        <pt x="1272" y="1110" on="0"/>
        <pt x="1106" y="1110" on="1"/>
        <pt x="1056" y="1110" on="0"/>
        <pt x="941" y="1092" on="0"/>
        <pt x="872" y="1069" on="1"/>
        <pt x="872" y="1086" on="0"/>
        <pt x="854" y="1140" on="0"/>
        <pt x="840" y="1171" on="1"/>
        <pt x="736" y="1139" on="0"/>
        <pt x="557" y="1030" on="0"/>
        <pt x="426" y="876" on="0"/>
        <pt x="352" y="676" on="0"/>
        <pt x="354" y="555" on="1"/>
        <pt x="355" y="498" on="0"/>
        <pt x="388" y="371" on="0"/>
        <pt x="451" y="248" on="0"/>
        <pt x="545" y="136" on="0"/>
        <pt x="668" y="50" on="0"/>
        <pt x="822" y="0" on="0"/>
        <pt x="913" y="0" on="1"/>
        <pt x="963" y="0" on="0"/>
        <pt x="1079" y="18" on="0"/>
        <pt x="1147" y="41" on="1"/>
        <pt x="1147" y="18" on="0"/>
        <pt x="1178" y="-61" on="0"/>
        <pt x="1225" y="-145" on="0"/>
        <pt x="1278" y="-219" on="0"/>
        <pt x="1300" y="-238" on="1"/>
        <pt x="1255" y="-254" on="0"/>
        <pt x="1198" y="-265" on="1"/>
        <pt x="1149" y="-275" on="0"/>
        <pt x="1014" y="-291" on="0"/>
        <pt x="932" y="-291" on="1"/>
        <pt x="778" y="-291" on="0"/>
        <pt x="528" y="-221" on="0"/>
        <pt x="334" y="-100" on="0"/>
        <pt x="195" y="61" on="0"/>
        <pt x="109" y="242" on="0"/>
        <pt x="75" y="435" on="0"/>
        <pt x="82" y="526" on="1"/>
        <pt x="90" y="638" on="0"/>
        <pt x="156" y="825" on="0"/>
        <pt x="260" y="978" on="0"/>
        <pt x="395" y="1097" on="0"/>
        <pt x="548" y="1183" on="0"/>
        <pt x="714" y="1237" on="0"/>
        <pt x="797" y="1249" on="1"/>
        <pt x="777" y="1281" on="0"/>
        <pt x="736" y="1332" on="0"/>
        <pt x="719" y="1348" on="1"/>
        <pt x="764" y="1363" on="0"/>
        <pt x="821" y="1374" on="1"/>
        <pt x="870" y="1384" on="0"/>
        <pt x="1004" y="1401" on="0"/>
        <pt x="1087" y="1401" on="1"/>
        <pt x="1318" y="1401" on="0"/>
        <pt x="1667" y="1295" on="0"/>
        <pt x="1900" y="1112" on="0"/>
        <pt x="2017" y="867" on="0"/>
        <pt x="2017" y="729" on="1"/>
        <pt x="2017" y="602" on="0"/>
        <pt x="1939" y="399" on="0"/>
        <pt x="1806" y="248" on="0"/>
        <pt x="1632" y="151" on="0"/>
        <pt x="1440" y="110" on="0"/>
        <pt x="1243" y="127" on="0"/>
        <pt x="1153" y="164" on="1"/>
        <pt x="1187" y="164" on="0"/>
        <pt x="1251" y="169" on="0"/>
        <pt x="1282" y="174" on="1"/>
        <pt x="1284" y="182" on="0"/>
        <pt x="1284" y="197" on="0"/>
        <pt x="1284" y="205" on="1"/>
        <pt x="1284" y="267" on="0"/>
        <pt x="1260" y="350" on="1"/>
        <pt x="1207" y="344" on="0"/>
        <pt x="1153" y="344" on="1"/>
        <pt x="1063" y="344" on="0"/>
        <pt x="979" y="367" on="1"/>
        <pt x="968" y="319" on="0"/>
        <pt x="950" y="221" on="0"/>
        <pt x="942" y="168" on="1"/>
        <pt x="909" y="184" on="0"/>
        <pt x="870" y="197" on="1"/>
        <pt x="837" y="208" on="0"/>
        <pt x="749" y="227" on="0"/>
        <pt x="700" y="227" on="1"/>
        <pt x="660" y="227" on="0"/>
        <pt x="566" y="214" on="0"/>
        <pt x="510" y="197" on="1"/>
        <pt x="553" y="240" on="0"/>
        <pt x="629" y="329" on="0"/>
        <pt x="693" y="411" on="0"/>
        <pt x="743" y="484" on="0"/>
        <pt x="760" y="510" on="1"/>
        <pt x="741" y="533" on="0"/>
        <pt x="708" y="585" on="0"/>
        <pt x="694" y="614" on="1"/>
        <pt x="720" y="602" on="0"/>
        <pt x="770" y="579" on="0"/>
        <pt x="795" y="569" on="1"/>
        <pt x="824" y="623" on="0"/>
        <pt x="890" y="729" on="0"/>
        <pt x="928" y="778" on="1"/>
        <pt x="919" y="796" on="0"/>
        <pt x="895" y="844" on="0"/>
        <pt x="866" y="895" on="0"/>
        <pt x="836" y="945" on="0"/>
        <pt x="821" y="967" on="1"/>
        <pt x="946" y="932" on="0"/>
        <pt x="1069" y="926" on="1"/>
        <pt x="1137" y="985" on="0"/>
        <pt x="1223" y="1022" on="1"/>
        <pt x="1209" y="999" on="0"/>
        <pt x="1184" y="953" on="0"/>
        <pt x="1171" y="928" on="1"/>
        <pt x="1202" y="930" on="0"/>
        <pt x="1267" y="940" on="0"/>
        <pt x="1303" y="946" on="1"/>
        <pt x="1327" y="859" on="0"/>
        <pt x="1383" y="695" on="0"/>
        <pt x="1417" y="616" on="1"/>
        <pt x="1445" y="632" on="0"/>
        <pt x="1500" y="666" on="0"/>
        <pt x="1528" y="686" on="1"/>
        <pt x="1548" y="620" on="0"/>
        <pt x="1594" y="508" on="0"/>
      </contour>
      <contour>
        <pt x="1192" y="530" on="1"/>
        <pt x="1170" y="580" on="0"/>
        <pt x="1116" y="681" on="0"/>
        <pt x="1085" y="733" on="1"/>
        <pt x="1067" y="682" on="0"/>
        <pt x="1033" y="575" on="0"/>
        <pt x="1016" y="518" on="1"/>
        <pt x="1028" y="516" on="0"/>
        <pt x="1051" y="516" on="0"/>
        <pt x="1063" y="516" on="1"/>
        <pt x="1095" y="516" on="0"/>
        <pt x="1160" y="522" on="0"/>
      </contour>
    </TTGlyph>
    <TTGlyph name="atilde" xMin="-121" yMin="-135" xMax="1653" yMax="1649">
      <component glyphName="a" x="0" y="0" flags="0x204"/>
      <component glyphName="tilde" x="545" y="199" flags="0x4"/>
    </TTGlyph>
    <TTGlyph name="b" xMin="47" yMin="-152" xMax="1522" yMax="1227">
      <contour>
        <pt x="1489" y="209" on="1"/>
        <pt x="1487" y="142" on="0"/>
        <pt x="1428" y="37" on="0"/>
        <pt x="1325" y="-43" on="0"/>
        <pt x="1187" y="-100" on="0"/>
        <pt x="1025" y="-135" on="0"/>
        <pt x="847" y="-152" on="0"/>
        <pt x="756" y="-152" on="1"/>
        <pt x="685" y="-152" on="0"/>
        <pt x="545" y="-143" on="0"/>
        <pt x="411" y="-125" on="0"/>
        <pt x="289" y="-100" on="0"/>
        <pt x="236" y="-84" on="1"/>
        <pt x="252" y="-55" on="1"/>
        <pt x="221" y="-65" on="0"/>
        <pt x="157" y="-83" on="0"/>
        <pt x="125" y="-94" on="1"/>
        <pt x="179" y="54" on="0"/>
        <pt x="257" y="350" on="0"/>
        <pt x="279" y="502" on="1"/>
        <pt x="214" y="539" on="0"/>
        <pt x="112" y="621" on="0"/>
        <pt x="78" y="659" on="1"/>
        <pt x="129" y="645" on="0"/>
        <pt x="235" y="621" on="0"/>
        <pt x="291" y="610" on="1"/>
        <pt x="294" y="658" on="0"/>
        <pt x="299" y="751" on="0"/>
        <pt x="299" y="799" on="1"/>
        <pt x="299" y="815" on="1"/>
        <pt x="243" y="797" on="0"/>
        <pt x="137" y="757" on="0"/>
        <pt x="86" y="735" on="1"/>
        <pt x="101" y="786" on="0"/>
        <pt x="117" y="878" on="0"/>
        <pt x="117" y="922" on="1"/>
        <pt x="117" y="991" on="0"/>
        <pt x="81" y="1120" on="0"/>
        <pt x="47" y="1176" on="1"/>
        <pt x="154" y="1191" on="0"/>
        <pt x="327" y="1211" on="0"/>
        <pt x="475" y="1223" on="0"/>
        <pt x="605" y="1227" on="0"/>
        <pt x="670" y="1227" on="1"/>
        <pt x="725" y="1227" on="0"/>
        <pt x="864" y="1222" on="0"/>
        <pt x="1014" y="1207" on="0"/>
        <pt x="1164" y="1176" on="0"/>
        <pt x="1297" y="1125" on="0"/>
        <pt x="1403" y="1049" on="0"/>
        <pt x="1434" y="995" on="1"/>
        <pt x="1516" y="1040" on="1"/>
        <pt x="1519" y="1019" on="0"/>
        <pt x="1522" y="974" on="0"/>
        <pt x="1522" y="954" on="1"/>
        <pt x="1522" y="891" on="0"/>
        <pt x="1488" y="771" on="0"/>
        <pt x="1426" y="660" on="0"/>
        <pt x="1340" y="560" on="0"/>
        <pt x="1288" y="518" on="1"/>
        <pt x="1338" y="492" on="0"/>
        <pt x="1407" y="428" on="0"/>
        <pt x="1452" y="360" on="0"/>
        <pt x="1476" y="295" on="0"/>
        <pt x="1487" y="243" on="0"/>
        <pt x="1489" y="210" on="0"/>
      </contour>
      <contour>
        <pt x="813" y="348" on="1"/>
        <pt x="760" y="348" on="0"/>
        <pt x="709" y="354" on="1"/>
        <pt x="709" y="312" on="0"/>
        <pt x="711" y="233" on="0"/>
        <pt x="713" y="193" on="1"/>
        <pt x="753" y="180" on="0"/>
        <pt x="823" y="172" on="0"/>
        <pt x="854" y="172" on="1"/>
        <pt x="897" y="172" on="0"/>
        <pt x="992" y="192" on="0"/>
        <pt x="1071" y="237" on="0"/>
        <pt x="1122" y="311" on="0"/>
        <pt x="1122" y="365" on="1"/>
        <pt x="1122" y="385" on="0"/>
        <pt x="1116" y="414" on="1"/>
        <pt x="1045" y="382" on="0"/>
        <pt x="892" y="348" on="0"/>
      </contour>
      <contour>
        <pt x="879" y="922" on="1"/>
        <pt x="838" y="922" on="0"/>
        <pt x="759" y="916" on="0"/>
        <pt x="717" y="911" on="1"/>
        <pt x="714" y="831" on="0"/>
        <pt x="711" y="672" on="0"/>
        <pt x="709" y="594" on="1"/>
        <pt x="816" y="614" on="0"/>
        <pt x="948" y="742" on="0"/>
        <pt x="965" y="868" on="1"/>
        <pt x="1051" y="881" on="1"/>
        <pt x="1013" y="901" on="0"/>
        <pt x="928" y="922" on="0"/>
      </contour>
    </TTGlyph>
    <TTGlyph name="backslash" xMin="49" yMin="-135" xMax="1288" yMax="1532">
      <contour>
        <pt x="49" y="1405" on="1"/>
        <pt x="110" y="1400" on="0"/>
        <pt x="250" y="1412" on="0"/>
        <pt x="387" y="1444" on="0"/>
        <pt x="510" y="1496" on="0"/>
        <pt x="553" y="1532" on="1"/>
        <pt x="584" y="1331" on="0"/>
        <pt x="700" y="929" on="0"/>
        <pt x="880" y="518" on="0"/>
        <pt x="1127" y="91" on="0"/>
        <pt x="1288" y="-135" on="1"/>
        <pt x="1107" y="-21" on="0"/>
        <pt x="766" y="305" on="0"/>
        <pt x="453" y="702" on="0"/>
        <pt x="171" y="1159" on="0"/>
      </contour>
    </TTGlyph>
    <TTGlyph name="bar" xMin="86" yMin="-227" xMax="584" yMax="1784">
      <contour>
        <pt x="561" y="-131" on="1"/>
        <pt x="516" y="-123" on="0"/>
        <pt x="397" y="-126" on="0"/>
        <pt x="269" y="-150" on="0"/>
        <pt x="145" y="-194" on="0"/>
        <pt x="96" y="-227" on="1"/>
        <pt x="113" y="-98" on="0"/>
        <pt x="139" y="214" on="0"/>
        <pt x="153" y="550" on="0"/>
        <pt x="155" y="900" on="0"/>
        <pt x="141" y="1235" on="0"/>
        <pt x="111" y="1544" on="0"/>
        <pt x="86" y="1671" on="1"/>
        <pt x="131" y="1661" on="0"/>
        <pt x="260" y="1662" on="0"/>
        <pt x="399" y="1688" on="0"/>
        <pt x="533" y="1742" on="0"/>
        <pt x="584" y="1784" on="1"/>
        <pt x="554" y="1644" on="0"/>
        <pt x="512" y="1326" on="0"/>
        <pt x="488" y="989" on="0"/>
        <pt x="483" y="644" on="0"/>
        <pt x="498" y="312" on="0"/>
        <pt x="533" y="2" on="0"/>
      </contour>
    </TTGlyph>
    <TTGlyph name="braceleft" xMin="-18" yMin="-259" xMax="991" yMax="1680">
      <contour>
        <pt x="991" y="1661" on="1"/>
        <pt x="899" y="1632" on="0"/>
        <pt x="759" y="1534" on="0"/>
        <pt x="665" y="1415" on="0"/>
        <pt x="618" y="1284" on="0"/>
        <pt x="618" y="1223" on="1"/>
        <pt x="618" y="1187" on="0"/>
        <pt x="648" y="1102" on="0"/>
        <pt x="685" y="1015" on="0"/>
        <pt x="715" y="931" on="0"/>
        <pt x="715" y="895" on="1"/>
        <pt x="715" y="872" on="0"/>
        <pt x="702" y="817" on="0"/>
        <pt x="665" y="766" on="0"/>
        <pt x="596" y="725" on="0"/>
        <pt x="539" y="717" on="1"/>
        <pt x="567" y="710" on="0"/>
        <pt x="627" y="680" on="0"/>
        <pt x="676" y="635" on="0"/>
        <pt x="707" y="576" on="0"/>
        <pt x="707" y="539" on="1"/>
        <pt x="707" y="506" on="0"/>
        <pt x="688" y="438" on="0"/>
        <pt x="664" y="368" on="0"/>
        <pt x="645" y="295" on="0"/>
        <pt x="645" y="258" on="1"/>
        <pt x="645" y="192" on="0"/>
        <pt x="664" y="91" on="0"/>
        <pt x="703" y="9" on="0"/>
        <pt x="760" y="-58" on="0"/>
        <pt x="837" y="-122" on="0"/>
        <pt x="933" y="-189" on="0"/>
        <pt x="991" y="-229" on="1"/>
        <pt x="913" y="-250" on="0"/>
        <pt x="729" y="-259" on="0"/>
        <pt x="544" y="-233" on="0"/>
        <pt x="372" y="-172" on="0"/>
        <pt x="240" y="-75" on="0"/>
        <pt x="160" y="59" on="0"/>
        <pt x="160" y="145" on="1"/>
        <pt x="160" y="196" on="0"/>
        <pt x="184" y="288" on="0"/>
        <pt x="212" y="369" on="0"/>
        <pt x="236" y="440" on="0"/>
        <pt x="236" y="469" on="1"/>
        <pt x="236" y="511" on="0"/>
        <pt x="211" y="572" on="0"/>
        <pt x="169" y="615" on="0"/>
        <pt x="115" y="645" on="0"/>
        <pt x="59" y="668" on="0"/>
        <pt x="4" y="687" on="0"/>
        <pt x="-18" y="698" on="1"/>
        <pt x="33" y="707" on="0"/>
        <pt x="123" y="747" on="0"/>
        <pt x="189" y="805" on="0"/>
        <pt x="227" y="879" on="0"/>
        <pt x="227" y="922" on="1"/>
        <pt x="227" y="953" on="0"/>
        <pt x="207" y="1023" on="0"/>
        <pt x="184" y="1101" on="0"/>
        <pt x="164" y="1186" on="0"/>
        <pt x="164" y="1231" on="1"/>
        <pt x="164" y="1288" on="0"/>
        <pt x="207" y="1407" on="0"/>
        <pt x="296" y="1515" on="0"/>
        <pt x="432" y="1605" on="0"/>
        <pt x="616" y="1663" on="0"/>
        <pt x="849" y="1680" on="0"/>
      </contour>
    </TTGlyph>
    <TTGlyph name="braceright" xMin="-29" yMin="-259" xMax="981" yMax="1680">
      <contour>
        <pt x="-29" y="1661" on="1"/>
        <pt x="113" y="1680" on="0"/>
        <pt x="347" y="1663" on="0"/>
        <pt x="531" y="1605" on="0"/>
        <pt x="666" y="1515" on="0"/>
        <pt x="756" y="1407" on="0"/>
        <pt x="799" y="1288" on="0"/>
        <pt x="799" y="1231" on="1"/>
        <pt x="799" y="1186" on="0"/>
        <pt x="779" y="1101" on="0"/>
        <pt x="755" y="1023" on="0"/>
        <pt x="735" y="953" on="0"/>
        <pt x="735" y="922" on="1"/>
        <pt x="735" y="879" on="0"/>
        <pt x="773" y="805" on="0"/>
        <pt x="840" y="747" on="0"/>
        <pt x="930" y="707" on="0"/>
        <pt x="981" y="698" on="1"/>
        <pt x="959" y="687" on="0"/>
        <pt x="904" y="668" on="0"/>
        <pt x="848" y="645" on="0"/>
        <pt x="794" y="615" on="0"/>
        <pt x="752" y="572" on="0"/>
        <pt x="727" y="511" on="0"/>
        <pt x="727" y="469" on="1"/>
        <pt x="727" y="440" on="0"/>
        <pt x="751" y="369" on="0"/>
        <pt x="779" y="288" on="0"/>
        <pt x="803" y="196" on="0"/>
        <pt x="803" y="145" on="1"/>
        <pt x="803" y="59" on="0"/>
        <pt x="723" y="-75" on="0"/>
        <pt x="591" y="-172" on="0"/>
        <pt x="419" y="-233" on="0"/>
        <pt x="234" y="-259" on="0"/>
        <pt x="49" y="-250" on="0"/>
        <pt x="-29" y="-229" on="1"/>
        <pt x="29" y="-189" on="0"/>
        <pt x="125" y="-122" on="0"/>
        <pt x="202" y="-58" on="0"/>
        <pt x="260" y="9" on="0"/>
        <pt x="298" y="91" on="0"/>
        <pt x="317" y="192" on="0"/>
        <pt x="317" y="258" on="1"/>
        <pt x="317" y="295" on="0"/>
        <pt x="298" y="368" on="0"/>
        <pt x="275" y="438" on="0"/>
        <pt x="256" y="506" on="0"/>
        <pt x="256" y="539" on="1"/>
        <pt x="256" y="576" on="0"/>
        <pt x="287" y="635" on="0"/>
        <pt x="336" y="680" on="0"/>
        <pt x="395" y="710" on="0"/>
        <pt x="424" y="717" on="1"/>
        <pt x="367" y="725" on="0"/>
        <pt x="298" y="766" on="0"/>
        <pt x="260" y="817" on="0"/>
        <pt x="248" y="872" on="0"/>
        <pt x="248" y="895" on="1"/>
        <pt x="248" y="931" on="0"/>
        <pt x="278" y="1015" on="0"/>
        <pt x="314" y="1102" on="0"/>
        <pt x="344" y="1187" on="0"/>
        <pt x="344" y="1223" on="1"/>
        <pt x="344" y="1284" on="0"/>
        <pt x="297" y="1415" on="0"/>
        <pt x="203" y="1534" on="0"/>
        <pt x="63" y="1632" on="0"/>
      </contour>
    </TTGlyph>
    <TTGlyph name="bracketleft" xMin="70" yMin="-254" xMax="905" yMax="1710">
      <contour>
        <pt x="905" y="111" on="1"/>
        <pt x="893" y="77" on="0"/>
        <pt x="878" y="-18" on="0"/>
        <pt x="870" y="-120" on="0"/>
        <pt x="868" y="-217" on="0"/>
        <pt x="870" y="-254" on="1"/>
        <pt x="788" y="-225" on="0"/>
        <pt x="585" y="-193" on="0"/>
        <pt x="370" y="-182" on="0"/>
        <pt x="160" y="-188" on="0"/>
        <pt x="70" y="-197" on="1"/>
        <pt x="94" y="-79" on="0"/>
        <pt x="128" y="209" on="0"/>
        <pt x="148" y="526" on="0"/>
        <pt x="156" y="859" on="0"/>
        <pt x="152" y="1186" on="0"/>
        <pt x="138" y="1495" on="0"/>
        <pt x="127" y="1628" on="1"/>
        <pt x="212" y="1628" on="0"/>
        <pt x="408" y="1632" on="0"/>
        <pt x="610" y="1649" on="0"/>
        <pt x="806" y="1681" on="0"/>
        <pt x="891" y="1710" on="1"/>
        <pt x="880" y="1675" on="0"/>
        <pt x="871" y="1573" on="0"/>
        <pt x="872" y="1463" on="0"/>
        <pt x="885" y="1358" on="0"/>
        <pt x="897" y="1321" on="1"/>
        <pt x="852" y="1337" on="0"/>
        <pt x="763" y="1357" on="0"/>
        <pt x="727" y="1362" on="1"/>
        <pt x="685" y="1368" on="0"/>
        <pt x="645" y="1370" on="1"/>
        <pt x="626" y="1224" on="0"/>
        <pt x="601" y="990" on="0"/>
        <pt x="587" y="787" on="0"/>
        <pt x="580" y="603" on="0"/>
        <pt x="578" y="412" on="0"/>
        <pt x="579" y="200" on="0"/>
        <pt x="580" y="72" on="1"/>
        <pt x="657" y="62" on="0"/>
        <pt x="822" y="85" on="0"/>
      </contour>
    </TTGlyph>
    <TTGlyph name="bracketright" xMin="35" yMin="-254" xMax="870" yMax="1710">
      <contour>
        <pt x="35" y="111" on="1"/>
        <pt x="118" y="85" on="0"/>
        <pt x="283" y="62" on="0"/>
        <pt x="360" y="72" on="1"/>
        <pt x="360" y="200" on="0"/>
        <pt x="362" y="412" on="0"/>
        <pt x="360" y="603" on="0"/>
        <pt x="353" y="787" on="0"/>
        <pt x="339" y="990" on="0"/>
        <pt x="314" y="1224" on="0"/>
        <pt x="295" y="1370" on="1"/>
        <pt x="255" y="1368" on="0"/>
        <pt x="213" y="1362" on="1"/>
        <pt x="177" y="1357" on="0"/>
        <pt x="87" y="1337" on="0"/>
        <pt x="43" y="1321" on="1"/>
        <pt x="55" y="1358" on="0"/>
        <pt x="68" y="1463" on="0"/>
        <pt x="69" y="1573" on="0"/>
        <pt x="60" y="1675" on="0"/>
        <pt x="49" y="1710" on="1"/>
        <pt x="134" y="1681" on="0"/>
        <pt x="330" y="1649" on="0"/>
        <pt x="532" y="1632" on="0"/>
        <pt x="728" y="1628" on="0"/>
        <pt x="813" y="1628" on="1"/>
        <pt x="802" y="1494" on="0"/>
        <pt x="788" y="1186" on="0"/>
        <pt x="784" y="859" on="0"/>
        <pt x="792" y="526" on="0"/>
        <pt x="812" y="209" on="0"/>
        <pt x="845" y="-79" on="0"/>
        <pt x="870" y="-197" on="1"/>
        <pt x="780" y="-188" on="0"/>
        <pt x="570" y="-182" on="0"/>
        <pt x="355" y="-193" on="0"/>
        <pt x="152" y="-225" on="0"/>
        <pt x="70" y="-254" on="1"/>
        <pt x="71" y="-217" on="0"/>
        <pt x="70" y="-120" on="0"/>
        <pt x="62" y="-18" on="0"/>
        <pt x="47" y="77" on="0"/>
      </contour>
    </TTGlyph>
    <TTGlyph name="breve" xMin="-3" yMin="1048" xMax="525" yMax="1436">
      <contour>
        <pt x="457" y="1436" on="1"/>
        <pt x="481" y="1422" on="0"/>
        <pt x="515" y="1358" on="0"/>
        <pt x="525" y="1277" on="0"/>
        <pt x="510" y="1189" on="0"/>
        <pt x="458" y="1113" on="0"/>
        <pt x="368" y="1060" on="0"/>
        <pt x="299" y="1055" on="1"/>
        <pt x="215" y="1048" on="0"/>
        <pt x="97" y="1105" on="0"/>
        <pt x="25" y="1201" on="0"/>
        <pt x="-3" y="1318" on="0"/>
        <pt x="2" y="1372" on="1"/>
        <pt x="52" y="1364" on="0"/>
        <pt x="169" y="1368" on="0"/>
        <pt x="227" y="1380" on="1"/>
        <pt x="222" y="1329" on="0"/>
        <pt x="242" y="1260" on="0"/>
        <pt x="280" y="1221" on="0"/>
        <pt x="330" y="1209" on="0"/>
        <pt x="354" y="1214" on="1"/>
        <pt x="378" y="1218" on="0"/>
        <pt x="412" y="1242" on="0"/>
        <pt x="435" y="1275" on="0"/>
        <pt x="449" y="1314" on="0"/>
        <pt x="453" y="1334" on="1"/>
        <pt x="462" y="1380" on="0"/>
      </contour>
    </TTGlyph>
    <TTGlyph name="brokenbar" xMin="92" yMin="-227" xMax="590" yMax="1784">
      <contour>
        <pt x="496" y="956" on="1"/>
        <pt x="482" y="957" on="0"/>
        <pt x="464" y="959" on="1"/>
        <pt x="448" y="961" on="0"/>
        <pt x="405" y="963" on="0"/>
        <pt x="379" y="963" on="1"/>
        <pt x="332" y="963" on="0"/>
        <pt x="218" y="953" on="0"/>
        <pt x="158" y="938" on="1"/>
        <pt x="153" y="1143" on="0"/>
        <pt x="121" y="1518" on="0"/>
        <pt x="92" y="1671" on="1"/>
        <pt x="114" y="1666" on="0"/>
        <pt x="165" y="1661" on="0"/>
        <pt x="193" y="1661" on="1"/>
        <pt x="240" y="1661" on="0"/>
        <pt x="347" y="1675" on="0"/>
        <pt x="452" y="1705" on="0"/>
        <pt x="551" y="1752" on="0"/>
        <pt x="590" y="1784" on="1"/>
        <pt x="552" y="1601" on="0"/>
        <pt x="504" y="1179" on="0"/>
      </contour>
      <contour>
        <pt x="160" y="682" on="1"/>
        <pt x="203" y="674" on="0"/>
        <pt x="283" y="668" on="0"/>
        <pt x="317" y="668" on="1"/>
        <pt x="356" y="668" on="0"/>
        <pt x="421" y="673" on="0"/>
        <pt x="444" y="677" on="1"/>
        <pt x="471" y="681" on="0"/>
        <pt x="492" y="686" on="1"/>
        <pt x="494" y="462" on="0"/>
        <pt x="530" y="45" on="0"/>
        <pt x="567" y="-131" on="1"/>
        <pt x="549" y="-128" on="0"/>
        <pt x="504" y="-125" on="0"/>
        <pt x="481" y="-125" on="1"/>
        <pt x="436" y="-125" on="0"/>
        <pt x="336" y="-137" on="0"/>
        <pt x="235" y="-163" on="0"/>
        <pt x="141" y="-201" on="0"/>
        <pt x="102" y="-227" on="1"/>
        <pt x="114" y="-133" on="0"/>
        <pt x="134" y="81" on="0"/>
        <pt x="149" y="313" on="0"/>
        <pt x="158" y="557" on="0"/>
      </contour>
    </TTGlyph>
    <TTGlyph name="bullet" xMin="115" yMin="545" xMax="719" yMax="985">
      <contour>
        <pt x="719" y="764" on="1"/>
        <pt x="717" y="701" on="0"/>
        <pt x="659" y="617" on="0"/>
        <pt x="571" y="566" on="0"/>
        <pt x="466" y="545" on="0"/>
        <pt x="416" y="545" on="1"/>
        <pt x="368" y="545" on="0"/>
        <pt x="262" y="564" on="0"/>
        <pt x="173" y="610" on="0"/>
        <pt x="115" y="689" on="0"/>
        <pt x="115" y="748" on="1"/>
        <pt x="115" y="817" on="0"/>
        <pt x="172" y="908" on="0"/>
        <pt x="261" y="963" on="0"/>
        <pt x="367" y="985" on="0"/>
        <pt x="416" y="985" on="1"/>
        <pt x="467" y="985" on="0"/>
        <pt x="574" y="960" on="0"/>
        <pt x="662" y="907" on="0"/>
        <pt x="719" y="823" on="0"/>
      </contour>
    </TTGlyph>
    <TTGlyph name="c" xMin="33" yMin="-78" xMax="1503" yMax="1212">
      <contour>
        <pt x="1503" y="395" on="1"/>
        <pt x="1492" y="314" on="0"/>
        <pt x="1420" y="181" on="0"/>
        <pt x="1314" y="76" on="0"/>
        <pt x="1184" y="-2" on="0"/>
        <pt x="1044" y="-53" on="0"/>
        <pt x="903" y="-78" on="0"/>
        <pt x="840" y="-78" on="1"/>
        <pt x="678" y="-78" on="0"/>
        <pt x="408" y="5" on="0"/>
        <pt x="201" y="171" on="0"/>
        <pt x="63" y="420" on="0"/>
        <pt x="33" y="586" on="1"/>
        <pt x="56" y="578" on="0"/>
        <pt x="101" y="566" on="0"/>
        <pt x="123" y="561" on="1"/>
        <pt x="141" y="722" on="0"/>
        <pt x="300" y="966" on="0"/>
        <pt x="552" y="1129" on="0"/>
        <pt x="882" y="1212" on="0"/>
        <pt x="1073" y="1212" on="1"/>
        <pt x="1161" y="1212" on="0"/>
        <pt x="1361" y="1196" on="0"/>
        <pt x="1483" y="1178" on="1"/>
        <pt x="1458" y="1106" on="0"/>
        <pt x="1436" y="961" on="0"/>
        <pt x="1436" y="887" on="1"/>
        <pt x="1436" y="850" on="0"/>
        <pt x="1443" y="764" on="0"/>
        <pt x="1454" y="707" on="1"/>
        <pt x="1390" y="750" on="0"/>
        <pt x="1274" y="808" on="0"/>
        <pt x="1169" y="842" on="0"/>
        <pt x="1075" y="856" on="0"/>
        <pt x="1034" y="856" on="1"/>
        <pt x="957" y="856" on="0"/>
        <pt x="794" y="817" on="0"/>
        <pt x="647" y="741" on="0"/>
        <pt x="530" y="631" on="0"/>
        <pt x="500" y="559" on="1"/>
        <pt x="532" y="564" on="0"/>
        <pt x="599" y="579" on="0"/>
        <pt x="633" y="590" on="1"/>
        <pt x="628" y="568" on="0"/>
        <pt x="625" y="530" on="0"/>
        <pt x="625" y="516" on="1"/>
        <pt x="625" y="441" on="0"/>
        <pt x="680" y="323" on="0"/>
        <pt x="775" y="243" on="0"/>
        <pt x="904" y="201" on="0"/>
        <pt x="979" y="201" on="1"/>
        <pt x="1022" y="201" on="0"/>
        <pt x="1134" y="215" on="0"/>
        <pt x="1267" y="257" on="0"/>
        <pt x="1419" y="333" on="0"/>
      </contour>
    </TTGlyph>
    <TTGlyph name="cacute" xMin="33" yMin="-78" xMax="1503" yMax="1675">
      <component glyphName="c" x="0" y="0" flags="0x204"/>
      <component glyphName="acute" x="621" y="221" flags="0x4"/>
    </TTGlyph>
    <TTGlyph name="caron" xMin="0" yMin="995" xMax="680" yMax="1434">
      <contour>
        <pt x="680" y="1323" on="1"/>
        <pt x="605" y="1251" on="0"/>
        <pt x="514" y="1091" on="0"/>
        <pt x="489" y="995" on="1"/>
        <pt x="242" y="1004" on="1"/>
        <pt x="222" y="1055" on="0"/>
        <pt x="175" y="1152" on="0"/>
        <pt x="116" y="1239" on="0"/>
        <pt x="44" y="1312" on="0"/>
        <pt x="0" y="1339" on="1"/>
        <pt x="31" y="1345" on="0"/>
        <pt x="96" y="1360" on="0"/>
        <pt x="158" y="1381" on="0"/>
        <pt x="212" y="1411" on="0"/>
        <pt x="231" y="1434" on="1"/>
        <pt x="256" y="1353" on="0"/>
        <pt x="310" y="1228" on="0"/>
        <pt x="356" y="1174" on="1"/>
        <pt x="375" y="1201" on="0"/>
        <pt x="401" y="1264" on="0"/>
        <pt x="415" y="1332" on="0"/>
        <pt x="417" y="1399" on="0"/>
        <pt x="412" y="1430" on="1"/>
        <pt x="441" y="1413" on="0"/>
        <pt x="509" y="1383" on="0"/>
        <pt x="579" y="1356" on="0"/>
        <pt x="649" y="1333" on="0"/>
      </contour>
    </TTGlyph>
    <TTGlyph name="ccaron" xMin="33" yMin="-78" xMax="1503" yMax="1715">
      <component glyphName="c" x="0" y="0" flags="0x204"/>
      <component glyphName="caron" x="440" y="281" flags="0x4"/>
    </TTGlyph>
    <TTGlyph name="ccedilla" xMin="35" yMin="-512" xMax="1505" yMax="1212">
      <contour>
        <pt x="1087" y="-311" on="1"/>
        <pt x="1082" y="-378" on="0"/>
        <pt x="1026" y="-457" on="0"/>
        <pt x="951" y="-499" on="0"/>
        <pt x="870" y="-512" on="0"/>
        <pt x="842" y="-512" on="1"/>
        <pt x="791" y="-512" on="0"/>
        <pt x="681" y="-474" on="0"/>
        <pt x="639" y="-436" on="1"/>
        <pt x="670" y="-407" on="0"/>
        <pt x="717" y="-336" on="0"/>
        <pt x="731" y="-293" on="1"/>
        <pt x="748" y="-315" on="0"/>
        <pt x="784" y="-338" on="0"/>
        <pt x="798" y="-343" on="1"/>
        <pt x="815" y="-349" on="0"/>
        <pt x="831" y="-350" on="1"/>
        <pt x="854" y="-350" on="0"/>
        <pt x="885" y="-336" on="0"/>
        <pt x="903" y="-315" on="0"/>
        <pt x="911" y="-291" on="0"/>
        <pt x="911" y="-281" on="1"/>
        <pt x="911" y="-271" on="0"/>
        <pt x="905" y="-243" on="0"/>
        <pt x="884" y="-218" on="0"/>
        <pt x="845" y="-201" on="0"/>
        <pt x="813" y="-201" on="1"/>
        <pt x="796" y="-201" on="0"/>
        <pt x="753" y="-207" on="0"/>
        <pt x="725" y="-215" on="1"/>
        <pt x="795" y="-76" on="1"/>
        <pt x="642" y="-70" on="0"/>
        <pt x="388" y="18" on="0"/>
        <pt x="193" y="184" on="0"/>
        <pt x="63" y="426" on="0"/>
        <pt x="35" y="586" on="1"/>
        <pt x="58" y="578" on="0"/>
        <pt x="103" y="566" on="0"/>
        <pt x="125" y="561" on="1"/>
        <pt x="143" y="722" on="0"/>
        <pt x="302" y="966" on="0"/>
        <pt x="554" y="1129" on="0"/>
        <pt x="884" y="1212" on="0"/>
        <pt x="1075" y="1212" on="1"/>
        <pt x="1163" y="1212" on="0"/>
        <pt x="1363" y="1196" on="0"/>
        <pt x="1485" y="1178" on="1"/>
        <pt x="1460" y="1106" on="0"/>
        <pt x="1438" y="961" on="0"/>
        <pt x="1438" y="887" on="1"/>
        <pt x="1438" y="850" on="0"/>
        <pt x="1445" y="764" on="0"/>
        <pt x="1456" y="707" on="1"/>
        <pt x="1392" y="750" on="0"/>
        <pt x="1276" y="808" on="0"/>
        <pt x="1171" y="842" on="0"/>
        <pt x="1077" y="856" on="0"/>
        <pt x="1036" y="856" on="1"/>
        <pt x="959" y="856" on="0"/>
        <pt x="796" y="817" on="0"/>
        <pt x="649" y="741" on="0"/>
        <pt x="532" y="631" on="0"/>
        <pt x="502" y="559" on="1"/>
        <pt x="534" y="564" on="0"/>
        <pt x="601" y="579" on="0"/>
        <pt x="635" y="590" on="1"/>
        <pt x="630" y="568" on="0"/>
        <pt x="627" y="530" on="0"/>
        <pt x="627" y="516" on="1"/>
        <pt x="627" y="441" on="0"/>
        <pt x="682" y="323" on="0"/>
        <pt x="777" y="243" on="0"/>
        <pt x="906" y="201" on="0"/>
        <pt x="981" y="201" on="1"/>
        <pt x="1024" y="201" on="0"/>
        <pt x="1136" y="215" on="0"/>
        <pt x="1269" y="257" on="0"/>
        <pt x="1421" y="333" on="0"/>
        <pt x="1505" y="395" on="1"/>
        <pt x="1494" y="317" on="0"/>
        <pt x="1426" y="187" on="0"/>
        <pt x="1326" y="84" on="0"/>
        <pt x="1202" y="6" on="0"/>
        <pt x="1068" y="-47" on="0"/>
        <pt x="930" y="-76" on="0"/>
        <pt x="868" y="-78" on="1"/>
        <pt x="852" y="-141" on="1"/>
        <pt x="908" y="-141" on="0"/>
        <pt x="986" y="-165" on="0"/>
        <pt x="1038" y="-200" on="0"/>
        <pt x="1068" y="-243" on="0"/>
        <pt x="1083" y="-280" on="0"/>
        <pt x="1087" y="-308" on="0"/>
      </contour>
    </TTGlyph>
    <TTGlyph name="ccircumflex" xMin="33" yMin="-78" xMax="1503" yMax="1690">
      <component glyphName="c" x="0" y="0" flags="0x204"/>
      <component glyphName="circumflex" x="440" y="256" flags="0x4"/>
    </TTGlyph>
    <TTGlyph name="cdotaccent" xMin="33" yMin="-78" xMax="1503" yMax="1595">
      <component glyphName="c" x="0" y="0" flags="0x204"/>
      <component glyphName="dotaccent" x="618" y="184" flags="0x4"/>
    </TTGlyph>
    <TTGlyph name="cedilla" xMin="0" yMin="-512" xMax="449" yMax="92">
      <contour>
        <pt x="449" y="-311" on="1"/>
        <pt x="444" y="-378" on="0"/>
        <pt x="387" y="-457" on="0"/>
        <pt x="312" y="-499" on="0"/>
        <pt x="231" y="-512" on="0"/>
        <pt x="203" y="-512" on="1"/>
        <pt x="152" y="-512" on="0"/>
        <pt x="42" y="-474" on="0"/>
        <pt x="0" y="-436" on="1"/>
        <pt x="31" y="-407" on="0"/>
        <pt x="78" y="-336" on="0"/>
        <pt x="92" y="-293" on="1"/>
        <pt x="109" y="-315" on="0"/>
        <pt x="144" y="-338" on="0"/>
        <pt x="159" y="-343" on="1"/>
        <pt x="177" y="-349" on="0"/>
        <pt x="193" y="-350" on="1"/>
        <pt x="216" y="-350" on="0"/>
        <pt x="246" y="-336" on="0"/>
        <pt x="264" y="-315" on="0"/>
        <pt x="272" y="-291" on="0"/>
        <pt x="272" y="-281" on="1"/>
        <pt x="272" y="-271" on="0"/>
        <pt x="266" y="-243" on="0"/>
        <pt x="245" y="-218" on="0"/>
        <pt x="206" y="-201" on="0"/>
        <pt x="174" y="-201" on="1"/>
        <pt x="157" y="-201" on="0"/>
        <pt x="114" y="-207" on="0"/>
        <pt x="86" y="-215" on="1"/>
        <pt x="242" y="92" on="1"/>
        <pt x="274" y="92" on="1"/>
        <pt x="213" y="-141" on="1"/>
        <pt x="269" y="-141" on="0"/>
        <pt x="347" y="-165" on="0"/>
        <pt x="400" y="-200" on="0"/>
        <pt x="430" y="-243" on="0"/>
        <pt x="445" y="-280" on="0"/>
        <pt x="449" y="-308" on="0"/>
      </contour>
    </TTGlyph>
</ttFont>
